<svg width="240" height="240" fill="none" xmlns="http://www.w3.org/2000/svg"><circle cx="120" cy="120" r="120" fill="url(#paint0_radial_586_2516)"/><circle cx="120" cy="120" r="110" fill="url(#paint1_linear_586_2516)"/><path fill-rule="evenodd" clip-rule="evenodd" d="M183.67 96.864v-2.335h-.858V94h2.346v.53h-.858v2.334h-.63zm1.818 0V94h.887l.669 1.97h.008l.634-1.97h.887v2.864h-.59v-2.03h-.008l-.702 2.03h-.485l-.702-2.01h-.008v2.01h-.59zm-50.257 1.002l-6.016-1.003v-2.807h20.857v2.807l-6.217 1.003v31.084c0 7.02 4.532 12.434 16.244 12.434 10.629 0 10.629-10.228 10.629-16.645V97.866l-6.819-1.003v-2.807h17.849v2.807l-6.418 1.003v29.681c0 10.428-4.171 18.851-15.241 18.851-16.244 0-24.868-.802-24.868-17.448V97.866zm-41.511.401v43.318l-5.816 1.003v3.008h21.659v-3.008l-7.22-1.003v-18.049h8.022l13.838 22.06h12.835v-3.008l-5.415-1.003-13.437-19.453c3.343-.735 10.028-4.893 10.028-15.642 0-10.75-12.434-12.634-18.651-12.233H87.904v3.208l5.816.802zm8.623.402v20.656h8.423c5.014 0 9.225-2.687 9.225-11.03s-6.819-9.894-10.228-9.626h-7.42zm-31.486-4.413H50v51.34h22.662c5.414 0 16.043-3.73 16.043-13.838 0-10.107-7.955-13.303-12.033-13.637 2.741-.401 8.223-4.813 8.223-12.033 0-8.663-9.225-11.832-14.038-11.832zm-12.233 22.662V99.07H68.65c2.874 0 8.623 1.684 8.623 8.423 0 6.738-4.01 9.425-9.425 9.425h-9.225zm0 4.412v20.255h9.225c11.832 0 13.436-4.091 13.436-10.829 0-8.423-7.019-9.426-12.634-9.426H58.624zm130.554 20.456a5.214 5.214 0 11-10.428 0 5.214 5.214 0 0110.428 0z" fill="#25394E"/><defs><radialGradient id="paint0_radial_586_2516" cx="0" cy="0" r="1" gradientUnits="userSpaceOnUse" gradientTransform="matrix(239.99775 261.48064 -429.12562 393.86925 0 0)"><stop stop-color="#735DD2"/><stop offset=".481" stop-color="#CE3547"/><stop offset="1" stop-color="#F8B121"/></radialGradient><linearGradient id="paint1_linear_586_2516" x1="10" y1="10" x2="272.861" y2="91.13" gradientUnits="userSpaceOnUse"><stop stop-color="#FFE27A"/><stop offset="1" stop-color="#E6B500"/></linearGradient></defs></svg>