<svg width="56" height="56" fill="none" xmlns="http://www.w3.org/2000/svg"><circle cx="28" cy="28" r="28" fill="#fff"/><path d="M28.323 10c-3.568-.04-6.52 3.488-6.52 7.61v1.109h-3.43c-.755 0-1.373.713-1.373 1.585v17.714c0 3.923 2.78 7.133 6.176 7.133H33.23c3.397 0 6.177-3.21 6.177-7.133V20.264c0-.872-.618-1.585-1.373-1.585h-3.431v-1.308c.034-4.081-2.78-7.331-6.28-7.37zm-3.774 7.332c0-2.338 1.647-4.24 3.671-4.24 2.025 0 3.672 1.902 3.672 4.24v1.307h-7.343v-1.307z" fill="#25394E"/><circle cx="35" cy="39" r="9" fill="#FFD32E"/><path d="M36.37 44v-8.4h-1.356c-.048.32-.148.588-.3.804a1.87 1.87 0 01-.564.528c-.216.128-.464.22-.744.276a4.235 4.235 0 01-.852.06v1.284h2.112V44h1.704z" fill="#fff"/></svg>