<svg width="52" height="52" fill="none" xmlns="http://www.w3.org/2000/svg"><circle cx="26" cy="26" r="25" stroke="#25394E" stroke-width="2"/><path d="M13.293 14.637c-1.104-.033-1.29 1.566-.206 1.786l1.994.437c1.055 5.047 2.206 10.075 3.32 15.11a.902.902 0 00.882.706h15.84c1.22.018 1.22-1.822 0-1.804H20.006l-.4-1.803h16.315a.902.902 0 00.88-.707l1.998-9.019a.902.902 0 00-.88-1.097c-6.901 0-13.803 0-20.704-.003l-.49-2.326a.902.902 0 00-.69-.696l-2.564-.561a.889.889 0 00-.179-.023zm9.744 18.64a2.419 2.419 0 00-2.405 2.406 2.419 2.419 0 002.405 2.406 2.42 2.42 0 002.405-2.406 2.42 2.42 0 00-2.405-2.405zm8.418 0a2.419 2.419 0 00-2.405 2.406 2.419 2.419 0 002.405 2.406 2.42 2.42 0 002.405-2.406 2.42 2.42 0 00-2.405-2.405z" fill="#25394E"/></svg>