<svg width="26" height="27" fill="none" xmlns="http://www.w3.org/2000/svg"><path fill-rule="evenodd" clip-rule="evenodd" d="M19.917 11.78H7.059a.935.935 0 00-.937.93v9.803c0 .514.42.93.937.93h12.858a.935.935 0 00.938-.93V12.71c0-.513-.42-.93-.938-.93zm-7.794 8.728h2.73l-.559-3.397a1.4 1.4 0 00.608-1.15c0-.775-.633-1.403-1.414-1.403-.782 0-1.414.628-1.414 1.403 0 .476.24.896.606 1.15l-.557 3.396z" fill="#25394E"/><path fill-rule="evenodd" clip-rule="evenodd" d="M18.94 7.321l-1.347-2.334c-1.588-2.737-5.116-3.665-7.879-2.07-2.764 1.596-3.724 5.116-2.148 7.86l1.352 2.33 1.813-1.046L9.38 9.729c-1.003-1.75-.39-3.994 1.373-5.012 1.762-1.017 4.013-.426 5.025 1.318l1.35 2.333 1.813-1.047z" fill="#25394E"/></svg>