<svg width="64" height="84" fill="none" xmlns="http://www.w3.org/2000/svg"><path opacity=".2" d="M.061 78.656L0 4.954l.061 73.702zM.101 0H27.25c5.801 0 10.65.441 14.522 1.333 3.873.893 6.983 2.185 9.33 3.888 2.348 1.702 4.025 3.764 5.011 6.205.986 2.43 1.484 5.159 1.494 8.194 0 2.616-.417 5.006-1.26 7.17-.844 2.164-2.013 4.061-3.517 5.713-1.504 1.64-3.303 3.015-5.407 4.123-2.104 1.107-4.39 1.928-6.86 2.471 3.588.37 6.83 1.098 9.736 2.175 2.907 1.077 5.367 2.482 7.39 4.205 2.022 1.723 3.577 3.764 4.664 6.133C63.451 53.98 64 56.615 64 59.528c0 3.62-.6 6.934-1.81 9.949-1.219 3.015-3.12 5.59-5.711 7.733-2.592 2.144-5.925 3.805-10.001 4.995S37.473 83.99 31.71 84c-4.614 0-9.208-.051-13.782-.174a432.196 432.196 0 00-12.663-.175l-5.194.01L.101 0zm44.832 20.256c0-2.45-.366-4.595-1.087-6.42-.722-1.826-1.89-3.354-3.497-4.585-1.605-1.22-3.689-2.133-6.24-2.738-2.561-.595-5.682-.903-9.391-.892l-12.786.01.03 31.61 13.528-.01c3.832 0 7.003-.41 9.513-1.22 2.51-.811 4.503-1.96 5.956-3.437 1.464-1.477 2.49-3.25 3.08-5.333.6-2.082.894-4.41.894-6.985zm6.271 39.529c0-2.913-.468-5.426-1.392-7.539-.935-2.123-2.379-3.877-4.33-5.261C43.52 45.59 41 44.554 37.91 43.877c-3.09-.687-6.8-1.026-11.119-1.016l-14.829.01.031 35.17c1.89.082 3.872.144 5.935.185 1.769.082 3.73.133 5.875.153 2.145.021 4.259.031 6.363.031 3.872 0 7.144-.44 9.817-1.323 2.674-.872 4.849-2.113 6.515-3.713 1.667-1.6 2.867-3.538 3.608-5.835.732-2.308 1.108-4.893 1.098-7.754z" fill="#FFD32E"/></svg>