<svg width="50" height="64" fill="none" xmlns="http://www.w3.org/2000/svg"><path opacity=".4" d="M43.008 9.786c-.783-1.938-2.11-3.554-3.92-4.867-1.818-1.318-4.176-2.284-7.026-2.941C29.196 1.318 25.652 1 21.463 1H1.073v1L1.07 5.54H1l.044 52.644h.008l-.001 3.574v1.002l1.002-.002 3.71-.007h0c2.747-.007 5.757.036 9.016.124 3.277.088 6.568.125 9.871.125h.002c4.178-.007 7.799-.438 10.827-1.322 3.008-.878 5.52-2.12 7.5-3.757 1.975-1.634 3.435-3.607 4.37-5.92L47.35 52c.917-2.286 1.364-4.78 1.364-7.479 0-2.208-.416-4.236-1.268-6.074a13.604 13.604 0 00-3.591-4.724c-1.547-1.317-3.41-2.376-5.58-3.18a26.255 26.255 0 00-3.104-.93 19.37 19.37 0 001.169-.566c1.598-.842 2.976-1.892 4.133-3.154l.002-.002a13.997 13.997 0 002.704-4.391c.654-1.677.969-3.509.969-5.484v-.004c-.008-2.276-.381-4.354-1.14-6.225zm0 0s0 0 0 0l-.927.375.926-.376s0 0 0 0zM11.544 27.6l-.02-20.579 8.132-.006h.002c2.597-.008 4.744.208 6.477.61 1.724.41 3.072 1.013 4.08 1.778 1.007.773 1.727 1.72 2.173 2.847.46 1.163.707 2.565.707 4.219 0 1.764-.202 3.331-.6 4.712v.005c-.378 1.33-1.027 2.447-1.949 3.378l-.002.002c-.899.913-2.168 1.662-3.849 2.204-1.66.536-3.814.823-6.488.823h0l-8.663.007zm26.03 17.103v.004c.007 1.953-.25 3.694-.736 5.23-.482 1.49-1.252 2.73-2.317 3.752-1.062 1.019-2.475 1.837-4.271 2.423h-.004c-1.778.587-4.003.895-6.7.895-1.499 0-3.006-.007-4.534-.022-1.522-.014-2.91-.05-4.16-.108l-.013-.001h-.013c-1.122-.023-2.21-.053-3.26-.093l-.02-23.161 9.591-.007h.002c3.036-.007 5.608.232 7.723.702h.003c2.114.464 3.78 1.16 5.043 2.058v.001c1.251.888 2.163 2 2.756 3.345.593 1.355.91 3.007.91 4.982z" stroke="#FFD32E" stroke-width="2"/></svg>