<svg width="69" height="84" fill="none" xmlns="http://www.w3.org/2000/svg"><path opacity=".2" d="M0 80.68l10.774-1.691V4.949L0 3.319V0h63.016v20.107H58.88L56.877 6.515a84.83 84.83 0 00-4.886-.439c-1.88-.125-3.8-.209-5.763-.25a131.433 131.433 0 00-5.575-.126 183.054 183.054 0 00-4.071-.062H22.863V38.46H45.54l1.942-10.022h4.009v25.807H47.48l-1.942-10.148H22.863v34.264H39.4c2.59 0 5.032-.02 7.33-.062 2.296-.084 4.363-.167 6.2-.25a94.266 94.266 0 004.699-.314c1.336-.125 2.317-.25 2.944-.376l3.57-15.535h4.134L67.087 84H0v-3.32z" fill="#FFD32E"/></svg>