<svg width="30" height="30" viewBox="0 0 30 30" fill="none" xmlns="http://www.w3.org/2000/svg">
<path fill-rule="evenodd" clip-rule="evenodd" d="M6.42857 0C2.87817 0 0 2.87817 0 6.42857V23.5714C0 27.1218 2.87817 30 6.42857 30H23.5714C27.1218 30 30 27.1218 30 23.5714V6.42857C30 2.87817 27.1218 0 23.5714 0H6.42857ZM14.9995 19.9995C17.7609 19.9995 19.9995 17.7609 19.9995 14.9995C19.9995 12.2381 17.7609 9.99952 14.9995 9.99952C12.2381 9.99952 9.99952 12.2381 9.99952 14.9995C9.99952 17.7609 12.2381 19.9995 14.9995 19.9995ZM14.9995 22.8567C19.3389 22.8567 22.8567 19.3389 22.8567 14.9995C22.8567 10.6601 19.3389 7.14238 14.9995 7.14238C10.6601 7.14238 7.14238 10.6601 7.14238 14.9995C7.14238 19.3389 10.6601 22.8567 14.9995 22.8567ZM22.8572 8.57104C23.6462 8.57104 24.2858 7.93145 24.2858 7.14247C24.2858 6.35349 23.6462 5.7139 22.8572 5.7139C22.0682 5.7139 21.4286 6.35349 21.4286 7.14247C21.4286 7.93145 22.0682 8.57104 22.8572 8.57104Z" fill="#25394E"/>
</svg>
