<svg width="82" height="84" fill="none" xmlns="http://www.w3.org/2000/svg"><path opacity=".2" d="M22.724 47.166l.03 31.807 12.615 1.68v3.316L.879 84v-3.317l9.875-1.7-.061-74.018L0 3.348V.03L35.982 0c5.838-.01 10.724.514 14.639 1.555 3.915 1.04 7.053 2.533 9.414 4.47 2.362 1.936 4.048 4.285 5.04 7.045s1.492 5.861 1.503 9.333c0 3.213-.46 6.087-1.39 8.61-.93 2.524-2.178 4.75-3.752 6.675a21.484 21.484 0 01-5.47 4.79 27.07 27.07 0 01-6.46 2.915l22.581 33.548 9.016 1.68v3.316l-19.953.02-23.46-36.803-14.966.01zM54.21 23.279c0-3.337-.399-6.139-1.186-8.384-.787-2.256-2.024-4.07-3.7-5.45-1.677-1.38-3.834-2.358-6.461-2.935-2.637-.577-5.817-.876-9.537-.865l-10.632.01.031 35.887 11-.01c3.812 0 7.022-.35 9.629-1.04 2.606-.691 4.722-1.773 6.337-3.266 1.616-1.483 2.77-3.368 3.476-5.665.695-2.308 1.043-5.068 1.043-8.282z" fill="#FFD32E"/></svg>