<svg width="62" height="65" fill="none" xmlns="http://www.w3.org/2000/svg"><path opacity=".4" d="M42.5 33.195a16.346 16.346 0 004.157-3.641c1.2-1.47 2.144-3.158 2.844-5.055.713-1.933 1.054-4.107 1.054-6.496V18c-.007-2.574-.379-4.905-1.132-7.001-.772-2.151-2.088-3.976-3.907-5.468-1.826-1.498-4.209-2.618-7.102-3.386C35.507 1.372 31.924.993 27.7 1c0 0 0 0 0 0L2 1.022l-1 .001v4.228l.85.129 6.788 1.027.043 51.168-6.223 1.07-.83.143V63h1l24.637-.022.999-.001v-4.244l-.869-.115-8.142-1.084-.02-20.845 9.14-.006 16.462 25.825.295.463h.55l14.252-.015.999-.001v-4.199l-.817-.152-6.028-1.123-15.163-22.528a20.639 20.639 0 003.576-1.758zm0 0h-.002l-.522-.853.525.852h-.002zm-3.57-20.227v.002c.513 1.465.79 3.346.79 5.658 0 2.227-.24 4.095-.701 5.624-.457 1.487-1.193 2.674-2.202 3.601l-.003.003c-1.007.931-2.361 1.638-4.104 2.1-1.753.463-3.954.71-6.622.71h0l-6.857.006-.02-23.634 6.593-.006h.002c2.607-.007 4.802.202 6.596.595 1.758.386 3.144 1.028 4.193 1.892 1.043.86 1.827 1.995 2.334 3.45z" stroke="#FFD32E" stroke-width="2"/></svg>