<svg width="86" height="84" fill="none" xmlns="http://www.w3.org/2000/svg"><path opacity=".2" d="M68.85 4.88L57.749 3.289V.02L85.939 0v3.267L75.323 4.881l.04 49.418c0 3.785-.466 7.458-1.41 11.01-.944 3.561-2.608 6.717-4.992 9.477-2.385 2.76-5.642 4.983-9.772 6.667-4.13 1.684-9.366 2.537-15.698 2.547-10.98.01-19.2-2.456-24.648-7.418-5.46-4.952-8.18-11.974-8.19-21.056l-.04-50.584L0 3.349V.08L33.07.05v3.267L22.466 4.921l.04 49.662c0 3.369.407 6.443 1.219 9.224.801 2.77 2.08 5.144 3.825 7.123s4.008 3.49 6.789 4.556c2.78 1.066 6.139 1.604 10.086 1.593 4.323 0 8.017-.537 11.101-1.613 3.085-1.065 5.622-2.577 7.611-4.505 1.989-1.939 3.45-4.283 4.373-7.032.924-2.76 1.38-5.805 1.38-9.133L68.85 4.88z" fill="#FFD32E"/></svg>