<svg width="66" height="64" fill="none" xmlns="http://www.w3.org/2000/svg"><path opacity=".4" d="M18.076 40.988c0 2.406.29 4.602.87 6.588.573 1.979 1.486 3.675 2.733 5.088 1.246 1.414 2.863 2.494 4.849 3.255 1.986.76 4.385 1.145 7.204 1.138 3.088 0 5.726-.384 7.93-1.153 2.203-.76 4.015-1.84 5.436-3.218L18.076 40.988zm0 0l-.029-35.473.03 35.473zm31.198 6.357c-.611 1.82-1.572 3.356-2.874 4.625-1.3 1.26-2.98 2.269-5.065 2.99h-.002c-2.07.722-4.591 1.097-7.6 1.097h-.003c-2.732.007-5.003-.366-6.844-1.072-1.857-.712-3.332-1.706-4.457-2.982-1.141-1.294-1.987-2.856-2.522-4.705l-.001-.002c-.55-1.882-.83-3.982-.83-6.308v-.001l-.028-34.612 6.723-1.016.85-.129V1.036h-1l-23.622.022H1v4.195l.852.128 6.73 1.01.029 35.272v0c.007 6.696 2.02 12.009 6.176 15.779 4.15 3.778 10.309 5.565 18.28 5.558h0c4.602-.007 8.481-.626 11.589-1.893 3.064-1.25 5.532-2.92 7.359-5.035a17.794 17.794 0 003.776-7.166 31.502 31.502 0 001.04-8.121v-.001l-.028-34.438 6.732-1.023.85-.13V1h-1.001l-20.136.014-.999.001v4.2l.858.123 7.072 1.015.029 34.787s0 0 0 0c0 2.286-.314 4.35-.934 6.205z" stroke="#FFD32E" stroke-width="2"/></svg>