<svg width="20" height="20" fill="none" xmlns="http://www.w3.org/2000/svg"><path fill-rule="evenodd" clip-rule="evenodd" d="M3.02 0h13.96A3.02 3.02 0 0120 3.02v13.96A3.02 3.02 0 0116.98 20H3.02A3.02 3.02 0 010 16.98V3.02A3.02 3.02 0 013.02 0zM6.4 16.786v-9.09H3.377v9.09H6.4zM4.89 6.455c1.053 0 1.708-.698 1.708-1.57-.02-.892-.655-1.57-1.689-1.57-1.033 0-1.709.678-1.709 1.57 0 .872.656 1.57 1.67 1.57h.02zm6.202 10.33H8.07s.04-8.236 0-9.089h3.02v1.287c.402-.62 1.12-1.5 2.723-1.5 1.988 0 3.478 1.299 3.478 4.09v5.212h-3.02v-4.862c0-1.222-.438-2.056-1.53-2.056-.835 0-1.333.563-1.55 1.105-.08.194-.1.466-.1.738v5.075z" fill="#069"/></svg>