<svg width="30" height="30" fill="none" xmlns="http://www.w3.org/2000/svg"><path d="M25.203 3.947c.341 0 .634.122.878.366s.366.537.366.879v20.01c0 .342-.122.635-.366.879a1.199 1.199 0 01-.878.365h-5.729V17.73h2.916l.44-3.398h-3.355v-2.168c0-.547.115-.957.345-1.23.23-.274.677-.411 1.34-.411l1.788-.015V7.476c-.615-.088-1.485-.132-2.608-.132-1.328 0-2.39.391-3.186 1.173-.796.781-1.194 1.885-1.194 3.31v2.506h-2.93v3.398h2.93v8.716H5.192c-.342 0-.635-.122-.879-.366a1.198 1.198 0 01-.366-.878V5.193c0-.342.122-.635.366-.879s.537-.366.879-.366h20.012-.001z" fill="#fff"/></svg>