<svg width="116" height="40" fill="none" xmlns="http://www.w3.org/2000/svg"><path d="M115.505 1.992a1.953 1.953 0 01-.979 1.705c-.306.182-.64.268-1.004.268a1.957 1.957 0 01-1.714-.984 1.942 1.942 0 01-.263-.994c0-.363.091-.693.267-1.003.177-.31.421-.545.722-.721a1.96 1.96 0 01.988-.263c.359 0 .688.086.994.263a1.986 1.986 0 01.989 1.73zM113.522.248a1.66 1.66 0 00-.859.234 1.73 1.73 0 00-.86 1.51c0 .31.076.602.229.874.153.272.363.482.626.635.263.153.549.23.86.23a1.73 1.73 0 001.495-.865c.157-.267.234-.564.234-.87a1.748 1.748 0 00-.855-1.505 1.67 1.67 0 00-.87-.243zm.545 2.871l-.659-.984h-.139v.77l.268.047v.167h-.994v-.167l.22-.048V1.017l-.239-.047V.812h1.003c.296 0 .526.053.679.162.152.11.229.268.229.469a.61.61 0 01-.129.386.798.798 0 01-.382.249l.592.826.201.048v.167h-.65zm-.162-1.667c0-.158-.039-.267-.12-.33-.081-.062-.234-.095-.463-.095h-.053v.893h.067c.201 0 .344-.033.435-.105.091-.067.134-.186.134-.363zM.029 36.929L0 2.603.029 36.93zM.048.296h12.758c2.728 0 5.006.205 6.826.62 1.82.416 3.282 1.018 4.385 1.811 1.104.793 1.892 1.753 2.355 2.89.464 1.132.698 2.403.702 3.817 0 1.218-.195 2.33-.592 3.339a8.461 8.461 0 01-1.653 2.66 9.254 9.254 0 01-2.54 1.92 12.86 12.86 0 01-3.225 1.152c1.686.172 3.21.51 4.576 1.012 1.366.502 2.522 1.156 3.473 1.959a8.227 8.227 0 012.192 2.856c.516 1.104.774 2.331.774 3.688 0 1.686-.282 3.229-.85 4.633-.573 1.405-1.467 2.604-2.685 3.602-1.218.998-2.785 1.772-4.7 2.326-1.916.554-4.232.831-6.94.836-2.17 0-4.328-.024-6.478-.081a205.28 205.28 0 00-5.952-.081l-2.44.005L.047.296zm21.07 9.434c0-1.142-.172-2.14-.511-2.99a4.95 4.95 0 00-1.643-2.136c-.755-.568-1.734-.993-2.933-1.275-1.204-.277-2.67-.42-4.414-.415l-6.01.004.015 14.722 6.358-.005c1.8 0 3.291-.19 4.471-.568 1.18-.377 2.116-.912 2.8-1.6a5.638 5.638 0 001.447-2.484c.281-.97.42-2.054.42-3.253zm2.947 18.41c0-1.357-.22-2.527-.654-3.512a5.87 5.87 0 00-2.035-2.45c-.922-.65-2.107-1.132-3.559-1.447-1.452-.32-3.196-.478-5.226-.473l-6.969.005.015 16.379c.888.038 1.82.067 2.79.086.83.038 1.752.062 2.76.072 1.008.01 2.002.014 2.99.014 1.82 0 3.358-.206 4.615-.616 1.256-.406 2.278-.984 3.061-1.73a6.426 6.426 0 001.696-2.717c.344-1.075.52-2.279.516-3.612zm18.195-6l.014 14.75 5.894.78v1.538l-16.117.014v-1.538l4.615-.788-.029-34.326-4.996-.75V.282L48.455.268c2.727-.005 5.01.238 6.84.72 1.83.483 3.296 1.176 4.4 2.074 1.103.898 1.89 1.987 2.354 3.267.464 1.28.698 2.718.702 4.328 0 1.49-.215 2.823-.65 3.993a10.672 10.672 0 01-1.752 3.096 10.017 10.017 0 01-2.556 2.22 12.694 12.694 0 01-3.019 1.353l10.552 15.557 4.213.779v1.538l-9.324.01-10.963-17.068-6.993.005zm14.712-11.077c0-1.548-.187-2.847-.555-3.888-.367-1.046-.945-1.887-1.729-2.527-.783-.64-1.791-1.094-3.019-1.361-1.232-.268-2.717-.406-4.456-.402l-4.968.005.014 16.642 5.14-.005c1.782 0 3.282-.162 4.5-.482 1.218-.32 2.206-.822 2.961-1.514.755-.688 1.295-1.562 1.624-2.627.325-1.07.488-2.35.488-3.841zm43.249-8.546l-5.226-.75V.23l13.27-.01v1.539l-4.997.76.019 23.262c0 1.782-.219 3.51-.664 5.183a11.059 11.059 0 01-2.35 4.461c-1.122 1.3-2.656 2.346-4.6 3.139-1.944.792-4.409 1.194-7.39 1.198-5.168.005-9.037-1.156-11.602-3.491-2.57-2.331-3.85-5.637-3.855-9.912l-.019-23.812-4.996-.75V.258L83.377.244v1.538l-4.992.754.02 23.378c0 1.586.19 3.033.572 4.342.378 1.304.98 2.422 1.801 3.353.822.931 1.887 1.643 3.196 2.145 1.309.501 2.89.755 4.748.75 2.035 0 3.774-.253 5.226-.76 1.452-.501 2.646-1.213 3.582-2.12a8.187 8.187 0 002.06-3.31c.434-1.3.649-2.733.649-4.3l-.019-23.497zm14.326 33.967c0 .483-.091.941-.277 1.367-.182.425-.43.797-.74 1.117a3.33 3.33 0 01-1.118.755 3.461 3.461 0 01-1.381.277c-.501 0-.969-.09-1.395-.272a3.44 3.44 0 01-1.103-.755 3.647 3.647 0 01-.74-1.118 3.347 3.347 0 01-.277-1.366 3.549 3.549 0 011.012-2.498c.311-.31.679-.559 1.104-.74a3.429 3.429 0 011.395-.277c.482 0 .945.09 1.38.277.435.181.807.43 1.118.74.31.31.559.683.74 1.118.186.43.282.893.282 1.375z" fill="#FFD32E"/></svg>