<svg width="30" height="30" fill="none" xmlns="http://www.w3.org/2000/svg"><path fill-rule="evenodd" clip-rule="evenodd" d="M25.313 8.547a8.438 8.438 0 01-2.43.665 4.231 4.231 0 001.86-2.34 8.425 8.425 0 01-2.688 1.026 4.231 4.231 0 00-7.21 3.86 12.012 12.012 0 01-8.722-4.422 4.221 4.221 0 00-.572 2.128 4.23 4.23 0 001.882 3.522 4.229 4.229 0 01-1.917-.528v.052a4.232 4.232 0 003.394 4.15 4.236 4.236 0 01-1.911.074 4.23 4.23 0 003.952 2.937 8.49 8.49 0 01-5.255 1.812c-.341 0-.679-.02-1.01-.058a11.994 11.994 0 006.487 1.9c7.784 0 12.04-6.447 12.04-12.039 0-.184-.004-.368-.013-.547a8.59 8.59 0 002.111-2.191z" fill="#fff"/></svg>