<svg width="220" height="89" fill="none" xmlns="http://www.w3.org/2000/svg"><path d="M220 20c0-11.046-8.954-20-20-20H20C8.954 0 0 8.954 0 20v36c0 11.046 8.954 20 20 20h154.932c4.573 0 8.993 1.585 12.658 4.32 4.211 3.144 9.777 7.04 12.91 8.18-.421-.336-.77-.913-1.061-1.64C197.181 81.22 202.925 76 209 76c6.075 0 11-4.925 11-11V20z" fill="url(#paint0_linear_635_5668)"/><path d="M24.624 28.312h-2.16c.021.555.144 1.019.368 1.392.235.363.528.656.88.88.363.224.773.384 1.232.48a6.855 6.855 0 002.784 0 3.39 3.39 0 001.216-.464 2.57 2.57 0 00.848-.88c.224-.373.336-.832.336-1.376 0-.384-.075-.704-.224-.96a1.945 1.945 0 00-.592-.656 3.025 3.025 0 00-.848-.432 9.068 9.068 0 00-.96-.272c-.32-.075-.635-.144-.944-.208a9.444 9.444 0 01-.832-.208 1.845 1.845 0 01-.576-.32.623.623 0 01-.224-.496c0-.17.043-.304.128-.4a.821.821 0 01.304-.24 1.32 1.32 0 01.416-.096c.15-.021.288-.032.416-.032.405 0 .757.08 1.056.24.299.15.464.443.496.88h2.16c-.043-.512-.176-.933-.4-1.264a2.486 2.486 0 00-.816-.816 3.447 3.447 0 00-1.136-.432 6.677 6.677 0 00-2.608 0c-.427.075-.81.213-1.152.416a2.298 2.298 0 00-.832.8c-.203.341-.304.779-.304 1.312 0 .363.075.672.224.928.15.245.347.453.592.624.245.16.523.293.832.4.32.096.645.181.976.256.81.17 1.44.341 1.888.512.459.17.688.427.688.768a.878.878 0 01-.144.512 1.192 1.192 0 01-.368.32 1.954 1.954 0 01-.48.176 2.69 2.69 0 01-1.152-.032 1.795 1.795 0 01-.544-.24 1.547 1.547 0 01-.4-.432 1.35 1.35 0 01-.144-.64zM39.218 31v-8.272h-2.272v4.336c0 .843-.139 1.45-.416 1.824-.278.363-.726.544-1.344.544-.544 0-.923-.165-1.136-.496-.214-.341-.32-.853-.32-1.536v-4.672h-2.272v5.088c0 .512.042.981.128 1.408.096.416.256.773.48 1.072.224.288.528.512.912.672.394.16.896.24 1.504.24.48 0 .95-.107 1.408-.32.458-.213.832-.56 1.12-1.04h.048V31h2.16zm1.724-8.272V31h2.272v-4.336c0-.843.139-1.445.416-1.808.277-.373.725-.56 1.344-.56.544 0 .923.17 1.136.512.214.33.32.837.32 1.52V31h2.272v-5.088c0-.512-.048-.976-.144-1.392-.085-.427-.24-.784-.464-1.072a2.125 2.125 0 00-.928-.688c-.384-.17-.88-.256-1.488-.256-.48 0-.95.112-1.408.336-.459.213-.832.56-1.12 1.04h-.048v-1.152h-2.16zm15.356 4.112c0 .341-.032.672-.096.992-.063.32-.17.608-.32.864a1.697 1.697 0 01-.607.592c-.246.15-.555.224-.928.224-.352 0-.657-.075-.913-.224a2.257 2.257 0 01-.623-.608 2.831 2.831 0 01-.352-.864 4.21 4.21 0 01-.113-.96c0-.341.033-.667.097-.976.074-.32.186-.603.336-.848a1.84 1.84 0 01.623-.592c.256-.15.571-.224.944-.224.374 0 .683.075.929.224.245.15.442.347.592.592.16.235.272.512.336.832.063.31.095.635.095.976zm.032 3.104V31h2.16V19.576h-2.272v4.16h-.032a2.38 2.38 0 00-1.056-.912 3.134 3.134 0 00-1.392-.32c-.608 0-1.14.123-1.6.368-.458.235-.842.55-1.151.944a4.383 4.383 0 00-.689 1.376 5.686 5.686 0 00-.224 1.6c0 .576.075 1.13.224 1.664.16.533.39 1.008.688 1.424.31.405.7.73 1.169.976.469.235 1.013.352 1.631.352.544 0 1.03-.096 1.456-.288.438-.203.79-.528 1.056-.976h.032zm3.782-4.672c.032-.533.165-.976.4-1.328a2.71 2.71 0 01.896-.848 3.768 3.768 0 011.216-.448A6.7 6.7 0 0164 22.504c.416 0 .837.032 1.264.096.426.053.816.165 1.168.336.352.17.64.41.864.72.224.299.336.699.336 1.2v4.304c0 .373.021.73.064 1.072.042.341.117.597.224.768h-2.304a5.194 5.194 0 01-.112-.384 5.45 5.45 0 01-.048-.416c-.363.373-.79.635-1.28.784-.49.15-.992.224-1.504.224a4.06 4.06 0 01-1.104-.144 2.527 2.527 0 01-.896-.448 2.162 2.162 0 01-.608-.768c-.139-.31-.208-.677-.208-1.104 0-.47.08-.853.24-1.152.17-.31.384-.555.64-.736.266-.181.565-.315.896-.4.341-.096.682-.17 1.024-.224.341-.053.677-.096 1.008-.128.33-.032.624-.08.88-.144a1.61 1.61 0 00.608-.272c.15-.128.218-.31.208-.544 0-.245-.043-.437-.128-.576a.753.753 0 00-.32-.336 1.044 1.044 0 00-.464-.16 3.045 3.045 0 00-.56-.048c-.448 0-.8.096-1.056.288-.256.192-.406.512-.448.96h-2.272zm5.248 1.68a1.108 1.108 0 01-.368.208 6.456 6.456 0 01-.976.192 9.509 9.509 0 00-.544.08 4.56 4.56 0 00-.512.128 1.51 1.51 0 00-.432.224.983.983 0 00-.288.336 1.106 1.106 0 00-.112.528c0 .203.037.373.112.512a.92.92 0 00.304.336c.128.075.277.128.448.16.17.032.346.048.528.048.448 0 .794-.075 1.04-.224.245-.15.426-.325.544-.528a1.67 1.67 0 00.208-.64c.032-.213.048-.384.048-.512v-.848zm8.115 5.072l3.456-9.296H74.58l-1.808 5.664h-.032l-1.872-5.664h-2.416l2.896 7.76c.064.16.096.33.096.512 0 .245-.074.47-.224.672-.138.203-.357.32-.656.352-.224.01-.448.005-.672-.016l-.656-.064v1.872c.235.021.464.037.688.048.235.021.47.032.704.032.779 0 1.387-.144 1.824-.432.438-.288.779-.768 1.024-1.44zm9.166-7.776V31h2.272v-6.752h1.568v-1.52h-1.568v-.496c0-.341.064-.581.192-.72.139-.15.363-.224.672-.224.288 0 .566.016.832.048V19.64l-.592-.032a5.815 5.815 0 00-.608-.032c-.928 0-1.621.235-2.08.704-.458.47-.688 1.072-.688 1.808v.64h-1.36v1.52h1.36zM95.233 31v-8.272h-2.272v4.336c0 .843-.138 1.45-.416 1.824-.277.363-.725.544-1.344.544-.544 0-.922-.165-1.136-.496-.213-.341-.32-.853-.32-1.536v-4.672h-2.272v5.088c0 .512.043.981.128 1.408.096.416.256.773.48 1.072.224.288.528.512.912.672.395.16.896.24 1.504.24.48 0 .95-.107 1.408-.32.459-.213.832-.56 1.12-1.04h.048V31h2.16zm1.725-8.272V31h2.272v-4.336c0-.843.138-1.445.416-1.808.277-.373.725-.56 1.344-.56.544 0 .922.17 1.136.512.213.33.32.837.32 1.52V31h2.272v-5.088c0-.512-.048-.976-.144-1.392-.086-.427-.24-.784-.464-1.072a2.13 2.13 0 00-.928-.688c-.384-.17-.88-.256-1.488-.256-.48 0-.95.112-1.408.336-.459.213-.832.56-1.12 1.04h-.048v-1.152h-2.16zm15.356 4.112c0 .341-.032.672-.096.992-.064.32-.171.608-.32.864a1.7 1.7 0 01-.608.592c-.245.15-.555.224-.928.224-.352 0-.656-.075-.912-.224a2.265 2.265 0 01-.624-.608 2.838 2.838 0 01-.352-.864 4.194 4.194 0 01-.112-.96c0-.341.032-.667.096-.976a2.89 2.89 0 01.336-.848c.16-.245.368-.443.624-.592.256-.15.571-.224.944-.224s.683.075.928.224c.245.15.443.347.592.592.16.235.272.512.336.832.064.31.096.635.096.976zm.032 3.104V31h2.16V19.576h-2.272v4.16h-.032a2.38 2.38 0 00-1.056-.912 3.133 3.133 0 00-1.392-.32c-.608 0-1.141.123-1.6.368a3.42 3.42 0 00-1.152.944 4.376 4.376 0 00-.688 1.376 5.697 5.697 0 00-.224 1.6c0 .576.075 1.13.224 1.664.16.533.389 1.008.688 1.424.309.405.699.73 1.168.976.469.235 1.013.352 1.632.352.544 0 1.029-.096 1.456-.288a2.387 2.387 0 001.056-.976h.032zm3.781-4.672c.032-.533.166-.976.4-1.328a2.73 2.73 0 01.896-.848 3.771 3.771 0 011.216-.448 6.707 6.707 0 011.376-.144c.416 0 .838.032 1.264.096a3.71 3.71 0 011.168.336c.352.17.64.41.864.72.224.299.336.699.336 1.2v4.304c0 .373.022.73.064 1.072.043.341.118.597.224.768h-2.304a5.557 5.557 0 01-.112-.384 5.886 5.886 0 01-.048-.416 2.955 2.955 0 01-1.28.784c-.49.15-.992.224-1.504.224a4.07 4.07 0 01-1.104-.144 2.53 2.53 0 01-.896-.448 2.17 2.17 0 01-.608-.768c-.138-.31-.208-.677-.208-1.104 0-.47.08-.853.24-1.152.171-.31.384-.555.64-.736.267-.181.566-.315.896-.4a8.98 8.98 0 011.024-.224c.342-.053.678-.096 1.008-.128.331-.032.624-.08.88-.144.256-.064.459-.155.608-.272.15-.128.219-.31.208-.544 0-.245-.042-.437-.128-.576a.747.747 0 00-.32-.336 1.04 1.04 0 00-.464-.16 3.036 3.036 0 00-.56-.048c-.448 0-.8.096-1.056.288-.256.192-.405.512-.448.96h-2.272zm5.248 1.68a1.101 1.101 0 01-.368.208 6.406 6.406 0 01-.976.192 9.654 9.654 0 00-.544.08 4.55 4.55 0 00-.512.128 1.51 1.51 0 00-.432.224.992.992 0 00-.288.336 1.115 1.115 0 00-.112.528c0 .203.038.373.112.512.075.139.176.25.304.336.128.075.278.128.448.16.171.032.347.048.528.048.448 0 .795-.075 1.04-.224.246-.15.427-.325.544-.528.118-.213.187-.427.208-.64.032-.213.048-.384.048-.512v-.848zm8.116 5.072l3.456-9.296h-2.352l-1.808 5.664h-.032l-1.872-5.664h-2.416l2.896 7.76c.064.16.096.33.096.512 0 .245-.075.47-.224.672-.139.203-.357.32-.656.352-.224.01-.448.005-.672-.016l-.656-.064v1.872c.235.021.464.037.688.048.235.021.469.032.704.032.779 0 1.387-.144 1.824-.432.437-.288.779-.768 1.024-1.44zM147.617 31l2.608-8.272h-2.336l-1.52 5.6h-.032l-1.408-5.6h-2.208l-1.376 5.616h-.032l-1.52-5.616h-2.4L140.017 31h2.352l1.408-5.552h.032L145.281 31h2.336zm5.911-9.552v-1.872h-2.272v1.872h2.272zm-2.272 1.28V31h2.272v-8.272h-2.272zm6.941 0v-2.48h-2.272v2.48h-1.376v1.52h1.376v4.88c0 .416.069.752.208 1.008a1.5 1.5 0 00.56.592c.245.139.523.23.832.272.32.053.656.08 1.008.08.224 0 .453-.005.688-.016.235-.01.448-.032.64-.064v-1.76a3.226 3.226 0 01-.336.048 4.05 4.05 0 01-.368.016c-.384 0-.64-.064-.768-.192s-.192-.384-.192-.768v-4.096h1.664v-1.52h-1.664zm2.745-3.152V31h2.272v-4.336c0-.843.139-1.445.416-1.808.277-.373.725-.56 1.344-.56.544 0 .923.17 1.136.512.213.33.32.837.32 1.52V31h2.272v-5.088c0-.512-.048-.976-.144-1.392-.085-.427-.24-.784-.464-1.072a2.123 2.123 0 00-.928-.688c-.384-.17-.88-.256-1.488-.256-.427 0-.864.112-1.312.336-.448.213-.816.56-1.104 1.04h-.048v-4.304h-2.272zM25.744 44.728v-2.48h-2.272v2.48h-1.376v1.52h1.376v4.88c0 .416.07.752.208 1.008a1.5 1.5 0 00.56.592c.245.139.523.23.832.272.32.053.656.08 1.008.08.224 0 .453-.005.688-.016.235-.01.448-.032.64-.064v-1.76a3.203 3.203 0 01-.336.048 4.32 4.32 0 01-.368.016c-.384 0-.64-.064-.768-.192s-.192-.384-.192-.768v-4.096h1.664v-1.52h-1.664zm2.745-3.152V53h2.272v-4.336c0-.843.139-1.445.416-1.808.277-.373.725-.56 1.344-.56.544 0 .923.17 1.136.512.213.33.32.837.32 1.52V53h2.272v-5.088c0-.512-.048-.976-.144-1.392-.085-.427-.24-.784-.464-1.072a2.125 2.125 0 00-.928-.688c-.384-.17-.88-.256-1.488-.256-.427 0-.864.112-1.312.336-.448.213-.816.56-1.104 1.04h-.048v-4.304h-2.272zm15.052 6.4h-3.696c.011-.16.043-.341.096-.544.064-.203.166-.395.304-.576.15-.181.342-.33.576-.448.246-.128.55-.192.912-.192.555 0 .966.15 1.232.448.278.299.47.736.576 1.312zm-3.696 1.44h5.968a5.843 5.843 0 00-.16-1.84 4.426 4.426 0 00-.736-1.568 3.527 3.527 0 00-1.28-1.088c-.522-.277-1.136-.416-1.84-.416-.629 0-1.205.112-1.728.336a4.03 4.03 0 00-1.328.928 3.969 3.969 0 00-.864 1.376 4.824 4.824 0 00-.304 1.728c0 .64.096 1.227.288 1.76.203.533.486.992.848 1.376a3.75 3.75 0 001.328.896c.523.203 1.11.304 1.76.304.939 0 1.739-.213 2.4-.64.662-.427 1.152-1.136 1.472-2.128h-2c-.074.256-.277.501-.608.736-.33.224-.725.336-1.184.336-.64 0-1.13-.165-1.472-.496-.341-.33-.528-.864-.56-1.6zm17.833-.544c0 .341-.037.672-.112.992-.075.32-.192.603-.352.848-.16.245-.363.443-.608.592-.235.139-.523.208-.864.208-.33 0-.619-.07-.864-.208a1.895 1.895 0 01-.608-.592 2.634 2.634 0 01-.352-.848 4.35 4.35 0 01-.112-.992c0-.352.037-.688.112-1.008.075-.32.192-.603.352-.848.16-.245.363-.437.608-.576a1.63 1.63 0 01.864-.224c.341 0 .63.075.864.224.245.139.448.33.608.576.16.245.277.528.352.848.075.32.112.656.112 1.008zm-6.064-7.296V53h2.16v-1.056h.032c.245.459.608.784 1.088.976.48.192 1.024.288 1.632.288.416 0 .827-.085 1.232-.256a3.08 3.08 0 001.088-.784c.33-.352.597-.8.8-1.344.203-.555.304-1.21.304-1.968 0-.757-.101-1.408-.304-1.952-.203-.555-.47-1.008-.8-1.36a3.08 3.08 0 00-1.088-.784 3.148 3.148 0 00-1.232-.256c-.512 0-1.008.101-1.488.304-.47.192-.843.501-1.12.928h-.032v-4.16h-2.272zm15.35 6.4h-3.697c.01-.16.043-.341.096-.544.064-.203.166-.395.304-.576.15-.181.342-.33.576-.448.246-.128.55-.192.912-.192.555 0 .966.15 1.232.448.278.299.47.736.576 1.312zm-3.697 1.44h5.968a5.843 5.843 0 00-.16-1.84 4.426 4.426 0 00-.736-1.568 3.527 3.527 0 00-1.28-1.088c-.522-.277-1.136-.416-1.84-.416a4.34 4.34 0 00-1.728.336 4.03 4.03 0 00-1.328.928 3.969 3.969 0 00-.864 1.376 4.824 4.824 0 00-.304 1.728c0 .64.096 1.227.288 1.76.203.533.486.992.848 1.376a3.75 3.75 0 001.328.896c.523.203 1.11.304 1.76.304.939 0 1.739-.213 2.4-.64.662-.427 1.152-1.136 1.472-2.128h-2c-.074.256-.277.501-.608.736-.33.224-.725.336-1.184.336-.64 0-1.13-.165-1.472-.496-.341-.33-.528-.864-.56-1.6zm9.076.896h-2.16c.021.555.144 1.019.368 1.392.234.363.528.656.88.88.362.224.773.384 1.232.48a6.854 6.854 0 002.784 0c.458-.085.864-.24 1.216-.464.352-.224.634-.517.848-.88.224-.373.336-.832.336-1.376 0-.384-.075-.704-.224-.96a1.946 1.946 0 00-.592-.656 3.026 3.026 0 00-.848-.432 9.082 9.082 0 00-.96-.272c-.32-.075-.635-.144-.944-.208a9.435 9.435 0 01-.832-.208 1.845 1.845 0 01-.576-.32.623.623 0 01-.224-.496c0-.17.042-.304.128-.4a.82.82 0 01.304-.24 1.32 1.32 0 01.416-.096c.15-.021.288-.032.416-.032.405 0 .757.08 1.056.24.298.15.464.443.496.88h2.16c-.043-.512-.176-.933-.4-1.264a2.488 2.488 0 00-.816-.816 3.448 3.448 0 00-1.136-.432 6.676 6.676 0 00-2.608 0c-.427.075-.81.213-1.152.416a2.298 2.298 0 00-.832.8c-.203.341-.304.779-.304 1.312 0 .363.074.672.224.928.15.245.346.453.592.624.245.16.522.293.832.4.32.096.645.181.976.256.81.17 1.44.341 1.888.512.458.17.688.427.688.768a.878.878 0 01-.144.512 1.192 1.192 0 01-.368.32 1.954 1.954 0 01-.48.176 2.69 2.69 0 01-1.152-.032 1.795 1.795 0 01-.544-.24 1.545 1.545 0 01-.4-.432 1.35 1.35 0 01-.144-.64zm9.713-5.584v-2.48h-2.272v2.48h-1.376v1.52h1.376v4.88c0 .416.07.752.209 1.008a1.5 1.5 0 00.56.592c.245.139.522.23.832.272.32.053.655.08 1.007.08.225 0 .454-.005.689-.016.234-.01.447-.032.64-.064v-1.76a3.203 3.203 0 01-.337.048 4.32 4.32 0 01-.368.016c-.384 0-.64-.064-.767-.192-.128-.128-.192-.384-.192-.768v-4.096h1.663v-1.52h-1.663z" fill="#25394E"/><defs><linearGradient id="paint0_linear_635_5668" x1="220" y1="0" x2="157.083" y2="185.716" gradientUnits="userSpaceOnUse"><stop stop-color="#E8E8E8"/><stop offset="1" stop-color="#FAFAFA"/></linearGradient></defs></svg>