<svg width="227" height="62" viewBox="0 0 227 62" fill="none" xmlns="http://www.w3.org/2000/svg">
<path d="M0 20C0 8.9543 8.9543 0 20 0H207C218.046 0 227 8.95431 227 20V29C227 40.0457 218.046 49 207 49H45.0681C40.4947 49 36.0746 50.5846 32.4097 53.3205C28.1987 56.464 22.6327 60.3608 19.5 61.5C19.9205 61.1636 20.2703 60.5867 20.5612 59.8598C22.8186 54.2196 17.0751 49 11 49C4.92487 49 0 44.0751 0 38V20Z" fill="url(#paint0_linear_928_3962)"/>
<path d="M25.744 21.728V19.248H23.472V21.728H22.096V23.248H23.472V28.128C23.472 28.544 23.5413 28.88 23.68 29.136C23.8187 29.392 24.0053 29.5893 24.24 29.728C24.4853 29.8667 24.7627 29.9573 25.072 30C25.392 30.0533 25.728 30.08 26.08 30.08C26.304 30.08 26.5333 30.0747 26.768 30.064C27.0027 30.0533 27.216 30.032 27.408 30V28.24C27.3013 28.2613 27.1893 28.2773 27.072 28.288C26.9547 28.2987 26.832 28.304 26.704 28.304C26.32 28.304 26.064 28.24 25.936 28.112C25.808 27.984 25.744 27.728 25.744 27.344V23.248H27.408V21.728H25.744ZM28.489 18.576V30H30.761V25.664C30.761 24.8213 30.8997 24.2187 31.177 23.856C31.4543 23.4827 31.9023 23.296 32.521 23.296C33.065 23.296 33.4437 23.4667 33.657 23.808C33.8703 24.1387 33.977 24.6453 33.977 25.328V30H36.249V24.912C36.249 24.4 36.201 23.936 36.105 23.52C36.0197 23.0933 35.865 22.736 35.641 22.448C35.417 22.1493 35.1077 21.92 34.713 21.76C34.329 21.5893 33.833 21.504 33.225 21.504C32.7983 21.504 32.361 21.616 31.913 21.84C31.465 22.0533 31.097 22.4 30.809 22.88H30.761V18.576H28.489ZM40.3094 20.448V18.576H38.0374V20.448H40.3094ZM38.0374 21.728V30H40.3094V21.728H38.0374ZM43.8584 27.312H41.6984C41.7197 27.8667 41.8424 28.3307 42.0664 28.704C42.301 29.0667 42.5944 29.36 42.9464 29.584C43.309 29.808 43.7197 29.968 44.1784 30.064C44.637 30.16 45.1064 30.208 45.5864 30.208C46.0557 30.208 46.5144 30.16 46.9624 30.064C47.421 29.9787 47.8264 29.824 48.1784 29.6C48.5304 29.376 48.813 29.0827 49.0264 28.72C49.2504 28.3467 49.3624 27.888 49.3624 27.344C49.3624 26.96 49.2877 26.64 49.1384 26.384C48.989 26.1173 48.7917 25.8987 48.5464 25.728C48.301 25.5467 48.0184 25.4027 47.6984 25.296C47.389 25.1893 47.069 25.0987 46.7384 25.024C46.4184 24.9493 46.1037 24.88 45.7944 24.816C45.485 24.752 45.2077 24.6827 44.9624 24.608C44.7277 24.5227 44.5357 24.416 44.3864 24.288C44.237 24.16 44.1624 23.9947 44.1624 23.792C44.1624 23.6213 44.205 23.488 44.2904 23.392C44.3757 23.2853 44.477 23.2053 44.5944 23.152C44.7224 23.0987 44.861 23.0667 45.0104 23.056C45.1597 23.0347 45.2984 23.024 45.4264 23.024C45.8317 23.024 46.1837 23.104 46.4824 23.264C46.781 23.4133 46.9464 23.7067 46.9784 24.144H49.1384C49.0957 23.632 48.9624 23.2107 48.7384 22.88C48.525 22.5387 48.253 22.2667 47.9224 22.064C47.5917 21.8613 47.213 21.7173 46.7864 21.632C46.3704 21.5467 45.9384 21.504 45.4904 21.504C45.0424 21.504 44.605 21.5467 44.1784 21.632C43.7517 21.7067 43.3677 21.8453 43.0264 22.048C42.685 22.24 42.4077 22.5067 42.1944 22.848C41.9917 23.1893 41.8904 23.6267 41.8904 24.16C41.8904 24.5227 41.965 24.832 42.1144 25.088C42.2637 25.3333 42.461 25.5413 42.7064 25.712C42.9517 25.872 43.229 26.0053 43.5384 26.112C43.8584 26.208 44.1837 26.2933 44.5144 26.368C45.325 26.5387 45.9544 26.7093 46.4024 26.88C46.861 27.0507 47.0904 27.3067 47.0904 27.648C47.0904 27.8507 47.0424 28.0213 46.9464 28.16C46.8504 28.288 46.7277 28.3947 46.5784 28.48C46.4397 28.5547 46.2797 28.6133 46.0984 28.656C45.9277 28.688 45.7624 28.704 45.6024 28.704C45.3784 28.704 45.1597 28.6773 44.9464 28.624C44.7437 28.5707 44.5624 28.4907 44.4024 28.384C44.2424 28.2667 44.109 28.1227 44.0024 27.952C43.9064 27.7707 43.8584 27.5573 43.8584 27.312ZM57.4813 20.448V18.576H55.2093V20.448H57.4813ZM55.2093 21.728V30H57.4813V21.728H55.2093ZM61.0303 27.312H58.8703C58.8916 27.8667 59.0143 28.3307 59.2383 28.704C59.4729 29.0667 59.7663 29.36 60.1183 29.584C60.4809 29.808 60.8916 29.968 61.3503 30.064C61.8089 30.16 62.2783 30.208 62.7583 30.208C63.2276 30.208 63.6863 30.16 64.1343 30.064C64.5929 29.9787 64.9983 29.824 65.3503 29.6C65.7023 29.376 65.9849 29.0827 66.1983 28.72C66.4223 28.3467 66.5343 27.888 66.5343 27.344C66.5343 26.96 66.4596 26.64 66.3103 26.384C66.1609 26.1173 65.9636 25.8987 65.7183 25.728C65.4729 25.5467 65.1903 25.4027 64.8703 25.296C64.5609 25.1893 64.2409 25.0987 63.9103 25.024C63.5903 24.9493 63.2756 24.88 62.9663 24.816C62.6569 24.752 62.3796 24.6827 62.1343 24.608C61.8996 24.5227 61.7076 24.416 61.5583 24.288C61.4089 24.16 61.3343 23.9947 61.3343 23.792C61.3343 23.6213 61.3769 23.488 61.4623 23.392C61.5476 23.2853 61.6489 23.2053 61.7663 23.152C61.8943 23.0987 62.0329 23.0667 62.1823 23.056C62.3316 23.0347 62.4703 23.024 62.5983 23.024C63.0036 23.024 63.3556 23.104 63.6543 23.264C63.9529 23.4133 64.1183 23.7067 64.1503 24.144H66.3103C66.2676 23.632 66.1343 23.2107 65.9103 22.88C65.6969 22.5387 65.4249 22.2667 65.0943 22.064C64.7636 21.8613 64.3849 21.7173 63.9583 21.632C63.5423 21.5467 63.1103 21.504 62.6623 21.504C62.2143 21.504 61.7769 21.5467 61.3503 21.632C60.9236 21.7067 60.5396 21.8453 60.1983 22.048C59.8569 22.24 59.5796 22.5067 59.3663 22.848C59.1636 23.1893 59.0623 23.6267 59.0623 24.16C59.0623 24.5227 59.1369 24.832 59.2863 25.088C59.4356 25.3333 59.6329 25.5413 59.8783 25.712C60.1236 25.872 60.4009 26.0053 60.7103 26.112C61.0303 26.208 61.3556 26.2933 61.6863 26.368C62.4969 26.5387 63.1263 26.7093 63.5743 26.88C64.0329 27.0507 64.2623 27.3067 64.2623 27.648C64.2623 27.8507 64.2143 28.0213 64.1183 28.16C64.0223 28.288 63.8996 28.3947 63.7503 28.48C63.6116 28.5547 63.4516 28.6133 63.2703 28.656C63.0996 28.688 62.9343 28.704 62.7743 28.704C62.5503 28.704 62.3316 28.6773 62.1183 28.624C61.9156 28.5707 61.7343 28.4907 61.5743 28.384C61.4143 28.2667 61.2809 28.1227 61.1743 27.952C61.0783 27.7707 61.0303 27.5573 61.0303 27.312ZM75.1971 21.728V19.248H72.9251V21.728H71.5491V23.248H72.9251V28.128C72.9251 28.544 72.9945 28.88 73.1331 29.136C73.2718 29.392 73.4585 29.5893 73.6931 29.728C73.9385 29.8667 74.2158 29.9573 74.5251 30C74.8451 30.0533 75.1811 30.08 75.5331 30.08C75.7571 30.08 75.9865 30.0747 76.2211 30.064C76.4558 30.0533 76.6691 30.032 76.8611 30V28.24C76.7545 28.2613 76.6425 28.2773 76.5251 28.288C76.4078 28.2987 76.2851 28.304 76.1571 28.304C75.7731 28.304 75.5171 28.24 75.3891 28.112C75.2611 27.984 75.1971 27.728 75.1971 27.344V23.248H76.8611V21.728H75.1971ZM77.9421 18.576V30H80.2141V25.664C80.2141 24.8213 80.3528 24.2187 80.6301 23.856C80.9075 23.4827 81.3555 23.296 81.9741 23.296C82.5181 23.296 82.8968 23.4667 83.1101 23.808C83.3235 24.1387 83.4301 24.6453 83.4301 25.328V30H85.7021V24.912C85.7021 24.4 85.6541 23.936 85.5581 23.52C85.4728 23.0933 85.3181 22.736 85.0941 22.448C84.8701 22.1493 84.5608 21.92 84.1661 21.76C83.7821 21.5893 83.2861 21.504 82.6781 21.504C82.2515 21.504 81.8141 21.616 81.3661 21.84C80.9181 22.0533 80.5501 22.4 80.2621 22.88H80.2141V18.576H77.9421ZM92.9945 24.976H89.2985C89.3092 24.816 89.3412 24.6347 89.3945 24.432C89.4585 24.2293 89.5598 24.0373 89.6985 23.856C89.8478 23.6747 90.0398 23.5253 90.2745 23.408C90.5198 23.28 90.8238 23.216 91.1865 23.216C91.7412 23.216 92.1518 23.3653 92.4185 23.664C92.6958 23.9627 92.8878 24.4 92.9945 24.976ZM89.2985 26.416H95.2665C95.3092 25.776 95.2558 25.1627 95.1065 24.576C94.9572 23.9893 94.7118 23.4667 94.3705 23.008C94.0398 22.5493 93.6132 22.1867 93.0905 21.92C92.5678 21.6427 91.9545 21.504 91.2505 21.504C90.6212 21.504 90.0452 21.616 89.5225 21.84C89.0105 22.064 88.5678 22.3733 88.1945 22.768C87.8212 23.152 87.5332 23.6107 87.3305 24.144C87.1278 24.6773 87.0265 25.2533 87.0265 25.872C87.0265 26.512 87.1225 27.0987 87.3145 27.632C87.5172 28.1653 87.7998 28.624 88.1625 29.008C88.5252 29.392 88.9678 29.6907 89.4905 29.904C90.0132 30.1067 90.5998 30.208 91.2505 30.208C92.1892 30.208 92.9892 29.9947 93.6505 29.568C94.3118 29.1413 94.8025 28.432 95.1225 27.44H93.1225C93.0478 27.696 92.8452 27.9413 92.5145 28.176C92.1838 28.4 91.7892 28.512 91.3305 28.512C90.6905 28.512 90.1998 28.3467 89.8585 28.016C89.5172 27.6853 89.3305 27.152 89.2985 26.416ZM101.067 21.728V30H103.339V25.664C103.339 24.8213 103.478 24.2187 103.755 23.856C104.032 23.4827 104.48 23.296 105.099 23.296C105.643 23.296 106.022 23.4667 106.235 23.808C106.448 24.1387 106.555 24.6453 106.555 25.328V30H108.827V24.912C108.827 24.4 108.779 23.936 108.683 23.52C108.598 23.0933 108.443 22.736 108.219 22.448C107.995 22.1493 107.686 21.92 107.291 21.76C106.907 21.5893 106.411 21.504 105.803 21.504C105.323 21.504 104.854 21.616 104.395 21.84C103.936 22.0533 103.563 22.4 103.275 22.88H103.227V21.728H101.067ZM116.12 24.976H112.424C112.434 24.816 112.466 24.6347 112.52 24.432C112.584 24.2293 112.685 24.0373 112.824 23.856C112.973 23.6747 113.165 23.5253 113.4 23.408C113.645 23.28 113.949 23.216 114.312 23.216C114.866 23.216 115.277 23.3653 115.544 23.664C115.821 23.9627 116.013 24.4 116.12 24.976ZM112.424 26.416H118.392C118.434 25.776 118.381 25.1627 118.232 24.576C118.082 23.9893 117.837 23.4667 117.496 23.008C117.165 22.5493 116.738 22.1867 116.216 21.92C115.693 21.6427 115.08 21.504 114.376 21.504C113.746 21.504 113.17 21.616 112.648 21.84C112.136 22.064 111.693 22.3733 111.32 22.768C110.946 23.152 110.658 23.6107 110.456 24.144C110.253 24.6773 110.152 25.2533 110.152 25.872C110.152 26.512 110.248 27.0987 110.44 27.632C110.642 28.1653 110.925 28.624 111.288 29.008C111.65 29.392 112.093 29.6907 112.616 29.904C113.138 30.1067 113.725 30.208 114.376 30.208C115.314 30.208 116.114 29.9947 116.776 29.568C117.437 29.1413 117.928 28.432 118.248 27.44H116.248C116.173 27.696 115.97 27.9413 115.64 28.176C115.309 28.4 114.914 28.512 114.456 28.512C113.816 28.512 113.325 28.3467 112.984 28.016C112.642 27.6853 112.456 27.152 112.424 26.416ZM121.851 25.648L118.875 30H121.419L123.147 27.392L124.875 30H127.467L124.411 25.6L127.131 21.728H124.619L123.179 23.888L121.723 21.728H119.131L121.851 25.648ZM131.213 21.728V19.248H128.941V21.728H127.565V23.248H128.941V28.128C128.941 28.544 129.01 28.88 129.149 29.136C129.287 29.392 129.474 29.5893 129.709 29.728C129.954 29.8667 130.231 29.9573 130.541 30C130.861 30.0533 131.197 30.08 131.549 30.08C131.773 30.08 132.002 30.0747 132.237 30.064C132.471 30.0533 132.685 30.032 132.877 30V28.24C132.77 28.2613 132.658 28.2773 132.541 28.288C132.423 28.2987 132.301 28.304 132.173 28.304C131.789 28.304 131.533 28.24 131.405 28.112C131.277 27.984 131.213 27.728 131.213 27.344V23.248H132.877V21.728H131.213ZM144.475 25.872C144.475 26.2133 144.438 26.544 144.363 26.864C144.288 27.184 144.171 27.4667 144.011 27.712C143.851 27.9573 143.648 28.1547 143.403 28.304C143.168 28.4427 142.88 28.512 142.539 28.512C142.208 28.512 141.92 28.4427 141.675 28.304C141.43 28.1547 141.227 27.9573 141.067 27.712C140.907 27.4667 140.79 27.184 140.715 26.864C140.64 26.544 140.603 26.2133 140.603 25.872C140.603 25.52 140.64 25.184 140.715 24.864C140.79 24.544 140.907 24.2613 141.067 24.016C141.227 23.7707 141.43 23.5787 141.675 23.44C141.92 23.2907 142.208 23.216 142.539 23.216C142.88 23.216 143.168 23.2907 143.403 23.44C143.648 23.5787 143.851 23.7707 144.011 24.016C144.171 24.2613 144.288 24.544 144.363 24.864C144.438 25.184 144.475 25.52 144.475 25.872ZM138.411 18.576V30H140.571V28.944H140.603C140.848 29.4027 141.211 29.728 141.691 29.92C142.171 30.112 142.715 30.208 143.323 30.208C143.739 30.208 144.15 30.1227 144.555 29.952C144.96 29.7813 145.323 29.52 145.643 29.168C145.974 28.816 146.24 28.368 146.443 27.824C146.646 27.2693 146.747 26.6133 146.747 25.856C146.747 25.0987 146.646 24.448 146.443 23.904C146.24 23.3493 145.974 22.896 145.643 22.544C145.323 22.192 144.96 21.9307 144.555 21.76C144.15 21.5893 143.739 21.504 143.323 21.504C142.811 21.504 142.315 21.6053 141.835 21.808C141.366 22 140.992 22.3093 140.715 22.736H140.683V18.576H138.411ZM150.528 20.448V18.576H148.256V20.448H150.528ZM148.256 21.728V30H150.528V21.728H148.256ZM156.173 28.048C155.821 28.048 155.528 27.9733 155.293 27.824C155.058 27.6747 154.866 27.4827 154.717 27.248C154.578 27.0133 154.477 26.752 154.413 26.464C154.36 26.1653 154.333 25.8667 154.333 25.568C154.333 25.2587 154.365 24.9653 154.429 24.688C154.504 24.4 154.616 24.1493 154.765 23.936C154.925 23.712 155.117 23.536 155.341 23.408C155.576 23.28 155.853 23.216 156.173 23.216C156.546 23.216 156.856 23.2853 157.101 23.424C157.346 23.5627 157.544 23.7493 157.693 23.984C157.842 24.2187 157.949 24.4907 158.013 24.8C158.077 25.0987 158.109 25.4187 158.109 25.76C158.109 26.0587 158.066 26.3467 157.981 26.624C157.906 26.8907 157.789 27.1307 157.629 27.344C157.469 27.5573 157.266 27.728 157.021 27.856C156.776 27.984 156.493 28.048 156.173 28.048ZM160.269 29.472V21.728H158.109V22.832H158.077C157.8 22.352 157.453 22.0107 157.037 21.808C156.632 21.6053 156.157 21.504 155.613 21.504C155.037 21.504 154.525 21.616 154.077 21.84C153.64 22.064 153.272 22.368 152.973 22.752C152.674 23.1253 152.445 23.5627 152.285 24.064C152.136 24.5547 152.061 25.0667 152.061 25.6C152.061 26.1653 152.125 26.704 152.253 27.216C152.392 27.7173 152.605 28.16 152.893 28.544C153.181 28.9173 153.549 29.216 153.997 29.44C154.445 29.6533 154.978 29.76 155.597 29.76C156.098 29.76 156.573 29.6587 157.021 29.456C157.48 29.2427 157.832 28.9173 158.077 28.48H158.109V29.568C158.12 30.1547 157.976 30.64 157.677 31.024C157.389 31.408 156.925 31.6 156.285 31.6C155.88 31.6 155.522 31.5147 155.213 31.344C154.904 31.184 154.696 30.8907 154.589 30.464H152.333C152.365 30.9333 152.493 31.3333 152.717 31.664C152.952 32.0053 153.24 32.2827 153.581 32.496C153.933 32.7093 154.317 32.864 154.733 32.96C155.16 33.0667 155.576 33.12 155.981 33.12C156.93 33.12 157.688 32.992 158.253 32.736C158.818 32.48 159.25 32.1653 159.549 31.792C159.848 31.4293 160.04 31.0347 160.125 30.608C160.221 30.1813 160.269 29.8027 160.269 29.472ZM169.432 21.728V19.248H167.16V21.728H165.784V23.248H167.16V28.128C167.16 28.544 167.229 28.88 167.368 29.136C167.506 29.392 167.693 29.5893 167.928 29.728C168.173 29.8667 168.45 29.9573 168.76 30C169.08 30.0533 169.416 30.08 169.768 30.08C169.992 30.08 170.221 30.0747 170.456 30.064C170.69 30.0533 170.904 30.032 171.096 30V28.24C170.989 28.2613 170.877 28.2773 170.76 28.288C170.642 28.2987 170.52 28.304 170.391 28.304C170.008 28.304 169.752 28.24 169.624 28.112C169.496 27.984 169.432 27.728 169.432 27.344V23.248H171.096V21.728H169.432ZM172.177 18.576V30H174.449V25.664C174.449 24.8213 174.587 24.2187 174.865 23.856C175.142 23.4827 175.59 23.296 176.209 23.296C176.753 23.296 177.131 23.4667 177.345 23.808C177.558 24.1387 177.665 24.6453 177.665 25.328V30H179.937V24.912C179.937 24.4 179.889 23.936 179.793 23.52C179.707 23.0933 179.553 22.736 179.329 22.448C179.105 22.1493 178.795 21.92 178.401 21.76C178.017 21.5893 177.521 21.504 176.913 21.504C176.486 21.504 176.049 21.616 175.601 21.84C175.153 22.0533 174.785 22.4 174.497 22.88H174.449V18.576H172.177ZM183.997 20.448V18.576H181.725V20.448H183.997ZM181.725 21.728V30H183.997V21.728H181.725ZM185.786 21.728V30H188.058V25.664C188.058 24.8213 188.197 24.2187 188.474 23.856C188.751 23.4827 189.199 23.296 189.818 23.296C190.362 23.296 190.741 23.4667 190.954 23.808C191.167 24.1387 191.274 24.6453 191.274 25.328V30H193.546V24.912C193.546 24.4 193.498 23.936 193.402 23.52C193.317 23.0933 193.162 22.736 192.938 22.448C192.714 22.1493 192.405 21.92 192.01 21.76C191.626 21.5893 191.13 21.504 190.522 21.504C190.042 21.504 189.573 21.616 189.114 21.84C188.655 22.0533 188.282 22.4 187.994 22.88H187.946V21.728H185.786ZM199.126 28.048C198.774 28.048 198.481 27.9733 198.246 27.824C198.012 27.6747 197.82 27.4827 197.67 27.248C197.532 27.0133 197.43 26.752 197.366 26.464C197.313 26.1653 197.286 25.8667 197.286 25.568C197.286 25.2587 197.318 24.9653 197.382 24.688C197.457 24.4 197.569 24.1493 197.718 23.936C197.878 23.712 198.07 23.536 198.294 23.408C198.529 23.28 198.806 23.216 199.126 23.216C199.5 23.216 199.809 23.2853 200.054 23.424C200.3 23.5627 200.497 23.7493 200.646 23.984C200.796 24.2187 200.902 24.4907 200.966 24.8C201.03 25.0987 201.062 25.4187 201.062 25.76C201.062 26.0587 201.02 26.3467 200.934 26.624C200.86 26.8907 200.742 27.1307 200.582 27.344C200.422 27.5573 200.22 27.728 199.974 27.856C199.729 27.984 199.446 28.048 199.126 28.048ZM203.222 29.472V21.728H201.062V22.832H201.03C200.753 22.352 200.406 22.0107 199.99 21.808C199.585 21.6053 199.11 21.504 198.566 21.504C197.99 21.504 197.478 21.616 197.03 21.84C196.593 22.064 196.225 22.368 195.926 22.752C195.628 23.1253 195.398 23.5627 195.238 24.064C195.089 24.5547 195.014 25.0667 195.014 25.6C195.014 26.1653 195.078 26.704 195.206 27.216C195.345 27.7173 195.558 28.16 195.846 28.544C196.134 28.9173 196.502 29.216 196.95 29.44C197.398 29.6533 197.932 29.76 198.55 29.76C199.052 29.76 199.526 29.6587 199.974 29.456C200.433 29.2427 200.785 28.9173 201.03 28.48H201.062V29.568C201.073 30.1547 200.929 30.64 200.63 31.024C200.342 31.408 199.878 31.6 199.238 31.6C198.833 31.6 198.476 31.5147 198.166 31.344C197.857 31.184 197.649 30.8907 197.542 30.464H195.286C195.318 30.9333 195.446 31.3333 195.67 31.664C195.905 32.0053 196.193 32.2827 196.534 32.496C196.886 32.7093 197.27 32.864 197.686 32.96C198.113 33.0667 198.529 33.12 198.934 33.12C199.884 33.12 200.641 32.992 201.206 32.736C201.772 32.48 202.204 32.1653 202.502 31.792C202.801 31.4293 202.993 31.0347 203.078 30.608C203.174 30.1813 203.222 29.8027 203.222 29.472ZM205.164 27.536V30H207.676V27.536H205.164ZM207.596 21.648V18.576H205.228V21.648L205.836 26.576H206.972L207.596 21.648Z" fill="#25394E"/>
<defs>
<linearGradient id="paint0_linear_928_3962" x1="0" y1="0" x2="26.0328" y2="123.415" gradientUnits="userSpaceOnUse">
<stop stop-color="#E8E8E8"/>
<stop offset="1" stop-color="#FAFAFA"/>
</linearGradient>
</defs>
</svg>
