<svg width="227" height="62" fill="none" xmlns="http://www.w3.org/2000/svg"><path d="M0 20C0 8.954 8.954 0 20 0h187c11.046 0 20 8.954 20 20v9c0 11.046-8.954 20-20 20H45.068c-4.573 0-8.993 1.585-12.658 4.32-4.211 3.144-9.777 7.04-12.91 8.18.42-.336.77-.913 1.061-1.64C22.82 54.22 17.075 49 11 49 4.925 49 0 44.075 0 38V20z" fill="url(#paint0_linear_928_3962)"/><path d="M25.744 21.728v-2.48h-2.272v2.48h-1.376v1.52h1.376v4.88c0 .416.07.752.208 1.008a1.5 1.5 0 00.56.592c.245.139.523.23.832.272.32.053.656.08 1.008.08.224 0 .453-.005.688-.016.235-.01.448-.032.64-.064v-1.76a3.203 3.203 0 01-.336.048 4.32 4.32 0 01-.368.016c-.384 0-.64-.064-.768-.192s-.192-.384-.192-.768v-4.096h1.664v-1.52h-1.664zm2.745-3.152V30h2.272v-4.336c0-.843.139-1.445.416-1.808.277-.373.725-.56 1.344-.56.544 0 .923.17 1.136.512.213.33.32.837.32 1.52V30h2.272v-5.088c0-.512-.048-.976-.144-1.392-.085-.427-.24-.784-.464-1.072a2.125 2.125 0 00-.928-.688c-.384-.17-.88-.256-1.488-.256-.427 0-.864.112-1.312.336-.448.213-.816.56-1.104 1.04h-.048v-4.304h-2.272zm11.82 1.872v-1.872h-2.272v1.872h2.272zm-2.272 1.28V30h2.272v-8.272h-2.272zm5.821 5.584h-2.16c.022.555.144 1.019.368 1.392.235.363.528.656.88.88.363.224.774.384 1.232.48a6.854 6.854 0 002.784 0 3.39 3.39 0 001.216-.464 2.57 2.57 0 00.848-.88c.224-.373.336-.832.336-1.376 0-.384-.074-.704-.224-.96a1.946 1.946 0 00-.592-.656 3.026 3.026 0 00-.848-.432 9.082 9.082 0 00-.96-.272c-.32-.075-.634-.144-.944-.208a9.435 9.435 0 01-.832-.208 1.845 1.845 0 01-.576-.32.623.623 0 01-.224-.496c0-.17.043-.304.128-.4a.82.82 0 01.304-.24 1.32 1.32 0 01.416-.096c.15-.021.288-.032.416-.032.406 0 .758.08 1.056.24.299.15.464.443.496.88h2.16c-.042-.512-.176-.933-.4-1.264a2.488 2.488 0 00-.816-.816 3.448 3.448 0 00-1.136-.432 6.676 6.676 0 00-2.608 0c-.426.075-.81.213-1.152.416a2.298 2.298 0 00-.832.8c-.202.341-.304.779-.304 1.312 0 .363.075.672.224.928.15.245.347.453.592.624.246.16.523.293.832.4.32.096.646.181.976.256.811.17 1.44.341 1.888.512.459.17.688.427.688.768a.878.878 0 01-.144.512 1.192 1.192 0 01-.368.32 1.954 1.954 0 01-.48.176 2.69 2.69 0 01-1.152-.032 1.795 1.795 0 01-.544-.24 1.545 1.545 0 01-.4-.432 1.35 1.35 0 01-.144-.64zm13.623-6.864v-1.872H55.21v1.872h2.272zm-2.272 1.28V30h2.272v-8.272H55.21zm5.821 5.584h-2.16c.022.555.144 1.019.368 1.392.235.363.528.656.88.88.363.224.774.384 1.232.48a6.854 6.854 0 002.784 0 3.39 3.39 0 001.216-.464 2.57 2.57 0 00.848-.88c.224-.373.336-.832.336-1.376 0-.384-.074-.704-.224-.96a1.946 1.946 0 00-.592-.656 3.026 3.026 0 00-.848-.432 9.082 9.082 0 00-.96-.272c-.32-.075-.634-.144-.944-.208a9.435 9.435 0 01-.832-.208 1.845 1.845 0 01-.576-.32.623.623 0 01-.224-.496c0-.17.043-.304.128-.4a.82.82 0 01.304-.24 1.32 1.32 0 01.416-.096c.15-.021.288-.032.416-.032.406 0 .758.08 1.056.24.299.15.464.443.496.88h2.16c-.042-.512-.176-.933-.4-1.264a2.488 2.488 0 00-.816-.816 3.448 3.448 0 00-1.136-.432 6.676 6.676 0 00-2.608 0c-.426.075-.81.213-1.152.416a2.298 2.298 0 00-.832.8c-.202.341-.304.779-.304 1.312 0 .363.075.672.224.928.15.245.347.453.592.624.246.16.523.293.832.4.32.096.646.181.976.256.81.17 1.44.341 1.888.512.459.17.688.427.688.768a.878.878 0 01-.144.512 1.192 1.192 0 01-.368.32 1.954 1.954 0 01-.48.176 2.69 2.69 0 01-1.152-.032 1.795 1.795 0 01-.544-.24 1.545 1.545 0 01-.4-.432 1.35 1.35 0 01-.144-.64zm14.167-5.584v-2.48h-2.272v2.48H71.55v1.52h1.376v4.88c0 .416.07.752.208 1.008a1.5 1.5 0 00.56.592c.246.139.523.23.832.272.32.053.656.08 1.008.08.224 0 .454-.005.688-.016.235-.01.448-.032.64-.064v-1.76a3.195 3.195 0 01-.336.048 4.32 4.32 0 01-.368.016c-.384 0-.64-.064-.768-.192s-.192-.384-.192-.768v-4.096h1.664v-1.52h-1.664zm2.745-3.152V30h2.272v-4.336c0-.843.139-1.445.416-1.808.278-.373.726-.56 1.344-.56.544 0 .923.17 1.136.512.213.33.32.837.32 1.52V30h2.272v-5.088c0-.512-.048-.976-.144-1.392-.085-.427-.24-.784-.464-1.072a2.125 2.125 0 00-.928-.688c-.384-.17-.88-.256-1.488-.256-.427 0-.864.112-1.312.336-.448.213-.816.56-1.104 1.04h-.048v-4.304h-2.272zm15.053 6.4h-3.697c.011-.16.043-.341.096-.544.064-.203.166-.395.304-.576.15-.181.342-.33.577-.448.245-.128.549-.192.911-.192.555 0 .966.15 1.232.448.278.299.47.736.576 1.312zm-3.697 1.44h5.968a5.84 5.84 0 00-.16-1.84 4.425 4.425 0 00-.735-1.568 3.526 3.526 0 00-1.28-1.088c-.523-.277-1.136-.416-1.84-.416-.63 0-1.206.112-1.729.336a4.03 4.03 0 00-1.328.928 3.972 3.972 0 00-.864 1.376 4.824 4.824 0 00-.303 1.728c0 .64.096 1.227.287 1.76.203.533.486.992.849 1.376.362.384.805.683 1.328.896.522.203 1.109.304 1.76.304.938 0 1.738-.213 2.4-.64.66-.427 1.151-1.136 1.472-2.128h-2c-.075.256-.278.501-.609.736-.33.224-.725.336-1.183.336-.64 0-1.131-.165-1.472-.496-.342-.33-.528-.864-.56-1.6zm11.769-4.688V30h2.272v-4.336c0-.843.139-1.445.416-1.808.277-.373.725-.56 1.344-.56.544 0 .923.17 1.136.512.213.33.32.837.32 1.52V30h2.272v-5.088c0-.512-.048-.976-.144-1.392-.085-.427-.24-.784-.464-1.072a2.123 2.123 0 00-.928-.688c-.384-.17-.88-.256-1.488-.256-.48 0-.949.112-1.408.336-.459.213-.832.56-1.12 1.04h-.048v-1.152h-2.16zm15.053 3.248h-3.696c.01-.16.042-.341.096-.544a1.86 1.86 0 01.304-.576c.149-.181.341-.33.576-.448.245-.128.549-.192.912-.192.554 0 .965.15 1.232.448.277.299.469.736.576 1.312zm-3.696 1.44h5.968a5.87 5.87 0 00-.16-1.84 4.442 4.442 0 00-.736-1.568 3.535 3.535 0 00-1.28-1.088c-.523-.277-1.136-.416-1.84-.416-.63 0-1.206.112-1.728.336a4.026 4.026 0 00-1.328.928 3.951 3.951 0 00-.864 1.376 4.817 4.817 0 00-.304 1.728c0 .64.096 1.227.288 1.76.202.533.485.992.848 1.376.362.384.805.683 1.328.896.522.203 1.109.304 1.76.304.938 0 1.738-.213 2.4-.64.661-.427 1.152-1.136 1.472-2.128h-2c-.075.256-.278.501-.608.736-.331.224-.726.336-1.184.336-.64 0-1.131-.165-1.472-.496-.342-.33-.528-.864-.56-1.6zm9.427-.768L118.875 30h2.544l1.728-2.608L124.875 30h2.592l-3.056-4.4 2.72-3.872h-2.512l-1.44 2.16-1.456-2.16h-2.592l2.72 3.92zm9.362-3.92v-2.48h-2.272v2.48h-1.376v1.52h1.376v4.88c0 .416.069.752.208 1.008.138.256.325.453.56.592.245.139.522.23.832.272.32.053.656.08 1.008.08.224 0 .453-.005.688-.016.234-.01.448-.032.64-.064v-1.76a3.226 3.226 0 01-.336.048c-.118.01-.24.016-.368.016-.384 0-.64-.064-.768-.192s-.192-.384-.192-.768v-4.096h1.664v-1.52h-1.664zm13.262 4.144c0 .341-.037.672-.112.992a2.64 2.64 0 01-.352.848c-.16.245-.363.443-.608.592-.235.139-.523.208-.864.208-.331 0-.619-.07-.864-.208a1.898 1.898 0 01-.608-.592 2.64 2.64 0 01-.352-.848 4.333 4.333 0 01-.112-.992c0-.352.037-.688.112-1.008a2.64 2.64 0 01.352-.848c.16-.245.363-.437.608-.576.245-.15.533-.224.864-.224.341 0 .629.075.864.224.245.139.448.33.608.576.16.245.277.528.352.848.075.32.112.656.112 1.008zm-6.064-7.296V30h2.16v-1.056h.032a2.07 2.07 0 001.088.976c.48.192 1.024.288 1.632.288.416 0 .827-.085 1.232-.256.405-.17.768-.432 1.088-.784.331-.352.597-.8.8-1.344.203-.555.304-1.21.304-1.968 0-.757-.101-1.408-.304-1.952-.203-.555-.469-1.008-.8-1.36a3.082 3.082 0 00-1.088-.784 3.147 3.147 0 00-1.232-.256c-.512 0-1.008.101-1.488.304a2.383 2.383 0 00-1.12.928h-.032v-4.16h-2.272zm12.117 1.872v-1.872h-2.272v1.872h2.272zm-2.272 1.28V30h2.272v-8.272h-2.272zm7.917 6.32c-.352 0-.645-.075-.88-.224a1.848 1.848 0 01-.576-.576 2.658 2.658 0 01-.304-.784 5.12 5.12 0 01-.08-.896c0-.31.032-.603.096-.88a2.32 2.32 0 01.336-.752c.16-.224.352-.4.576-.528.235-.128.512-.192.832-.192.373 0 .683.07.928.208.245.139.443.325.592.56.149.235.256.507.32.816.064.299.096.619.096.96 0 .299-.043.587-.128.864a2.163 2.163 0 01-.352.72 1.78 1.78 0 01-.608.512 1.806 1.806 0 01-.848.192zm4.096 1.424v-7.744h-2.16v1.104h-.032c-.277-.48-.624-.821-1.04-1.024-.405-.203-.88-.304-1.424-.304-.576 0-1.088.112-1.536.336a3.275 3.275 0 00-1.104.912 4.04 4.04 0 00-.688 1.312 5.258 5.258 0 00-.224 1.536c0 .565.064 1.104.192 1.616.139.501.352.944.64 1.328.288.373.656.672 1.104.896.448.213.981.32 1.6.32.501 0 .976-.101 1.424-.304a2.283 2.283 0 001.056-.976h.032v1.088c.011.587-.133 1.072-.432 1.456-.288.384-.752.576-1.392.576a2.18 2.18 0 01-1.072-.256c-.309-.16-.517-.453-.624-.88h-2.256c.032.47.16.87.384 1.2.235.341.523.619.864.832.352.213.736.368 1.152.464.427.107.843.16 1.248.16.949 0 1.707-.128 2.272-.384.565-.256.997-.57 1.296-.944.299-.363.491-.757.576-1.184.096-.427.144-.805.144-1.136zm9.163-7.744v-2.48h-2.272v2.48h-1.376v1.52h1.376v4.88c0 .416.069.752.208 1.008.138.256.325.453.56.592.245.139.522.23.832.272.32.053.656.08 1.008.08.224 0 .453-.005.688-.016.234-.01.448-.032.64-.064v-1.76a3.226 3.226 0 01-.336.048c-.118.01-.24.016-.369.016-.383 0-.639-.064-.767-.192s-.192-.384-.192-.768v-4.096h1.664v-1.52h-1.664zm2.745-3.152V30h2.272v-4.336c0-.843.138-1.445.416-1.808.277-.373.725-.56 1.344-.56.544 0 .922.17 1.136.512.213.33.32.837.32 1.52V30h2.272v-5.088c0-.512-.048-.976-.144-1.392-.086-.427-.24-.784-.464-1.072a2.13 2.13 0 00-.928-.688c-.384-.17-.88-.256-1.488-.256-.427 0-.864.112-1.312.336-.448.213-.816.56-1.104 1.04h-.048v-4.304h-2.272zm11.82 1.872v-1.872h-2.272v1.872h2.272zm-2.272 1.28V30h2.272v-8.272h-2.272zm4.061 0V30h2.272v-4.336c0-.843.139-1.445.416-1.808.277-.373.725-.56 1.344-.56.544 0 .923.17 1.136.512.213.33.32.837.32 1.52V30h2.272v-5.088c0-.512-.048-.976-.144-1.392-.085-.427-.24-.784-.464-1.072a2.123 2.123 0 00-.928-.688c-.384-.17-.88-.256-1.488-.256-.48 0-.949.112-1.408.336-.459.213-.832.56-1.12 1.04h-.048v-1.152h-2.16zm13.34 6.32c-.352 0-.645-.075-.88-.224a1.869 1.869 0 01-.576-.576 2.686 2.686 0 01-.304-.784 5.12 5.12 0 01-.08-.896c0-.31.032-.603.096-.88a2.32 2.32 0 01.336-.752c.16-.224.352-.4.576-.528.235-.128.512-.192.832-.192.374 0 .683.07.928.208.246.139.443.325.592.56.15.235.256.507.32.816.064.299.096.619.096.96a2.9 2.9 0 01-.128.864 2.145 2.145 0 01-.352.72c-.16.213-.362.384-.608.512a1.806 1.806 0 01-.848.192zm4.096 1.424v-7.744h-2.16v1.104h-.032c-.277-.48-.624-.821-1.04-1.024-.405-.203-.88-.304-1.424-.304-.576 0-1.088.112-1.536.336a3.275 3.275 0 00-1.104.912c-.298.373-.528.81-.688 1.312a5.258 5.258 0 00-.224 1.536c0 .565.064 1.104.192 1.616.139.501.352.944.64 1.328.288.373.656.672 1.104.896.448.213.982.32 1.6.32.502 0 .976-.101 1.424-.304a2.283 2.283 0 001.056-.976h.032v1.088c.011.587-.133 1.072-.432 1.456-.288.384-.752.576-1.392.576-.405 0-.762-.085-1.072-.256-.309-.16-.517-.453-.624-.88h-2.256c.032.47.16.87.384 1.2.235.341.523.619.864.832.352.213.736.368 1.152.464.427.107.843.16 1.248.16.95 0 1.707-.128 2.272-.384.566-.256.998-.57 1.296-.944.299-.363.491-.757.576-1.184.096-.427.144-.805.144-1.136zm1.942-1.936V30h2.512v-2.464h-2.512zm2.432-5.888v-3.072h-2.368v3.072l.608 4.928h1.136l.624-4.928z" fill="#25394E"/><defs><linearGradient id="paint0_linear_928_3962" x1="0" y1="0" x2="26.033" y2="123.415" gradientUnits="userSpaceOnUse"><stop stop-color="#E8E8E8"/><stop offset="1" stop-color="#FAFAFA"/></linearGradient></defs></svg>