<svg width="220" height="93" fill="none" xmlns="http://www.w3.org/2000/svg"><path d="M0 20C0 8.954 8.954 0 20 0h180c11.046 0 20 8.954 20 20v40c0 11.046-8.954 20-20 20H45.068c-4.573 0-8.993 1.585-12.658 4.32-4.211 3.144-9.777 7.04-12.91 8.18.42-.336.77-.913 1.061-1.64C22.82 85.22 17.075 80 11 80 4.925 80 0 75.075 0 69V20z" fill="url(#paint0_linear_928_3950)"/><path d="M19.744 24.728v-2.48h-2.272v2.48h-1.376v1.52h1.376v4.88c0 .416.07.752.208 1.008a1.5 1.5 0 00.56.592c.245.139.523.23.832.272.32.053.656.08 1.008.08.224 0 .453-.005.688-.016.235-.01.448-.032.64-.064v-1.76a3.203 3.203 0 01-.336.048 4.32 4.32 0 01-.368.016c-.384 0-.64-.064-.768-.192s-.192-.384-.192-.768v-4.096h1.664v-1.52h-1.664zm2.745-3.152V33h2.272v-4.336c0-.843.139-1.445.416-1.808.277-.373.725-.56 1.344-.56.544 0 .923.17 1.136.512.213.33.32.837.32 1.52V33h2.272v-5.088c0-.512-.048-.976-.144-1.392-.085-.427-.24-.784-.464-1.072a2.125 2.125 0 00-.928-.688c-.384-.17-.88-.256-1.488-.256-.427 0-.864.112-1.312.336-.448.213-.816.56-1.104 1.04h-.048v-4.304h-2.272zm11.82 1.872v-1.872h-2.272v1.872h2.272zm-2.272 1.28V33h2.272v-8.272h-2.272zm5.821 5.584h-2.16c.022.555.144 1.019.368 1.392.235.363.528.656.88.88.363.224.774.384 1.232.48a6.854 6.854 0 002.784 0 3.39 3.39 0 001.216-.464 2.57 2.57 0 00.848-.88c.224-.373.336-.832.336-1.376 0-.384-.074-.704-.224-.96a1.946 1.946 0 00-.592-.656 3.026 3.026 0 00-.848-.432 9.082 9.082 0 00-.96-.272c-.32-.075-.634-.144-.944-.208a9.435 9.435 0 01-.832-.208 1.845 1.845 0 01-.576-.32.623.623 0 01-.224-.496c0-.17.043-.304.128-.4a.82.82 0 01.304-.24 1.32 1.32 0 01.416-.096c.15-.021.288-.032.416-.032.406 0 .758.08 1.056.24.299.15.464.443.496.88h2.16c-.042-.512-.176-.933-.4-1.264a2.488 2.488 0 00-.816-.816 3.448 3.448 0 00-1.136-.432 6.676 6.676 0 00-2.608 0c-.426.075-.81.213-1.152.416a2.298 2.298 0 00-.832.8c-.202.341-.304.779-.304 1.312 0 .363.075.672.224.928.15.245.347.453.592.624.246.16.523.293.832.4.32.096.646.181.976.256.811.17 1.44.341 1.888.512.459.17.688.427.688.768a.878.878 0 01-.144.512 1.192 1.192 0 01-.368.32 1.954 1.954 0 01-.48.176 2.69 2.69 0 01-1.152-.032 1.795 1.795 0 01-.544-.24 1.545 1.545 0 01-.4-.432 1.35 1.35 0 01-.144-.64zm13.623-6.864v-1.872H49.21v1.872h2.272zm-2.272 1.28V33h2.272v-8.272H49.21zm5.821 5.584h-2.16c.022.555.144 1.019.368 1.392.235.363.528.656.88.88.363.224.774.384 1.232.48a6.854 6.854 0 002.784 0 3.39 3.39 0 001.216-.464 2.57 2.57 0 00.848-.88c.224-.373.336-.832.336-1.376 0-.384-.074-.704-.224-.96a1.946 1.946 0 00-.592-.656 3.026 3.026 0 00-.848-.432 9.082 9.082 0 00-.96-.272c-.32-.075-.634-.144-.944-.208a9.435 9.435 0 01-.832-.208 1.845 1.845 0 01-.576-.32.623.623 0 01-.224-.496c0-.17.043-.304.128-.4a.82.82 0 01.304-.24 1.32 1.32 0 01.416-.096c.15-.021.288-.032.416-.032.406 0 .758.08 1.056.24.299.15.464.443.496.88h2.16c-.042-.512-.176-.933-.4-1.264a2.488 2.488 0 00-.816-.816 3.448 3.448 0 00-1.136-.432 6.676 6.676 0 00-2.608 0c-.426.075-.81.213-1.152.416a2.298 2.298 0 00-.832.8c-.202.341-.304.779-.304 1.312 0 .363.075.672.224.928.15.245.347.453.592.624.246.16.523.293.832.4.32.096.646.181.976.256.81.17 1.44.341 1.888.512.459.17.688.427.688.768a.878.878 0 01-.144.512 1.192 1.192 0 01-.368.32 1.954 1.954 0 01-.48.176 2.69 2.69 0 01-1.152-.032 1.795 1.795 0 01-.544-.24 1.545 1.545 0 01-.4-.432 1.35 1.35 0 01-.144-.64zm14.167-5.584v-2.48h-2.272v2.48H65.55v1.52h1.376v4.88c0 .416.07.752.208 1.008a1.5 1.5 0 00.56.592c.246.139.523.23.832.272.32.053.656.08 1.008.08.224 0 .454-.005.688-.016.235-.01.448-.032.64-.064v-1.76a3.195 3.195 0 01-.336.048 4.32 4.32 0 01-.368.016c-.384 0-.64-.064-.768-.192s-.192-.384-.192-.768v-4.096h1.664v-1.52h-1.664zm2.745-3.152V33h2.272v-4.336c0-.843.139-1.445.416-1.808.278-.373.726-.56 1.344-.56.544 0 .923.17 1.136.512.213.33.32.837.32 1.52V33h2.272v-5.088c0-.512-.048-.976-.144-1.392-.085-.427-.24-.784-.464-1.072a2.125 2.125 0 00-.928-.688c-.384-.17-.88-.256-1.488-.256-.427 0-.864.112-1.312.336-.448.213-.816.56-1.104 1.04h-.048v-4.304h-2.272zm15.053 6.4h-3.697c.011-.16.043-.341.096-.544.064-.203.166-.395.304-.576.15-.181.342-.33.577-.448.245-.128.549-.192.911-.192.555 0 .966.15 1.232.448.278.299.47.736.576 1.312zm-3.697 1.44h5.968a5.84 5.84 0 00-.16-1.84 4.425 4.425 0 00-.735-1.568 3.526 3.526 0 00-1.28-1.088c-.523-.277-1.136-.416-1.84-.416-.63 0-1.206.112-1.729.336a4.03 4.03 0 00-1.328.928 3.972 3.972 0 00-.864 1.376 4.824 4.824 0 00-.303 1.728c0 .64.096 1.227.287 1.76.203.533.486.992.849 1.376.362.384.805.683 1.328.896.522.203 1.109.304 1.76.304.938 0 1.738-.213 2.4-.64.66-.427 1.151-1.136 1.472-2.128h-2c-.075.256-.278.501-.609.736-.33.224-.725.336-1.183.336-.64 0-1.131-.165-1.472-.496-.342-.33-.528-.864-.56-1.6zm13.785-.544c0-.33.032-.656.096-.976.064-.32.17-.603.32-.848.16-.245.368-.443.624-.592.256-.16.576-.24.96-.24s.704.08.96.24c.267.15.475.347.624.592.16.245.272.528.336.848a4.964 4.964 0 010 1.952c-.064.31-.176.592-.336.848a1.663 1.663 0 01-.624.592c-.256.15-.576.224-.96.224s-.704-.075-.96-.224a1.843 1.843 0 01-.624-.592 2.794 2.794 0 01-.32-.848 4.964 4.964 0 01-.096-.976zm-2.272 0c0 .661.101 1.259.304 1.792.203.533.49.992.864 1.376.374.373.822.661 1.344.864.523.203 1.11.304 1.76.304.65 0 1.237-.101 1.76-.304.533-.203.987-.49 1.36-.864a3.98 3.98 0 00.864-1.376c.203-.533.304-1.13.304-1.792 0-.661-.101-1.259-.304-1.792a3.79 3.79 0 00-.864-1.376 3.701 3.701 0 00-1.36-.88 4.63 4.63 0 00-1.76-.32 4.63 4.63 0 00-1.76.32 3.782 3.782 0 00-2.208 2.256 5.014 5.014 0 00-.304 1.792zm10.037-4.144V33h2.272v-4.336c0-.843.139-1.445.416-1.808.278-.373.726-.56 1.344-.56.544 0 .923.17 1.136.512.214.33.32.837.32 1.52V33h2.272v-5.088c0-.512-.048-.976-.144-1.392-.085-.427-.24-.784-.464-1.072a2.123 2.123 0 00-.928-.688c-.384-.17-.88-.256-1.488-.256-.48 0-.949.112-1.408.336-.458.213-.832.56-1.12 1.04h-.048v-1.152h-2.16zm9.549-3.152V33h2.272V21.576h-2.272zm8.141 12.448l3.456-9.296h-2.352l-1.808 5.664h-.032l-1.872-5.664h-2.416l2.896 7.76c.064.16.096.33.096.512 0 .245-.075.47-.224.672-.139.203-.358.32-.656.352-.224.01-.448.005-.672-.016l-.656-.064v1.872c.234.021.464.037.688.048.234.021.469.032.704.032.778 0 1.386-.144 1.824-.432.437-.288.778-.768 1.024-1.44zm11.55-9.296v-2.48h-2.272v2.48h-1.376v1.52h1.376v4.88c0 .416.069.752.208 1.008.138.256.325.453.56.592.245.139.522.23.832.272.32.053.656.08 1.008.08.224 0 .453-.005.688-.016.234-.01.448-.032.64-.064v-1.76a3.226 3.226 0 01-.336.048c-.118.01-.24.016-.368.016-.384 0-.64-.064-.768-.192s-.192-.384-.192-.768v-4.096h1.664v-1.52h-1.664zm2.745-3.152V33h2.272v-4.336c0-.843.138-1.445.416-1.808.277-.373.725-.56 1.344-.56.544 0 .922.17 1.136.512.213.33.32.837.32 1.52V33h2.272v-5.088c0-.512-.048-.976-.144-1.392-.086-.427-.24-.784-.464-1.072a2.13 2.13 0 00-.928-.688c-.384-.17-.88-.256-1.488-.256-.427 0-.864.112-1.312.336-.448.213-.816.56-1.104 1.04h-.048v-4.304h-2.272zm11.82 1.872v-1.872h-2.272v1.872h2.272zm-2.272 1.28V33h2.272v-8.272h-2.272zm4.061 0V33h2.272v-4.336c0-.843.139-1.445.416-1.808.277-.373.725-.56 1.344-.56.544 0 .923.17 1.136.512.213.33.32.837.32 1.52V33h2.272v-5.088c0-.512-.048-.976-.144-1.392-.085-.427-.24-.784-.464-1.072a2.123 2.123 0 00-.928-.688c-.384-.17-.88-.256-1.488-.256-.48 0-.949.112-1.408.336-.459.213-.832.56-1.12 1.04h-.048v-1.152h-2.16zm13.341 6.32c-.352 0-.646-.075-.88-.224a1.848 1.848 0 01-.576-.576 2.658 2.658 0 01-.304-.784 5.025 5.025 0 01-.08-.896c0-.31.032-.603.096-.88a2.28 2.28 0 01.336-.752c.16-.224.352-.4.576-.528a1.71 1.71 0 01.832-.192c.373 0 .682.07.928.208.245.139.442.325.592.56.149.235.256.507.32.816.064.299.096.619.096.96 0 .299-.043.587-.128.864a2.163 2.163 0 01-.352.72 1.78 1.78 0 01-.608.512 1.809 1.809 0 01-.848.192zm4.095 1.424v-7.744h-2.159v1.104h-.032c-.278-.48-.624-.821-1.04-1.024-.406-.203-.88-.304-1.424-.304-.576 0-1.088.112-1.536.336a3.256 3.256 0 00-1.104.912 4.04 4.04 0 00-.688 1.312 5.224 5.224 0 00-.224 1.536c0 .565.064 1.104.192 1.616.138.501.352.944.64 1.328.288.373.656.672 1.104.896.448.213.981.32 1.6.32.501 0 .976-.101 1.424-.304.458-.213.81-.539 1.056-.976h.032v1.088c.01.587-.134 1.072-.432 1.456-.288.384-.752.576-1.392.576a2.18 2.18 0 01-1.072-.256c-.31-.16-.518-.453-.624-.88h-2.256c.032.47.16.87.384 1.2a2.9 2.9 0 00.864.832c.352.213.736.368 1.152.464.426.107.842.16 1.248.16.949 0 1.706-.128 2.272-.384.565-.256.997-.57 1.296-.944.298-.363.49-.757.576-1.184.096-.427.143-.805.143-1.136zm8.619-9.024v-1.872h-2.272v1.872h2.272zm-2.272 1.28V33h2.272v-8.272h-2.272zM22.928 50.872c0 .341-.037.672-.112.992-.075.32-.192.603-.352.848-.16.245-.363.443-.608.592-.235.139-.523.208-.864.208-.33 0-.619-.07-.864-.208a1.895 1.895 0 01-.608-.592 2.634 2.634 0 01-.352-.848 4.35 4.35 0 01-.112-.992c0-.352.037-.688.112-1.008.075-.32.192-.603.352-.848.16-.245.363-.437.608-.576a1.63 1.63 0 01.864-.224c.341 0 .63.075.864.224.245.139.448.33.608.576.16.245.277.528.352.848.075.32.112.656.112 1.008zm-6.064-7.296V55h2.16v-1.056h.032c.245.459.608.784 1.088.976.48.192 1.024.288 1.632.288.416 0 .827-.085 1.232-.256a3.08 3.08 0 001.088-.784c.33-.352.597-.8.8-1.344.203-.555.304-1.21.304-1.968 0-.757-.101-1.408-.304-1.952-.203-.555-.47-1.008-.8-1.36a3.08 3.08 0 00-1.088-.784 3.148 3.148 0 00-1.232-.256c-.512 0-1.008.101-1.488.304-.47.192-.843.501-1.12.928h-.032v-4.16h-2.272zM34.405 55v-8.272h-2.272v4.336c0 .843-.138 1.45-.416 1.824-.277.363-.725.544-1.344.544-.544 0-.922-.165-1.136-.496-.213-.341-.32-.853-.32-1.536v-4.672h-2.272v5.088c0 .512.043.981.128 1.408.096.416.256.773.48 1.072.224.288.528.512.912.672.395.16.896.24 1.504.24.48 0 .95-.107 1.408-.32.459-.213.832-.56 1.12-1.04h.048V55h2.16zm5.805 1.024l3.456-9.296h-2.352l-1.808 5.664h-.032l-1.872-5.664h-2.416l2.896 7.76c.064.16.096.33.096.512 0 .245-.075.47-.224.672-.139.203-.358.32-.656.352-.224.01-.448.005-.672-.016l-.656-.064v1.872c.234.021.464.037.688.048.234.021.469.032.704.032.778 0 1.386-.144 1.824-.432.437-.288.778-.768 1.024-1.44zm9.166-7.776V55h2.272v-6.752h1.568v-1.52h-1.568v-.496c0-.341.064-.581.192-.72.138-.15.362-.224.672-.224.288 0 .565.016.832.048V43.64l-.592-.032a5.812 5.812 0 00-.608-.032c-.928 0-1.622.235-2.08.704-.459.47-.688 1.072-.688 1.808v.64h-1.36v1.52h1.36zm6.848 2.624c0-.33.032-.656.096-.976.064-.32.17-.603.32-.848.16-.245.368-.443.624-.592.256-.16.576-.24.96-.24s.704.08.96.24c.266.15.474.347.624.592.16.245.272.528.336.848a4.964 4.964 0 010 1.952c-.064.31-.176.592-.336.848-.15.245-.358.443-.624.592-.256.15-.576.224-.96.224s-.704-.075-.96-.224a1.843 1.843 0 01-.624-.592 2.792 2.792 0 01-.32-.848 4.964 4.964 0 01-.096-.976zm-2.272 0c0 .661.101 1.259.304 1.792.202.533.49.992.864 1.376.373.373.821.661 1.344.864.522.203 1.11.304 1.76.304.65 0 1.237-.101 1.76-.304a3.81 3.81 0 001.36-.864c.373-.384.661-.843.864-1.376.202-.533.304-1.13.304-1.792 0-.661-.102-1.259-.304-1.792a3.782 3.782 0 00-.864-1.376 3.702 3.702 0 00-1.36-.88 4.63 4.63 0 00-1.76-.32c-.65 0-1.238.107-1.76.32a3.78 3.78 0 00-2.208 2.256c-.203.533-.304 1.13-.304 1.792zm10.037-4.144V55h2.272v-3.728c0-.373.037-.72.112-1.04.075-.32.197-.597.368-.832.181-.245.416-.437.704-.576.288-.139.64-.208 1.056-.208.139 0 .283.01.432.032.15.01.277.027.384.048v-2.112a1.773 1.773 0 00-.496-.08c-.288 0-.565.043-.832.128a2.894 2.894 0 00-.752.368c-.235.15-.443.336-.624.56a2.663 2.663 0 00-.432.704h-.032v-1.536h-2.16zm10.736 0V55h2.272v-4.8c0-.405.058-.73.176-.976.117-.256.256-.448.416-.576.17-.139.341-.23.512-.272a1.64 1.64 0 01.432-.08c.362 0 .635.064.816.192a.926.926 0 01.4.48c.085.203.133.427.144.672.01.235.016.475.016.72V55h2.272v-4.608c0-.256.016-.507.048-.752.043-.256.117-.48.224-.672.117-.203.272-.363.464-.48.203-.128.464-.192.784-.192s.57.053.752.16c.192.107.336.25.432.432.096.181.154.395.176.64.021.245.032.507.032.784V55h2.272v-5.536c0-.533-.075-.987-.224-1.36a2.339 2.339 0 00-.624-.928 2.448 2.448 0 00-.96-.512 4.411 4.411 0 00-1.216-.16c-.576 0-1.078.139-1.504.416a3.557 3.557 0 00-.992.96c-.224-.512-.555-.87-.992-1.072a3.277 3.277 0 00-1.424-.304 2.97 2.97 0 00-1.456.352 3.262 3.262 0 00-1.072.992h-.032v-1.12h-2.144zm20.004 3.248h-3.696c.01-.16.043-.341.096-.544a1.86 1.86 0 01.304-.576c.15-.181.341-.33.576-.448.245-.128.55-.192.912-.192.554 0 .965.15 1.232.448.277.299.47.736.576 1.312zm-3.696 1.44H97a5.843 5.843 0 00-.16-1.84 4.426 4.426 0 00-.736-1.568 3.527 3.527 0 00-1.28-1.088c-.523-.277-1.136-.416-1.84-.416-.63 0-1.206.112-1.728.336a4.03 4.03 0 00-1.328.928 3.969 3.969 0 00-.864 1.376 4.824 4.824 0 00-.304 1.728c0 .64.096 1.227.288 1.76.202.533.485.992.848 1.376.362.384.805.683 1.328.896.523.203 1.11.304 1.76.304.939 0 1.739-.213 2.4-.64.661-.427 1.152-1.136 1.472-2.128h-2c-.075.256-.278.501-.608.736-.33.224-.725.336-1.184.336-.64 0-1.13-.165-1.472-.496-.342-.33-.528-.864-.56-1.6zm11.673-2.144c.032-.533.165-.976.4-1.328a2.71 2.71 0 01.896-.848 3.762 3.762 0 011.216-.448 6.693 6.693 0 011.376-.144c.416 0 .837.032 1.264.096.426.053.816.165 1.168.336.352.17.64.41.864.72.224.299.336.699.336 1.2v4.304c0 .373.021.73.064 1.072.042.341.117.597.224.768h-2.304a5.052 5.052 0 01-.112-.384 4.906 4.906 0 01-.048-.416c-.363.373-.79.635-1.28.784a5.14 5.14 0 01-1.504.224 4.06 4.06 0 01-1.104-.144 2.522 2.522 0 01-.896-.448 2.16 2.16 0 01-.608-.768c-.139-.31-.208-.677-.208-1.104 0-.47.08-.853.24-1.152.17-.31.384-.555.64-.736.266-.181.565-.315.896-.4.341-.096.682-.17 1.024-.224.341-.053.677-.096 1.008-.128.33-.032.624-.08.88-.144a1.62 1.62 0 00.608-.272c.149-.128.218-.31.208-.544 0-.245-.043-.437-.128-.576a.757.757 0 00-.32-.336 1.045 1.045 0 00-.464-.16 3.052 3.052 0 00-.56-.048c-.448 0-.8.096-1.056.288-.256.192-.406.512-.448.96h-2.272zm5.248 1.68a1.111 1.111 0 01-.368.208 6.478 6.478 0 01-.976.192 9.393 9.393 0 00-.544.08 4.445 4.445 0 00-.512.128 1.51 1.51 0 00-.432.224.97.97 0 00-.288.336 1.103 1.103 0 00-.112.528c0 .203.037.373.112.512a.92.92 0 00.304.336c.128.075.277.128.448.16.17.032.346.048.528.048.448 0 .794-.075 1.04-.224a1.53 1.53 0 00.544-.528c.117-.213.186-.427.208-.64.032-.213.048-.384.048-.512v-.848zm4.035-4.224V55h2.272v-4.336c0-.843.139-1.445.416-1.808.277-.373.725-.56 1.344-.56.544 0 .923.17 1.136.512.213.33.32.837.32 1.52V55h2.272v-5.088c0-.512-.048-.976-.144-1.392-.085-.427-.24-.784-.464-1.072a2.123 2.123 0 00-.928-.688c-.384-.17-.88-.256-1.488-.256-.48 0-.949.112-1.408.336-.459.213-.832.56-1.12 1.04h-.048v-1.152h-2.16zm15.356 4.112c0 .341-.032.672-.096.992-.064.32-.17.608-.32.864a1.7 1.7 0 01-.608.592c-.245.15-.554.224-.928.224-.352 0-.656-.075-.912-.224a2.265 2.265 0 01-.624-.608 2.838 2.838 0 01-.352-.864 4.25 4.25 0 01-.112-.96c0-.341.032-.667.096-.976a2.89 2.89 0 01.336-.848c.16-.245.368-.443.624-.592.256-.15.571-.224.944-.224.374 0 .683.075.928.224.246.15.443.347.592.592.16.235.272.512.336.832.064.31.096.635.096.976zm.032 3.104V55h2.16V43.576h-2.272v4.16h-.032a2.38 2.38 0 00-1.056-.912 3.133 3.133 0 00-1.392-.32c-.608 0-1.141.123-1.6.368a3.44 3.44 0 00-1.152.944 4.397 4.397 0 00-.688 1.376 5.697 5.697 0 00-.224 1.6c0 .576.075 1.13.224 1.664.16.533.39 1.008.688 1.424.31.405.699.73 1.168.976.47.235 1.014.352 1.632.352.544 0 1.03-.096 1.456-.288.438-.203.79-.528 1.056-.976h.032zm11.211-7.216v-2.48h-2.272v2.48h-1.376v1.52h1.376v4.88c0 .416.069.752.208 1.008.138.256.325.453.56.592.245.139.522.23.832.272.32.053.656.08 1.008.08.224 0 .453-.005.688-.016.234-.01.448-.032.64-.064v-1.76a3.226 3.226 0 01-.336.048c-.118.01-.24.016-.368.016-.384 0-.64-.064-.768-.192s-.192-.384-.192-.768v-4.096h1.664v-1.52h-1.664zm2.745-3.152V55h2.272v-4.336c0-.843.138-1.445.416-1.808.277-.373.725-.56 1.344-.56.544 0 .922.17 1.136.512.213.33.32.837.32 1.52V55h2.272v-5.088c0-.512-.048-.976-.144-1.392-.086-.427-.24-.784-.464-1.072a2.13 2.13 0 00-.928-.688c-.384-.17-.88-.256-1.488-.256-.427 0-.864.112-1.312.336-.448.213-.816.56-1.104 1.04h-.048v-4.304h-2.272zm15.052 6.4h-3.696a2.99 2.99 0 01.096-.544 1.86 1.86 0 01.304-.576c.149-.181.341-.33.576-.448.245-.128.549-.192.912-.192.555 0 .965.15 1.232.448.277.299.469.736.576 1.312zm-3.696 1.44h5.968a5.84 5.84 0 00-.16-1.84 4.425 4.425 0 00-.736-1.568 3.526 3.526 0 00-1.28-1.088c-.523-.277-1.136-.416-1.84-.416-.629 0-1.205.112-1.728.336a4.026 4.026 0 00-1.328.928 3.98 3.98 0 00-.864 1.376 4.817 4.817 0 00-.304 1.728c0 .64.096 1.227.288 1.76a4.1 4.1 0 00.848 1.376c.363.384.805.683 1.328.896.523.203 1.109.304 1.76.304.939 0 1.739-.213 2.4-.64.661-.427 1.152-1.136 1.472-2.128h-2c-.075.256-.277.501-.608.736-.331.224-.725.336-1.184.336-.64 0-1.131-.165-1.472-.496-.341-.33-.528-.864-.56-1.6zm17.833-.544c0 .341-.038.672-.112.992a2.64 2.64 0 01-.352.848c-.16.245-.363.443-.608.592-.235.139-.523.208-.864.208-.331 0-.619-.07-.864-.208a1.888 1.888 0 01-.608-.592 2.618 2.618 0 01-.352-.848 4.333 4.333 0 01-.112-.992c0-.352.037-.688.112-1.008.074-.32.192-.603.352-.848.16-.245.362-.437.608-.576.245-.15.533-.224.864-.224.341 0 .629.075.864.224.245.139.448.33.608.576.16.245.277.528.352.848.074.32.112.656.112 1.008zm-6.064-7.296V55h2.16v-1.056h.032a2.07 2.07 0 001.088.976c.48.192 1.024.288 1.632.288.416 0 .826-.085 1.232-.256.405-.17.768-.432 1.088-.784.33-.352.597-.8.8-1.344.202-.555.304-1.21.304-1.968 0-.757-.102-1.408-.304-1.952-.203-.555-.47-1.008-.8-1.36a3.082 3.082 0 00-1.088-.784 3.151 3.151 0 00-1.232-.256c-.512 0-1.008.101-1.488.304-.47.192-.843.501-1.12.928h-.032v-4.16h-2.272zm11.797 7.296c0-.33.032-.656.096-.976a2.6 2.6 0 01.32-.848c.16-.245.368-.443.624-.592.256-.16.576-.24.96-.24s.704.08.96.24c.267.15.475.347.624.592.16.245.272.528.336.848a4.964 4.964 0 010 1.952c-.064.31-.176.592-.336.848a1.663 1.663 0 01-.624.592c-.256.15-.576.224-.96.224s-.704-.075-.96-.224a1.843 1.843 0 01-.624-.592 2.802 2.802 0 01-.32-.848 4.964 4.964 0 01-.096-.976zm-2.272 0c0 .661.101 1.259.304 1.792.203.533.491.992.864 1.376a3.83 3.83 0 001.344.864c.523.203 1.109.304 1.76.304s1.237-.101 1.76-.304c.533-.203.987-.49 1.36-.864a3.98 3.98 0 00.864-1.376c.203-.533.304-1.13.304-1.792 0-.661-.101-1.259-.304-1.792a3.79 3.79 0 00-.864-1.376 3.701 3.701 0 00-1.36-.88c-.523-.213-1.109-.32-1.76-.32s-1.237.107-1.76.32a3.79 3.79 0 00-2.208 2.256c-.203.533-.304 1.13-.304 1.792zm14.117 5.152l3.456-9.296h-2.352l-1.808 5.664h-.032l-1.872-5.664h-2.416l2.896 7.76c.064.16.096.33.096.512 0 .245-.074.47-.224.672-.138.203-.357.32-.656.352-.224.01-.448.005-.672-.016l-.656-.064v1.872c.235.021.464.037.688.048a7.8 7.8 0 00.704.032c.779 0 1.387-.144 1.824-.432.438-.288.779-.768 1.024-1.44zm5.977-3.712h-2.16c.021.555.144 1.019.368 1.392.235.363.528.656.88.88.363.224.773.384 1.232.48a6.857 6.857 0 002.784 0 3.39 3.39 0 001.216-.464 2.57 2.57 0 00.848-.88c.224-.373.336-.832.336-1.376 0-.384-.075-.704-.224-.96a1.945 1.945 0 00-.592-.656 3.02 3.02 0 00-.848-.432 9.028 9.028 0 00-.96-.272c-.32-.075-.635-.144-.944-.208a9.444 9.444 0 01-.832-.208 1.838 1.838 0 01-.576-.32.624.624 0 01-.224-.496c0-.17.043-.304.128-.4a.821.821 0 01.304-.24 1.34 1.34 0 01.416-.096c.149-.021.288-.032.416-.032.405 0 .757.08 1.056.24.299.15.464.443.496.88h2.16c-.043-.512-.176-.933-.4-1.264a2.48 2.48 0 00-.816-.816 3.447 3.447 0 00-1.136-.432 6.679 6.679 0 00-2.608 0 3.369 3.369 0 00-1.152.416 2.298 2.298 0 00-.832.8c-.203.341-.304.779-.304 1.312 0 .363.075.672.224.928.149.245.347.453.592.624.245.16.523.293.832.4.32.096.645.181.976.256.811.17 1.44.341 1.888.512.459.17.688.427.688.768a.878.878 0 01-.144.512 1.195 1.195 0 01-.368.32 1.963 1.963 0 01-.48.176 2.693 2.693 0 01-1.152-.032 1.791 1.791 0 01-.544-.24 1.551 1.551 0 01-.4-.432 1.35 1.35 0 01-.144-.64z" fill="#25394E"/><defs><linearGradient id="paint0_linear_928_3950" x1="0" y1="0" x2="62.917" y2="185.716" gradientUnits="userSpaceOnUse"><stop stop-color="#E8E8E8"/><stop offset="1" stop-color="#FAFAFA"/></linearGradient></defs></svg>