<svg width="220" height="93" viewBox="0 0 220 93" fill="none" xmlns="http://www.w3.org/2000/svg">
<path d="M0 20C0 8.95431 8.95431 0 20 0H200C211.046 0 220 8.95431 220 20V60C220 71.0457 211.046 80 200 80H45.0681C40.4947 80 36.0746 81.5846 32.4097 84.3205C28.1987 87.464 22.6327 91.3608 19.5 92.5C19.9205 92.1636 20.2703 91.5867 20.5612 90.8598C22.8186 85.2196 17.0751 80 11 80C4.92487 80 0 75.0751 0 69V20Z" fill="url(#paint0_linear_928_3950)"/>
<path d="M19.744 24.728V22.248H17.472V24.728H16.096V26.248H17.472V31.128C17.472 31.544 17.5413 31.88 17.68 32.136C17.8187 32.392 18.0053 32.5893 18.24 32.728C18.4853 32.8667 18.7627 32.9573 19.072 33C19.392 33.0533 19.728 33.08 20.08 33.08C20.304 33.08 20.5333 33.0747 20.768 33.064C21.0027 33.0533 21.216 33.032 21.408 33V31.24C21.3013 31.2613 21.1893 31.2773 21.072 31.288C20.9547 31.2987 20.832 31.304 20.704 31.304C20.32 31.304 20.064 31.24 19.936 31.112C19.808 30.984 19.744 30.728 19.744 30.344V26.248H21.408V24.728H19.744ZM22.489 21.576V33H24.761V28.664C24.761 27.8213 24.8997 27.2187 25.177 26.856C25.4543 26.4827 25.9023 26.296 26.521 26.296C27.065 26.296 27.4437 26.4667 27.657 26.808C27.8703 27.1387 27.977 27.6453 27.977 28.328V33H30.249V27.912C30.249 27.4 30.201 26.936 30.105 26.52C30.0197 26.0933 29.865 25.736 29.641 25.448C29.417 25.1493 29.1077 24.92 28.713 24.76C28.329 24.5893 27.833 24.504 27.225 24.504C26.7983 24.504 26.361 24.616 25.913 24.84C25.465 25.0533 25.097 25.4 24.809 25.88H24.761V21.576H22.489ZM34.3094 23.448V21.576H32.0374V23.448H34.3094ZM32.0374 24.728V33H34.3094V24.728H32.0374ZM37.8584 30.312H35.6984C35.7197 30.8667 35.8424 31.3307 36.0664 31.704C36.301 32.0667 36.5944 32.36 36.9464 32.584C37.309 32.808 37.7197 32.968 38.1784 33.064C38.637 33.16 39.1064 33.208 39.5864 33.208C40.0557 33.208 40.5144 33.16 40.9624 33.064C41.421 32.9787 41.8264 32.824 42.1784 32.6C42.5304 32.376 42.813 32.0827 43.0264 31.72C43.2504 31.3467 43.3624 30.888 43.3624 30.344C43.3624 29.96 43.2877 29.64 43.1384 29.384C42.989 29.1173 42.7917 28.8987 42.5464 28.728C42.301 28.5467 42.0184 28.4027 41.6984 28.296C41.389 28.1893 41.069 28.0987 40.7384 28.024C40.4184 27.9493 40.1037 27.88 39.7944 27.816C39.485 27.752 39.2077 27.6827 38.9624 27.608C38.7277 27.5227 38.5357 27.416 38.3864 27.288C38.237 27.16 38.1624 26.9947 38.1624 26.792C38.1624 26.6213 38.205 26.488 38.2904 26.392C38.3757 26.2853 38.477 26.2053 38.5944 26.152C38.7224 26.0987 38.861 26.0667 39.0104 26.056C39.1597 26.0347 39.2984 26.024 39.4264 26.024C39.8317 26.024 40.1837 26.104 40.4824 26.264C40.781 26.4133 40.9464 26.7067 40.9784 27.144H43.1384C43.0957 26.632 42.9624 26.2107 42.7384 25.88C42.525 25.5387 42.253 25.2667 41.9224 25.064C41.5917 24.8613 41.213 24.7173 40.7864 24.632C40.3704 24.5467 39.9384 24.504 39.4904 24.504C39.0424 24.504 38.605 24.5467 38.1784 24.632C37.7517 24.7067 37.3677 24.8453 37.0264 25.048C36.685 25.24 36.4077 25.5067 36.1944 25.848C35.9917 26.1893 35.8904 26.6267 35.8904 27.16C35.8904 27.5227 35.965 27.832 36.1144 28.088C36.2637 28.3333 36.461 28.5413 36.7064 28.712C36.9517 28.872 37.229 29.0053 37.5384 29.112C37.8584 29.208 38.1837 29.2933 38.5144 29.368C39.325 29.5387 39.9544 29.7093 40.4024 29.88C40.861 30.0507 41.0904 30.3067 41.0904 30.648C41.0904 30.8507 41.0424 31.0213 40.9464 31.16C40.8504 31.288 40.7277 31.3947 40.5784 31.48C40.4397 31.5547 40.2797 31.6133 40.0984 31.656C39.9277 31.688 39.7624 31.704 39.6024 31.704C39.3784 31.704 39.1597 31.6773 38.9464 31.624C38.7437 31.5707 38.5624 31.4907 38.4024 31.384C38.2424 31.2667 38.109 31.1227 38.0024 30.952C37.9064 30.7707 37.8584 30.5573 37.8584 30.312ZM51.4813 23.448V21.576H49.2093V23.448H51.4813ZM49.2093 24.728V33H51.4813V24.728H49.2093ZM55.0303 30.312H52.8703C52.8916 30.8667 53.0143 31.3307 53.2383 31.704C53.4729 32.0667 53.7663 32.36 54.1183 32.584C54.4809 32.808 54.8916 32.968 55.3503 33.064C55.8089 33.16 56.2783 33.208 56.7583 33.208C57.2276 33.208 57.6863 33.16 58.1343 33.064C58.5929 32.9787 58.9983 32.824 59.3503 32.6C59.7023 32.376 59.9849 32.0827 60.1983 31.72C60.4223 31.3467 60.5343 30.888 60.5343 30.344C60.5343 29.96 60.4596 29.64 60.3103 29.384C60.1609 29.1173 59.9636 28.8987 59.7183 28.728C59.4729 28.5467 59.1903 28.4027 58.8703 28.296C58.5609 28.1893 58.2409 28.0987 57.9103 28.024C57.5903 27.9493 57.2756 27.88 56.9663 27.816C56.6569 27.752 56.3796 27.6827 56.1343 27.608C55.8996 27.5227 55.7076 27.416 55.5583 27.288C55.4089 27.16 55.3343 26.9947 55.3343 26.792C55.3343 26.6213 55.3769 26.488 55.4623 26.392C55.5476 26.2853 55.6489 26.2053 55.7663 26.152C55.8943 26.0987 56.0329 26.0667 56.1823 26.056C56.3316 26.0347 56.4703 26.024 56.5983 26.024C57.0036 26.024 57.3556 26.104 57.6543 26.264C57.9529 26.4133 58.1183 26.7067 58.1503 27.144H60.3103C60.2676 26.632 60.1343 26.2107 59.9103 25.88C59.6969 25.5387 59.4249 25.2667 59.0943 25.064C58.7636 24.8613 58.3849 24.7173 57.9583 24.632C57.5423 24.5467 57.1103 24.504 56.6623 24.504C56.2143 24.504 55.7769 24.5467 55.3503 24.632C54.9236 24.7067 54.5396 24.8453 54.1983 25.048C53.8569 25.24 53.5796 25.5067 53.3663 25.848C53.1636 26.1893 53.0623 26.6267 53.0623 27.16C53.0623 27.5227 53.1369 27.832 53.2863 28.088C53.4356 28.3333 53.6329 28.5413 53.8783 28.712C54.1236 28.872 54.4009 29.0053 54.7103 29.112C55.0303 29.208 55.3556 29.2933 55.6863 29.368C56.4969 29.5387 57.1263 29.7093 57.5743 29.88C58.0329 30.0507 58.2623 30.3067 58.2623 30.648C58.2623 30.8507 58.2143 31.0213 58.1183 31.16C58.0223 31.288 57.8996 31.3947 57.7503 31.48C57.6116 31.5547 57.4516 31.6133 57.2703 31.656C57.0996 31.688 56.9343 31.704 56.7743 31.704C56.5503 31.704 56.3316 31.6773 56.1183 31.624C55.9156 31.5707 55.7343 31.4907 55.5743 31.384C55.4143 31.2667 55.2809 31.1227 55.1743 30.952C55.0783 30.7707 55.0303 30.5573 55.0303 30.312ZM69.1971 24.728V22.248H66.9251V24.728H65.5491V26.248H66.9251V31.128C66.9251 31.544 66.9945 31.88 67.1331 32.136C67.2718 32.392 67.4585 32.5893 67.6931 32.728C67.9385 32.8667 68.2158 32.9573 68.5251 33C68.8451 33.0533 69.1811 33.08 69.5331 33.08C69.7571 33.08 69.9865 33.0747 70.2211 33.064C70.4558 33.0533 70.6691 33.032 70.8611 33V31.24C70.7545 31.2613 70.6425 31.2773 70.5251 31.288C70.4078 31.2987 70.2851 31.304 70.1571 31.304C69.7731 31.304 69.5171 31.24 69.3891 31.112C69.2611 30.984 69.1971 30.728 69.1971 30.344V26.248H70.8611V24.728H69.1971ZM71.9421 21.576V33H74.2141V28.664C74.2141 27.8213 74.3528 27.2187 74.6301 26.856C74.9075 26.4827 75.3555 26.296 75.9741 26.296C76.5181 26.296 76.8968 26.4667 77.1101 26.808C77.3235 27.1387 77.4301 27.6453 77.4301 28.328V33H79.7021V27.912C79.7021 27.4 79.6541 26.936 79.5581 26.52C79.4728 26.0933 79.3181 25.736 79.0941 25.448C78.8701 25.1493 78.5608 24.92 78.1661 24.76C77.7821 24.5893 77.2861 24.504 76.6781 24.504C76.2515 24.504 75.8141 24.616 75.3661 24.84C74.9181 25.0533 74.5501 25.4 74.2621 25.88H74.2141V21.576H71.9421ZM86.9945 27.976H83.2985C83.3092 27.816 83.3412 27.6347 83.3945 27.432C83.4585 27.2293 83.5598 27.0373 83.6985 26.856C83.8478 26.6747 84.0398 26.5253 84.2745 26.408C84.5198 26.28 84.8238 26.216 85.1865 26.216C85.7412 26.216 86.1518 26.3653 86.4185 26.664C86.6958 26.9627 86.8878 27.4 86.9945 27.976ZM83.2985 29.416H89.2665C89.3092 28.776 89.2558 28.1627 89.1065 27.576C88.9572 26.9893 88.7118 26.4667 88.3705 26.008C88.0398 25.5493 87.6132 25.1867 87.0905 24.92C86.5678 24.6427 85.9545 24.504 85.2505 24.504C84.6212 24.504 84.0452 24.616 83.5225 24.84C83.0105 25.064 82.5678 25.3733 82.1945 25.768C81.8212 26.152 81.5332 26.6107 81.3305 27.144C81.1278 27.6773 81.0265 28.2533 81.0265 28.872C81.0265 29.512 81.1225 30.0987 81.3145 30.632C81.5172 31.1653 81.7998 31.624 82.1625 32.008C82.5252 32.392 82.9678 32.6907 83.4905 32.904C84.0132 33.1067 84.5998 33.208 85.2505 33.208C86.1892 33.208 86.9892 32.9947 87.6505 32.568C88.3118 32.1413 88.8025 31.432 89.1225 30.44H87.1225C87.0478 30.696 86.8452 30.9413 86.5145 31.176C86.1838 31.4 85.7892 31.512 85.3305 31.512C84.6905 31.512 84.1998 31.3467 83.8585 31.016C83.5172 30.6853 83.3305 30.152 83.2985 29.416ZM97.0831 28.872C97.0831 28.5413 97.1151 28.216 97.1791 27.896C97.2431 27.576 97.3498 27.2933 97.4991 27.048C97.6591 26.8027 97.8671 26.6053 98.1231 26.456C98.3791 26.296 98.6991 26.216 99.0831 26.216C99.4671 26.216 99.7871 26.296 100.043 26.456C100.31 26.6053 100.518 26.8027 100.667 27.048C100.827 27.2933 100.939 27.576 101.003 27.896C101.067 28.216 101.099 28.5413 101.099 28.872C101.099 29.2027 101.067 29.528 101.003 29.848C100.939 30.1573 100.827 30.44 100.667 30.696C100.518 30.9413 100.31 31.1387 100.043 31.288C99.7871 31.4373 99.4671 31.512 99.0831 31.512C98.6991 31.512 98.3791 31.4373 98.1231 31.288C97.8671 31.1387 97.6591 30.9413 97.4991 30.696C97.3498 30.44 97.2431 30.1573 97.1791 29.848C97.1151 29.528 97.0831 29.2027 97.0831 28.872ZM94.8111 28.872C94.8111 29.5333 94.9125 30.1307 95.1151 30.664C95.3178 31.1973 95.6058 31.656 95.9791 32.04C96.3525 32.4133 96.8005 32.7013 97.3231 32.904C97.8458 33.1067 98.4325 33.208 99.0831 33.208C99.7338 33.208 100.32 33.1067 100.843 32.904C101.376 32.7013 101.83 32.4133 102.203 32.04C102.576 31.656 102.864 31.1973 103.067 30.664C103.27 30.1307 103.371 29.5333 103.371 28.872C103.371 28.2107 103.27 27.6133 103.067 27.08C102.864 26.536 102.576 26.0773 102.203 25.704C101.83 25.32 101.376 25.0267 100.843 24.824C100.32 24.6107 99.7338 24.504 99.0831 24.504C98.4325 24.504 97.8458 24.6107 97.3231 24.824C96.8005 25.0267 96.3525 25.32 95.9791 25.704C95.6058 26.0773 95.3178 26.536 95.1151 27.08C94.9125 27.6133 94.8111 28.2107 94.8111 28.872ZM104.848 24.728V33H107.12V28.664C107.12 27.8213 107.259 27.2187 107.536 26.856C107.814 26.4827 108.262 26.296 108.88 26.296C109.424 26.296 109.803 26.4667 110.016 26.808C110.23 27.1387 110.336 27.6453 110.336 28.328V33H112.608V27.912C112.608 27.4 112.56 26.936 112.464 26.52C112.379 26.0933 112.224 25.736 112 25.448C111.776 25.1493 111.467 24.92 111.072 24.76C110.688 24.5893 110.192 24.504 109.584 24.504C109.104 24.504 108.635 24.616 108.176 24.84C107.718 25.0533 107.344 25.4 107.056 25.88H107.008V24.728H104.848ZM114.397 21.576V33H116.669V21.576H114.397ZM122.538 34.024L125.994 24.728H123.642L121.834 30.392H121.802L119.93 24.728H117.514L120.41 32.488C120.474 32.648 120.506 32.8187 120.506 33C120.506 33.2453 120.431 33.4693 120.282 33.672C120.143 33.8747 119.924 33.992 119.626 34.024C119.402 34.0347 119.178 34.0293 118.954 34.008C118.73 33.9867 118.511 33.9653 118.298 33.944V35.816C118.532 35.8373 118.762 35.8533 118.986 35.864C119.22 35.8853 119.455 35.896 119.69 35.896C120.468 35.896 121.076 35.752 121.514 35.464C121.951 35.176 122.292 34.696 122.538 34.024ZM134.088 24.728V22.248H131.816V24.728H130.44V26.248H131.816V31.128C131.816 31.544 131.885 31.88 132.024 32.136C132.162 32.392 132.349 32.5893 132.584 32.728C132.829 32.8667 133.106 32.9573 133.416 33C133.736 33.0533 134.072 33.08 134.424 33.08C134.648 33.08 134.877 33.0747 135.112 33.064C135.346 33.0533 135.56 33.032 135.752 33V31.24C135.645 31.2613 135.533 31.2773 135.416 31.288C135.298 31.2987 135.176 31.304 135.048 31.304C134.664 31.304 134.408 31.24 134.28 31.112C134.152 30.984 134.088 30.728 134.088 30.344V26.248H135.752V24.728H134.088ZM136.833 21.576V33H139.105V28.664C139.105 27.8213 139.243 27.2187 139.521 26.856C139.798 26.4827 140.246 26.296 140.865 26.296C141.409 26.296 141.787 26.4667 142.001 26.808C142.214 27.1387 142.321 27.6453 142.321 28.328V33H144.593V27.912C144.593 27.4 144.545 26.936 144.449 26.52C144.363 26.0933 144.209 25.736 143.985 25.448C143.761 25.1493 143.451 24.92 143.057 24.76C142.673 24.5893 142.177 24.504 141.569 24.504C141.142 24.504 140.705 24.616 140.257 24.84C139.809 25.0533 139.441 25.4 139.153 25.88H139.105V21.576H136.833ZM148.653 23.448V21.576H146.381V23.448H148.653ZM146.381 24.728V33H148.653V24.728H146.381ZM150.442 24.728V33H152.714V28.664C152.714 27.8213 152.853 27.2187 153.13 26.856C153.407 26.4827 153.855 26.296 154.474 26.296C155.018 26.296 155.397 26.4667 155.61 26.808C155.823 27.1387 155.93 27.6453 155.93 28.328V33H158.202V27.912C158.202 27.4 158.154 26.936 158.058 26.52C157.973 26.0933 157.818 25.736 157.594 25.448C157.37 25.1493 157.061 24.92 156.666 24.76C156.282 24.5893 155.786 24.504 155.178 24.504C154.698 24.504 154.229 24.616 153.77 24.84C153.311 25.0533 152.938 25.4 152.65 25.88H152.602V24.728H150.442ZM163.783 31.048C163.431 31.048 163.137 30.9733 162.903 30.824C162.668 30.6747 162.476 30.4827 162.327 30.248C162.188 30.0133 162.087 29.752 162.023 29.464C161.969 29.1653 161.943 28.8667 161.943 28.568C161.943 28.2587 161.975 27.9653 162.039 27.688C162.113 27.4 162.225 27.1493 162.375 26.936C162.535 26.712 162.727 26.536 162.951 26.408C163.185 26.28 163.463 26.216 163.783 26.216C164.156 26.216 164.465 26.2853 164.711 26.424C164.956 26.5627 165.153 26.7493 165.303 26.984C165.452 27.2187 165.559 27.4907 165.623 27.8C165.687 28.0987 165.719 28.4187 165.719 28.76C165.719 29.0587 165.676 29.3467 165.591 29.624C165.516 29.8907 165.399 30.1307 165.239 30.344C165.079 30.5573 164.876 30.728 164.631 30.856C164.385 30.984 164.103 31.048 163.783 31.048ZM167.878 32.472V24.728H165.719V25.832H165.687C165.409 25.352 165.063 25.0107 164.647 24.808C164.241 24.6053 163.767 24.504 163.223 24.504C162.647 24.504 162.135 24.616 161.687 24.84C161.249 25.064 160.881 25.368 160.583 25.752C160.284 26.1253 160.055 26.5627 159.895 27.064C159.745 27.5547 159.671 28.0667 159.671 28.6C159.671 29.1653 159.735 29.704 159.863 30.216C160.001 30.7173 160.215 31.16 160.503 31.544C160.791 31.9173 161.159 32.216 161.607 32.44C162.055 32.6533 162.588 32.76 163.207 32.76C163.708 32.76 164.183 32.6587 164.631 32.456C165.089 32.2427 165.441 31.9173 165.687 31.48H165.719V32.568C165.729 33.1547 165.585 33.64 165.287 34.024C164.999 34.408 164.535 34.6 163.895 34.6C163.489 34.6 163.132 34.5147 162.823 34.344C162.513 34.184 162.305 33.8907 162.199 33.464H159.943C159.975 33.9333 160.103 34.3333 160.327 34.664C160.561 35.0053 160.849 35.2827 161.191 35.496C161.543 35.7093 161.927 35.864 162.343 35.96C162.769 36.0667 163.185 36.12 163.591 36.12C164.54 36.12 165.297 35.992 165.863 35.736C166.428 35.48 166.86 35.1653 167.159 34.792C167.457 34.4293 167.649 34.0347 167.735 33.608C167.831 33.1813 167.878 32.8027 167.878 32.472ZM176.497 23.448V21.576H174.225V23.448H176.497ZM174.225 24.728V33H176.497V24.728H174.225ZM22.928 50.872C22.928 51.2133 22.8907 51.544 22.816 51.864C22.7413 52.184 22.624 52.4667 22.464 52.712C22.304 52.9573 22.1013 53.1547 21.856 53.304C21.6213 53.4427 21.3333 53.512 20.992 53.512C20.6613 53.512 20.3733 53.4427 20.128 53.304C19.8827 53.1547 19.68 52.9573 19.52 52.712C19.36 52.4667 19.2427 52.184 19.168 51.864C19.0933 51.544 19.056 51.2133 19.056 50.872C19.056 50.52 19.0933 50.184 19.168 49.864C19.2427 49.544 19.36 49.2613 19.52 49.016C19.68 48.7707 19.8827 48.5787 20.128 48.44C20.3733 48.2907 20.6613 48.216 20.992 48.216C21.3333 48.216 21.6213 48.2907 21.856 48.44C22.1013 48.5787 22.304 48.7707 22.464 49.016C22.624 49.2613 22.7413 49.544 22.816 49.864C22.8907 50.184 22.928 50.52 22.928 50.872ZM16.864 43.576V55H19.024V53.944H19.056C19.3013 54.4027 19.664 54.728 20.144 54.92C20.624 55.112 21.168 55.208 21.776 55.208C22.192 55.208 22.6027 55.1227 23.008 54.952C23.4133 54.7813 23.776 54.52 24.096 54.168C24.4267 53.816 24.6933 53.368 24.896 52.824C25.0987 52.2693 25.2 51.6133 25.2 50.856C25.2 50.0987 25.0987 49.448 24.896 48.904C24.6933 48.3493 24.4267 47.896 24.096 47.544C23.776 47.192 23.4133 46.9307 23.008 46.76C22.6027 46.5893 22.192 46.504 21.776 46.504C21.264 46.504 20.768 46.6053 20.288 46.808C19.8187 47 19.4453 47.3093 19.168 47.736H19.136V43.576H16.864ZM34.4053 55V46.728H32.1333V51.064C32.1333 51.9067 31.9946 52.5147 31.7173 52.888C31.4399 53.2507 30.9919 53.432 30.3733 53.432C29.8293 53.432 29.4506 53.2667 29.2373 52.936C29.0239 52.5947 28.9173 52.0827 28.9173 51.4V46.728H26.6453V51.816C26.6453 52.328 26.6879 52.7973 26.7733 53.224C26.8693 53.64 27.0293 53.9973 27.2533 54.296C27.4773 54.584 27.7813 54.808 28.1653 54.968C28.5599 55.128 29.0613 55.208 29.6693 55.208C30.1493 55.208 30.6186 55.1013 31.0773 54.888C31.5359 54.6747 31.9093 54.328 32.1973 53.848H32.2453V55H34.4053ZM40.2096 56.024L43.6656 46.728H41.3136L39.5056 52.392H39.4736L37.6016 46.728H35.1856L38.0816 54.488C38.1456 54.648 38.1776 54.8187 38.1776 55C38.1776 55.2453 38.103 55.4693 37.9536 55.672C37.815 55.8747 37.5963 55.992 37.2976 56.024C37.0736 56.0347 36.8496 56.0293 36.6256 56.008C36.4016 55.9867 36.183 55.9653 35.9696 55.944V57.816C36.2043 57.8373 36.4336 57.8533 36.6576 57.864C36.8923 57.8853 37.127 57.896 37.3616 57.896C38.1403 57.896 38.7483 57.752 39.1856 57.464C39.623 57.176 39.9643 56.696 40.2096 56.024ZM49.3756 48.248V55H51.6476V48.248H53.2156V46.728H51.6476V46.232C51.6476 45.8907 51.7116 45.6507 51.8396 45.512C51.9783 45.3627 52.2023 45.288 52.5116 45.288C52.7996 45.288 53.077 45.304 53.3436 45.336V43.64C53.1516 43.6293 52.9543 43.6187 52.7516 43.608C52.549 43.5867 52.3463 43.576 52.1436 43.576C51.2156 43.576 50.5223 43.8107 50.0636 44.28C49.605 44.7493 49.3756 45.352 49.3756 46.088V46.728H48.0156V48.248H49.3756ZM56.2238 50.872C56.2238 50.5413 56.2558 50.216 56.3198 49.896C56.3838 49.576 56.4904 49.2933 56.6398 49.048C56.7998 48.8027 57.0078 48.6053 57.2638 48.456C57.5198 48.296 57.8398 48.216 58.2238 48.216C58.6078 48.216 58.9278 48.296 59.1838 48.456C59.4504 48.6053 59.6584 48.8027 59.8078 49.048C59.9678 49.2933 60.0798 49.576 60.1438 49.896C60.2078 50.216 60.2398 50.5413 60.2398 50.872C60.2398 51.2027 60.2078 51.528 60.1438 51.848C60.0798 52.1573 59.9678 52.44 59.8078 52.696C59.6584 52.9413 59.4504 53.1387 59.1838 53.288C58.9278 53.4373 58.6078 53.512 58.2238 53.512C57.8398 53.512 57.5198 53.4373 57.2638 53.288C57.0078 53.1387 56.7998 52.9413 56.6398 52.696C56.4904 52.44 56.3838 52.1573 56.3198 51.848C56.2558 51.528 56.2238 51.2027 56.2238 50.872ZM53.9518 50.872C53.9518 51.5333 54.0531 52.1307 54.2558 52.664C54.4584 53.1973 54.7464 53.656 55.1198 54.04C55.4931 54.4133 55.9411 54.7013 56.4638 54.904C56.9864 55.1067 57.5731 55.208 58.2238 55.208C58.8744 55.208 59.4611 55.1067 59.9838 54.904C60.5171 54.7013 60.9704 54.4133 61.3438 54.04C61.7171 53.656 62.0051 53.1973 62.2078 52.664C62.4104 52.1307 62.5118 51.5333 62.5118 50.872C62.5118 50.2107 62.4104 49.6133 62.2078 49.08C62.0051 48.536 61.7171 48.0773 61.3438 47.704C60.9704 47.32 60.5171 47.0267 59.9838 46.824C59.4611 46.6107 58.8744 46.504 58.2238 46.504C57.5731 46.504 56.9864 46.6107 56.4638 46.824C55.9411 47.0267 55.4931 47.32 55.1198 47.704C54.7464 48.0773 54.4584 48.536 54.2558 49.08C54.0531 49.6133 53.9518 50.2107 53.9518 50.872ZM63.989 46.728V55H66.261V51.272C66.261 50.8987 66.2983 50.552 66.373 50.232C66.4477 49.912 66.5703 49.6347 66.741 49.4C66.9223 49.1547 67.157 48.9627 67.445 48.824C67.733 48.6853 68.085 48.616 68.501 48.616C68.6397 48.616 68.7837 48.6267 68.933 48.648C69.0823 48.6587 69.2103 48.6747 69.317 48.696V46.584C69.1357 46.5307 68.9703 46.504 68.821 46.504C68.533 46.504 68.2557 46.5467 67.989 46.632C67.7223 46.7173 67.4717 46.84 67.237 47C67.0023 47.1493 66.7943 47.336 66.613 47.56C66.4317 47.7733 66.2877 48.008 66.181 48.264H66.149V46.728H63.989ZM74.7249 46.728V55H76.9969V50.2C76.9969 49.7947 77.0555 49.4693 77.1729 49.224C77.2902 48.968 77.4289 48.776 77.5889 48.648C77.7595 48.5093 77.9302 48.4187 78.1009 48.376C78.2822 48.3227 78.4262 48.296 78.5329 48.296C78.8955 48.296 79.1675 48.36 79.3489 48.488C79.5409 48.6053 79.6742 48.7653 79.7489 48.968C79.8342 49.1707 79.8822 49.3947 79.8929 49.64C79.9035 49.8747 79.9089 50.1147 79.9089 50.36V55H82.1809V50.392C82.1809 50.136 82.1969 49.8853 82.2289 49.64C82.2715 49.384 82.3462 49.16 82.4529 48.968C82.5702 48.7653 82.7249 48.6053 82.9169 48.488C83.1195 48.36 83.3809 48.296 83.7009 48.296C84.0209 48.296 84.2715 48.3493 84.4529 48.456C84.6449 48.5627 84.7889 48.7067 84.8849 48.888C84.9809 49.0693 85.0395 49.2827 85.0609 49.528C85.0822 49.7733 85.0929 50.0347 85.0929 50.312V55H87.3649V49.464C87.3649 48.9307 87.2902 48.4773 87.1409 48.104C86.9915 47.72 86.7835 47.4107 86.5169 47.176C86.2502 46.9413 85.9302 46.7707 85.5569 46.664C85.1835 46.5573 84.7782 46.504 84.3409 46.504C83.7649 46.504 83.2635 46.6427 82.8369 46.92C82.4209 47.1973 82.0902 47.5173 81.8449 47.88C81.6209 47.368 81.2902 47.0107 80.8529 46.808C80.4262 46.6053 79.9515 46.504 79.4289 46.504C78.8849 46.504 78.3995 46.6213 77.9729 46.856C77.5569 47.0907 77.1995 47.4213 76.9009 47.848H76.8689V46.728H74.7249ZM94.7289 49.976H91.0329C91.0435 49.816 91.0755 49.6347 91.1289 49.432C91.1929 49.2293 91.2942 49.0373 91.4329 48.856C91.5822 48.6747 91.7742 48.5253 92.0089 48.408C92.2542 48.28 92.5582 48.216 92.9209 48.216C93.4755 48.216 93.8862 48.3653 94.1529 48.664C94.4302 48.9627 94.6222 49.4 94.7289 49.976ZM91.0329 51.416H97.0009C97.0435 50.776 96.9902 50.1627 96.8409 49.576C96.6915 48.9893 96.4462 48.4667 96.1049 48.008C95.7742 47.5493 95.3475 47.1867 94.8249 46.92C94.3022 46.6427 93.6889 46.504 92.9849 46.504C92.3555 46.504 91.7795 46.616 91.2569 46.84C90.7449 47.064 90.3022 47.3733 89.9289 47.768C89.5555 48.152 89.2675 48.6107 89.0649 49.144C88.8622 49.6773 88.7609 50.2533 88.7609 50.872C88.7609 51.512 88.8569 52.0987 89.0489 52.632C89.2515 53.1653 89.5342 53.624 89.8969 54.008C90.2595 54.392 90.7022 54.6907 91.2249 54.904C91.7475 55.1067 92.3342 55.208 92.9849 55.208C93.9235 55.208 94.7235 54.9947 95.3849 54.568C96.0462 54.1413 96.5369 53.432 96.8569 52.44H94.8569C94.7822 52.696 94.5795 52.9413 94.2489 53.176C93.9182 53.4 93.5235 53.512 93.0649 53.512C92.4249 53.512 91.9342 53.3467 91.5929 53.016C91.2515 52.6853 91.0649 52.152 91.0329 51.416ZM102.706 49.272C102.738 48.7387 102.871 48.296 103.106 47.944C103.34 47.592 103.639 47.3093 104.002 47.096C104.364 46.8827 104.77 46.7333 105.218 46.648C105.676 46.552 106.135 46.504 106.594 46.504C107.01 46.504 107.431 46.536 107.858 46.6C108.284 46.6533 108.674 46.7653 109.026 46.936C109.378 47.1067 109.666 47.3467 109.89 47.656C110.114 47.9547 110.226 48.3547 110.226 48.856V53.16C110.226 53.5333 110.247 53.8907 110.29 54.232C110.332 54.5733 110.407 54.8293 110.514 55H108.21C108.167 54.872 108.13 54.744 108.098 54.616C108.076 54.4773 108.06 54.3387 108.05 54.2C107.687 54.5733 107.26 54.8347 106.77 54.984C106.279 55.1333 105.778 55.208 105.266 55.208C104.871 55.208 104.503 55.16 104.162 55.064C103.82 54.968 103.522 54.8187 103.266 54.616C103.01 54.4133 102.807 54.1573 102.658 53.848C102.519 53.5387 102.45 53.1707 102.45 52.744C102.45 52.2747 102.53 51.8907 102.69 51.592C102.86 51.2827 103.074 51.0373 103.33 50.856C103.596 50.6747 103.895 50.5413 104.226 50.456C104.567 50.36 104.908 50.2853 105.25 50.232C105.591 50.1787 105.927 50.136 106.258 50.104C106.588 50.072 106.882 50.024 107.138 49.96C107.394 49.896 107.596 49.8053 107.746 49.688C107.895 49.56 107.964 49.3787 107.954 49.144C107.954 48.8987 107.911 48.7067 107.826 48.568C107.751 48.4187 107.644 48.3067 107.506 48.232C107.378 48.1467 107.223 48.0933 107.042 48.072C106.871 48.04 106.684 48.024 106.482 48.024C106.034 48.024 105.682 48.12 105.426 48.312C105.17 48.504 105.02 48.824 104.978 49.272H102.706ZM107.954 50.952C107.858 51.0373 107.735 51.1067 107.586 51.16C107.447 51.2027 107.292 51.24 107.122 51.272C106.962 51.304 106.791 51.3307 106.61 51.352C106.428 51.3733 106.247 51.4 106.066 51.432C105.895 51.464 105.724 51.5067 105.554 51.56C105.394 51.6133 105.25 51.688 105.122 51.784C105.004 51.8693 104.908 51.9813 104.834 52.12C104.759 52.2587 104.722 52.4347 104.722 52.648C104.722 52.8507 104.759 53.0213 104.834 53.16C104.908 53.2987 105.01 53.4107 105.138 53.496C105.266 53.5707 105.415 53.624 105.586 53.656C105.756 53.688 105.932 53.704 106.114 53.704C106.562 53.704 106.908 53.6293 107.154 53.48C107.399 53.3307 107.58 53.1547 107.698 52.952C107.815 52.7387 107.884 52.5253 107.906 52.312C107.938 52.0987 107.954 51.928 107.954 51.8V50.952ZM111.989 46.728V55H114.261V50.664C114.261 49.8213 114.4 49.2187 114.677 48.856C114.954 48.4827 115.402 48.296 116.021 48.296C116.565 48.296 116.944 48.4667 117.157 48.808C117.37 49.1387 117.477 49.6453 117.477 50.328V55H119.749V49.912C119.749 49.4 119.701 48.936 119.605 48.52C119.52 48.0933 119.365 47.736 119.141 47.448C118.917 47.1493 118.608 46.92 118.213 46.76C117.829 46.5893 117.333 46.504 116.725 46.504C116.245 46.504 115.776 46.616 115.317 46.84C114.858 47.0533 114.485 47.4 114.197 47.88H114.149V46.728H111.989ZM127.345 50.84C127.345 51.1813 127.313 51.512 127.249 51.832C127.185 52.152 127.079 52.44 126.929 52.696C126.78 52.9413 126.577 53.1387 126.321 53.288C126.076 53.4373 125.767 53.512 125.393 53.512C125.041 53.512 124.737 53.4373 124.481 53.288C124.236 53.128 124.028 52.9253 123.857 52.68C123.697 52.424 123.58 52.136 123.505 51.816C123.431 51.496 123.393 51.176 123.393 50.856C123.393 50.5147 123.425 50.1893 123.489 49.88C123.564 49.56 123.676 49.2773 123.825 49.032C123.985 48.7867 124.193 48.5893 124.449 48.44C124.705 48.2907 125.02 48.216 125.393 48.216C125.767 48.216 126.076 48.2907 126.321 48.44C126.567 48.5893 126.764 48.7867 126.913 49.032C127.073 49.2667 127.185 49.544 127.249 49.864C127.313 50.1733 127.345 50.4987 127.345 50.84ZM127.377 53.944V55H129.537V43.576H127.265V47.736H127.233C126.977 47.3307 126.625 47.0267 126.177 46.824C125.74 46.6107 125.276 46.504 124.785 46.504C124.177 46.504 123.644 46.6267 123.185 46.872C122.727 47.1067 122.343 47.4213 122.033 47.816C121.735 48.2107 121.505 48.6693 121.345 49.192C121.196 49.704 121.121 50.2373 121.121 50.792C121.121 51.368 121.196 51.9227 121.345 52.456C121.505 52.9893 121.735 53.464 122.033 53.88C122.343 54.2853 122.732 54.6107 123.201 54.856C123.671 55.0907 124.215 55.208 124.833 55.208C125.377 55.208 125.863 55.112 126.289 54.92C126.727 54.7173 127.079 54.392 127.345 53.944H127.377ZM138.588 46.728V44.248H136.316V46.728H134.94V48.248H136.316V53.128C136.316 53.544 136.385 53.88 136.524 54.136C136.662 54.392 136.849 54.5893 137.084 54.728C137.329 54.8667 137.606 54.9573 137.916 55C138.236 55.0533 138.572 55.08 138.924 55.08C139.148 55.08 139.377 55.0747 139.612 55.064C139.846 55.0533 140.06 55.032 140.252 55V53.24C140.145 53.2613 140.033 53.2773 139.916 53.288C139.798 53.2987 139.676 53.304 139.548 53.304C139.164 53.304 138.908 53.24 138.78 53.112C138.652 52.984 138.588 52.728 138.588 52.344V48.248H140.252V46.728H138.588ZM141.333 43.576V55H143.605V50.664C143.605 49.8213 143.743 49.2187 144.021 48.856C144.298 48.4827 144.746 48.296 145.365 48.296C145.909 48.296 146.287 48.4667 146.501 48.808C146.714 49.1387 146.821 49.6453 146.821 50.328V55H149.093V49.912C149.093 49.4 149.045 48.936 148.949 48.52C148.863 48.0933 148.709 47.736 148.485 47.448C148.261 47.1493 147.951 46.92 147.557 46.76C147.173 46.5893 146.677 46.504 146.069 46.504C145.642 46.504 145.205 46.616 144.757 46.84C144.309 47.0533 143.941 47.4 143.653 47.88H143.605V43.576H141.333ZM156.385 49.976H152.689C152.7 49.816 152.732 49.6347 152.785 49.432C152.849 49.2293 152.95 49.0373 153.089 48.856C153.238 48.6747 153.43 48.5253 153.665 48.408C153.91 48.28 154.214 48.216 154.577 48.216C155.132 48.216 155.542 48.3653 155.809 48.664C156.086 48.9627 156.278 49.4 156.385 49.976ZM152.689 51.416H158.657C158.7 50.776 158.646 50.1627 158.497 49.576C158.348 48.9893 158.102 48.4667 157.761 48.008C157.43 47.5493 157.004 47.1867 156.481 46.92C155.958 46.6427 155.345 46.504 154.641 46.504C154.012 46.504 153.436 46.616 152.913 46.84C152.401 47.064 151.958 47.3733 151.585 47.768C151.212 48.152 150.924 48.6107 150.721 49.144C150.518 49.6773 150.417 50.2533 150.417 50.872C150.417 51.512 150.513 52.0987 150.705 52.632C150.908 53.1653 151.19 53.624 151.553 54.008C151.916 54.392 152.358 54.6907 152.881 54.904C153.404 55.1067 153.99 55.208 154.641 55.208C155.58 55.208 156.38 54.9947 157.041 54.568C157.702 54.1413 158.193 53.432 158.513 52.44H156.513C156.438 52.696 156.236 52.9413 155.905 53.176C155.574 53.4 155.18 53.512 154.721 53.512C154.081 53.512 153.59 53.3467 153.249 53.016C152.908 52.6853 152.721 52.152 152.689 51.416ZM170.522 50.872C170.522 51.2133 170.484 51.544 170.41 51.864C170.335 52.184 170.218 52.4667 170.058 52.712C169.898 52.9573 169.695 53.1547 169.45 53.304C169.215 53.4427 168.927 53.512 168.586 53.512C168.255 53.512 167.967 53.4427 167.722 53.304C167.476 53.1547 167.274 52.9573 167.114 52.712C166.954 52.4667 166.836 52.184 166.762 51.864C166.687 51.544 166.65 51.2133 166.65 50.872C166.65 50.52 166.687 50.184 166.762 49.864C166.836 49.544 166.954 49.2613 167.114 49.016C167.274 48.7707 167.476 48.5787 167.722 48.44C167.967 48.2907 168.255 48.216 168.586 48.216C168.927 48.216 169.215 48.2907 169.45 48.44C169.695 48.5787 169.898 48.7707 170.058 49.016C170.218 49.2613 170.335 49.544 170.41 49.864C170.484 50.184 170.522 50.52 170.522 50.872ZM164.458 43.576V55H166.618V53.944H166.65C166.895 54.4027 167.258 54.728 167.738 54.92C168.218 55.112 168.762 55.208 169.37 55.208C169.786 55.208 170.196 55.1227 170.602 54.952C171.007 54.7813 171.37 54.52 171.69 54.168C172.02 53.816 172.287 53.368 172.49 52.824C172.692 52.2693 172.794 51.6133 172.794 50.856C172.794 50.0987 172.692 49.448 172.49 48.904C172.287 48.3493 172.02 47.896 171.69 47.544C171.37 47.192 171.007 46.9307 170.602 46.76C170.196 46.5893 169.786 46.504 169.37 46.504C168.858 46.504 168.362 46.6053 167.882 46.808C167.412 47 167.039 47.3093 166.762 47.736H166.73V43.576H164.458ZM176.255 50.872C176.255 50.5413 176.287 50.216 176.351 49.896C176.415 49.576 176.522 49.2933 176.671 49.048C176.831 48.8027 177.039 48.6053 177.295 48.456C177.551 48.296 177.871 48.216 178.255 48.216C178.639 48.216 178.959 48.296 179.215 48.456C179.482 48.6053 179.69 48.8027 179.839 49.048C179.999 49.2933 180.111 49.576 180.175 49.896C180.239 50.216 180.271 50.5413 180.271 50.872C180.271 51.2027 180.239 51.528 180.175 51.848C180.111 52.1573 179.999 52.44 179.839 52.696C179.69 52.9413 179.482 53.1387 179.215 53.288C178.959 53.4373 178.639 53.512 178.255 53.512C177.871 53.512 177.551 53.4373 177.295 53.288C177.039 53.1387 176.831 52.9413 176.671 52.696C176.522 52.44 176.415 52.1573 176.351 51.848C176.287 51.528 176.255 51.2027 176.255 50.872ZM173.983 50.872C173.983 51.5333 174.084 52.1307 174.287 52.664C174.49 53.1973 174.778 53.656 175.151 54.04C175.524 54.4133 175.972 54.7013 176.495 54.904C177.018 55.1067 177.604 55.208 178.255 55.208C178.906 55.208 179.492 55.1067 180.015 54.904C180.548 54.7013 181.002 54.4133 181.375 54.04C181.748 53.656 182.036 53.1973 182.239 52.664C182.442 52.1307 182.543 51.5333 182.543 50.872C182.543 50.2107 182.442 49.6133 182.239 49.08C182.036 48.536 181.748 48.0773 181.375 47.704C181.002 47.32 180.548 47.0267 180.015 46.824C179.492 46.6107 178.906 46.504 178.255 46.504C177.604 46.504 177.018 46.6107 176.495 46.824C175.972 47.0267 175.524 47.32 175.151 47.704C174.778 48.0773 174.49 48.536 174.287 49.08C174.084 49.6133 173.983 50.2107 173.983 50.872ZM188.1 56.024L191.556 46.728H189.204L187.396 52.392H187.364L185.492 46.728H183.076L185.972 54.488C186.036 54.648 186.068 54.8187 186.068 55C186.068 55.2453 185.994 55.4693 185.844 55.672C185.706 55.8747 185.487 55.992 185.188 56.024C184.964 56.0347 184.74 56.0293 184.516 56.008C184.292 55.9867 184.074 55.9653 183.86 55.944V57.816C184.095 57.8373 184.324 57.8533 184.548 57.864C184.783 57.8853 185.018 57.896 185.252 57.896C186.031 57.896 186.639 57.752 187.076 57.464C187.514 57.176 187.855 56.696 188.1 56.024ZM194.077 52.312H191.917C191.938 52.8667 192.061 53.3307 192.285 53.704C192.52 54.0667 192.813 54.36 193.165 54.584C193.528 54.808 193.938 54.968 194.397 55.064C194.856 55.16 195.325 55.208 195.805 55.208C196.274 55.208 196.733 55.16 197.181 55.064C197.64 54.9787 198.045 54.824 198.397 54.6C198.749 54.376 199.032 54.0827 199.245 53.72C199.469 53.3467 199.581 52.888 199.581 52.344C199.581 51.96 199.506 51.64 199.357 51.384C199.208 51.1173 199.01 50.8987 198.765 50.728C198.52 50.5467 198.237 50.4027 197.917 50.296C197.608 50.1893 197.288 50.0987 196.957 50.024C196.637 49.9493 196.322 49.88 196.013 49.816C195.704 49.752 195.426 49.6827 195.181 49.608C194.946 49.5227 194.754 49.416 194.605 49.288C194.456 49.16 194.381 48.9947 194.381 48.792C194.381 48.6213 194.424 48.488 194.509 48.392C194.594 48.2853 194.696 48.2053 194.813 48.152C194.941 48.0987 195.08 48.0667 195.229 48.056C195.378 48.0347 195.517 48.024 195.645 48.024C196.05 48.024 196.402 48.104 196.701 48.264C197 48.4133 197.165 48.7067 197.197 49.144H199.357C199.314 48.632 199.181 48.2107 198.957 47.88C198.744 47.5387 198.472 47.2667 198.141 47.064C197.81 46.8613 197.432 46.7173 197.005 46.632C196.589 46.5467 196.157 46.504 195.709 46.504C195.261 46.504 194.824 46.5467 194.397 46.632C193.97 46.7067 193.586 46.8453 193.245 47.048C192.904 47.24 192.626 47.5067 192.413 47.848C192.21 48.1893 192.109 48.6267 192.109 49.16C192.109 49.5227 192.184 49.832 192.333 50.088C192.482 50.3333 192.68 50.5413 192.925 50.712C193.17 50.872 193.448 51.0053 193.757 51.112C194.077 51.208 194.402 51.2933 194.733 51.368C195.544 51.5387 196.173 51.7093 196.621 51.88C197.08 52.0507 197.309 52.3067 197.309 52.648C197.309 52.8507 197.261 53.0213 197.165 53.16C197.069 53.288 196.946 53.3947 196.797 53.48C196.658 53.5547 196.498 53.6133 196.317 53.656C196.146 53.688 195.981 53.704 195.821 53.704C195.597 53.704 195.378 53.6773 195.165 53.624C194.962 53.5707 194.781 53.4907 194.621 53.384C194.461 53.2667 194.328 53.1227 194.221 52.952C194.125 52.7707 194.077 52.5573 194.077 52.312Z" fill="#25394E"/>
<defs>
<linearGradient id="paint0_linear_928_3950" x1="0" y1="0" x2="62.9167" y2="185.716" gradientUnits="userSpaceOnUse">
<stop stop-color="#E8E8E8"/>
<stop offset="1" stop-color="#FAFAFA"/>
</linearGradient>
</defs>
</svg>
