<svg width="220" height="89" viewBox="0 0 220 89" fill="none" xmlns="http://www.w3.org/2000/svg">
<path d="M0 20C0 8.95431 8.95431 0 20 0H200C211.046 0 220 8.95431 220 20V56C220 67.0457 211.046 76 200 76H45.0681C40.4947 76 36.0746 77.5846 32.4097 80.3205C28.1987 83.464 22.6327 87.3608 19.5 88.5C19.9205 88.1636 20.2703 87.5867 20.5612 86.8598C22.8186 81.2196 17.0751 76 11 76C4.92487 76 0 71.0751 0 65V20Z" fill="url(#paint0_linear_928_3959)"/>
<path d="M24.624 28.312H22.464C22.4853 28.8667 22.608 29.3307 22.832 29.704C23.0667 30.0667 23.36 30.36 23.712 30.584C24.0747 30.808 24.4853 30.968 24.944 31.064C25.4027 31.16 25.872 31.208 26.352 31.208C26.8213 31.208 27.28 31.16 27.728 31.064C28.1867 30.9787 28.592 30.824 28.944 30.6C29.296 30.376 29.5787 30.0827 29.792 29.72C30.016 29.3467 30.128 28.888 30.128 28.344C30.128 27.96 30.0533 27.64 29.904 27.384C29.7547 27.1173 29.5573 26.8987 29.312 26.728C29.0667 26.5467 28.784 26.4027 28.464 26.296C28.1547 26.1893 27.8347 26.0987 27.504 26.024C27.184 25.9493 26.8693 25.88 26.56 25.816C26.2507 25.752 25.9733 25.6827 25.728 25.608C25.4933 25.5227 25.3013 25.416 25.152 25.288C25.0027 25.16 24.928 24.9947 24.928 24.792C24.928 24.6213 24.9707 24.488 25.056 24.392C25.1413 24.2853 25.2427 24.2053 25.36 24.152C25.488 24.0987 25.6267 24.0667 25.776 24.056C25.9253 24.0347 26.064 24.024 26.192 24.024C26.5973 24.024 26.9493 24.104 27.248 24.264C27.5467 24.4133 27.712 24.7067 27.744 25.144H29.904C29.8613 24.632 29.728 24.2107 29.504 23.88C29.2907 23.5387 29.0187 23.2667 28.688 23.064C28.3573 22.8613 27.9787 22.7173 27.552 22.632C27.136 22.5467 26.704 22.504 26.256 22.504C25.808 22.504 25.3707 22.5467 24.944 22.632C24.5173 22.7067 24.1333 22.8453 23.792 23.048C23.4507 23.24 23.1733 23.5067 22.96 23.848C22.7573 24.1893 22.656 24.6267 22.656 25.16C22.656 25.5227 22.7307 25.832 22.88 26.088C23.0293 26.3333 23.2267 26.5413 23.472 26.712C23.7173 26.872 23.9947 27.0053 24.304 27.112C24.624 27.208 24.9493 27.2933 25.28 27.368C26.0907 27.5387 26.72 27.7093 27.168 27.88C27.6267 28.0507 27.856 28.3067 27.856 28.648C27.856 28.8507 27.808 29.0213 27.712 29.16C27.616 29.288 27.4933 29.3947 27.344 29.48C27.2053 29.5547 27.0453 29.6133 26.864 29.656C26.6933 29.688 26.528 29.704 26.368 29.704C26.144 29.704 25.9253 29.6773 25.712 29.624C25.5093 29.5707 25.328 29.4907 25.168 29.384C25.008 29.2667 24.8747 29.1227 24.768 28.952C24.672 28.7707 24.624 28.5573 24.624 28.312ZM39.2178 31V22.728H36.9458V27.064C36.9458 27.9067 36.8071 28.5147 36.5298 28.888C36.2524 29.2507 35.8044 29.432 35.1858 29.432C34.6418 29.432 34.2631 29.2667 34.0498 28.936C33.8364 28.5947 33.7298 28.0827 33.7298 27.4V22.728H31.4578V27.816C31.4578 28.328 31.5004 28.7973 31.5858 29.224C31.6818 29.64 31.8418 29.9973 32.0658 30.296C32.2898 30.584 32.5938 30.808 32.9778 30.968C33.3724 31.128 33.8738 31.208 34.4818 31.208C34.9618 31.208 35.4311 31.1013 35.8898 30.888C36.3484 30.6747 36.7218 30.328 37.0098 29.848H37.0578V31H39.2178ZM40.9421 22.728V31H43.2141V26.664C43.2141 25.8213 43.3528 25.2187 43.6301 24.856C43.9075 24.4827 44.3555 24.296 44.9741 24.296C45.5181 24.296 45.8968 24.4667 46.1101 24.808C46.3235 25.1387 46.4301 25.6453 46.4301 26.328V31H48.7021V25.912C48.7021 25.4 48.6541 24.936 48.5581 24.52C48.4728 24.0933 48.3181 23.736 48.0941 23.448C47.8701 23.1493 47.5608 22.92 47.1661 22.76C46.7821 22.5893 46.2861 22.504 45.6781 22.504C45.1981 22.504 44.7288 22.616 44.2701 22.84C43.8115 23.0533 43.4381 23.4 43.1501 23.88H43.1021V22.728H40.9421ZM56.2985 26.84C56.2985 27.1813 56.2665 27.512 56.2025 27.832C56.1385 28.152 56.0318 28.44 55.8825 28.696C55.7332 28.9413 55.5305 29.1387 55.2745 29.288C55.0292 29.4373 54.7198 29.512 54.3465 29.512C53.9945 29.512 53.6905 29.4373 53.4345 29.288C53.1892 29.128 52.9812 28.9253 52.8105 28.68C52.6505 28.424 52.5332 28.136 52.4585 27.816C52.3838 27.496 52.3465 27.176 52.3465 26.856C52.3465 26.5147 52.3785 26.1893 52.4425 25.88C52.5172 25.56 52.6292 25.2773 52.7785 25.032C52.9385 24.7867 53.1465 24.5893 53.4025 24.44C53.6585 24.2907 53.9732 24.216 54.3465 24.216C54.7198 24.216 55.0292 24.2907 55.2745 24.44C55.5198 24.5893 55.7172 24.7867 55.8665 25.032C56.0265 25.2667 56.1385 25.544 56.2025 25.864C56.2665 26.1733 56.2985 26.4987 56.2985 26.84ZM56.3305 29.944V31H58.4905V19.576H56.2185V23.736H56.1865C55.9305 23.3307 55.5785 23.0267 55.1305 22.824C54.6932 22.6107 54.2292 22.504 53.7385 22.504C53.1305 22.504 52.5972 22.6267 52.1385 22.872C51.6798 23.1067 51.2958 23.4213 50.9865 23.816C50.6878 24.2107 50.4585 24.6693 50.2985 25.192C50.1492 25.704 50.0745 26.2373 50.0745 26.792C50.0745 27.368 50.1492 27.9227 50.2985 28.456C50.4585 28.9893 50.6878 29.464 50.9865 29.88C51.2958 30.2853 51.6852 30.6107 52.1545 30.856C52.6238 31.0907 53.1678 31.208 53.7865 31.208C54.3305 31.208 54.8158 31.112 55.2425 30.92C55.6798 30.7173 56.0318 30.392 56.2985 29.944H56.3305ZM60.1118 25.272C60.1438 24.7387 60.2771 24.296 60.5118 23.944C60.7464 23.592 61.0451 23.3093 61.4078 23.096C61.7704 22.8827 62.1758 22.7333 62.6238 22.648C63.0824 22.552 63.5411 22.504 63.9998 22.504C64.4158 22.504 64.8371 22.536 65.2638 22.6C65.6904 22.6533 66.0798 22.7653 66.4318 22.936C66.7838 23.1067 67.0718 23.3467 67.2958 23.656C67.5198 23.9547 67.6318 24.3547 67.6318 24.856V29.16C67.6318 29.5333 67.6531 29.8907 67.6958 30.232C67.7384 30.5733 67.8131 30.8293 67.9198 31H65.6158C65.5731 30.872 65.5358 30.744 65.5038 30.616C65.4824 30.4773 65.4664 30.3387 65.4558 30.2C65.0931 30.5733 64.6664 30.8347 64.1758 30.984C63.6851 31.1333 63.1838 31.208 62.6718 31.208C62.2771 31.208 61.9091 31.16 61.5678 31.064C61.2264 30.968 60.9278 30.8187 60.6718 30.616C60.4158 30.4133 60.2131 30.1573 60.0638 29.848C59.9251 29.5387 59.8558 29.1707 59.8558 28.744C59.8558 28.2747 59.9358 27.8907 60.0958 27.592C60.2664 27.2827 60.4798 27.0373 60.7358 26.856C61.0024 26.6747 61.3011 26.5413 61.6318 26.456C61.9731 26.36 62.3144 26.2853 62.6558 26.232C62.9971 26.1787 63.3331 26.136 63.6638 26.104C63.9944 26.072 64.2878 26.024 64.5438 25.96C64.7998 25.896 65.0024 25.8053 65.1518 25.688C65.3011 25.56 65.3704 25.3787 65.3598 25.144C65.3598 24.8987 65.3171 24.7067 65.2318 24.568C65.1571 24.4187 65.0504 24.3067 64.9118 24.232C64.7838 24.1467 64.6291 24.0933 64.4478 24.072C64.2771 24.04 64.0904 24.024 63.8878 24.024C63.4398 24.024 63.0878 24.12 62.8318 24.312C62.5758 24.504 62.4264 24.824 62.3838 25.272H60.1118ZM65.3598 26.952C65.2638 27.0373 65.1411 27.1067 64.9918 27.16C64.8531 27.2027 64.6984 27.24 64.5278 27.272C64.3678 27.304 64.1971 27.3307 64.0158 27.352C63.8344 27.3733 63.6531 27.4 63.4718 27.432C63.3011 27.464 63.1304 27.5067 62.9598 27.56C62.7998 27.6133 62.6558 27.688 62.5278 27.784C62.4104 27.8693 62.3144 27.9813 62.2398 28.12C62.1651 28.2587 62.1278 28.4347 62.1278 28.648C62.1278 28.8507 62.1651 29.0213 62.2398 29.16C62.3144 29.2987 62.4158 29.4107 62.5438 29.496C62.6718 29.5707 62.8211 29.624 62.9918 29.656C63.1624 29.688 63.3384 29.704 63.5198 29.704C63.9678 29.704 64.3144 29.6293 64.5598 29.48C64.8051 29.3307 64.9864 29.1547 65.1038 28.952C65.2211 28.7387 65.2904 28.5253 65.3118 28.312C65.3438 28.0987 65.3598 27.928 65.3598 27.8V26.952ZM73.4753 32.024L76.9313 22.728H74.5793L72.7713 28.392H72.7393L70.8673 22.728H68.4512L71.3473 30.488C71.4113 30.648 71.4433 30.8187 71.4433 31C71.4433 31.2453 71.3686 31.4693 71.2193 31.672C71.0806 31.8747 70.8619 31.992 70.5633 32.024C70.3393 32.0347 70.1153 32.0293 69.8913 32.008C69.6673 31.9867 69.4486 31.9653 69.2353 31.944V33.816C69.4699 33.8373 69.6993 33.8533 69.9233 33.864C70.1579 33.8853 70.3926 33.896 70.6273 33.896C71.4059 33.896 72.0139 33.752 72.4513 33.464C72.8886 33.176 73.2299 32.696 73.4753 32.024ZM82.6413 24.248V31H84.9133V24.248H86.4813V22.728H84.9133V22.232C84.9133 21.8907 84.9773 21.6507 85.1053 21.512C85.2439 21.3627 85.4679 21.288 85.7773 21.288C86.0653 21.288 86.3426 21.304 86.6093 21.336V19.64C86.4173 19.6293 86.2199 19.6187 86.0173 19.608C85.8146 19.5867 85.6119 19.576 85.4093 19.576C84.4813 19.576 83.7879 19.8107 83.3293 20.28C82.8706 20.7493 82.6413 21.352 82.6413 22.088V22.728H81.2812V24.248H82.6413ZM95.2334 31V22.728H92.9614V27.064C92.9614 27.9067 92.8227 28.5147 92.5454 28.888C92.268 29.2507 91.82 29.432 91.2014 29.432C90.6574 29.432 90.2787 29.2667 90.0654 28.936C89.852 28.5947 89.7454 28.0827 89.7454 27.4V22.728H87.4734V27.816C87.4734 28.328 87.516 28.7973 87.6014 29.224C87.6974 29.64 87.8574 29.9973 88.0814 30.296C88.3054 30.584 88.6094 30.808 88.9934 30.968C89.388 31.128 89.8894 31.208 90.4974 31.208C90.9774 31.208 91.4467 31.1013 91.9054 30.888C92.364 30.6747 92.7374 30.328 93.0254 29.848H93.0734V31H95.2334ZM96.9578 22.728V31H99.2298V26.664C99.2298 25.8213 99.3684 25.2187 99.6458 24.856C99.9231 24.4827 100.371 24.296 100.99 24.296C101.534 24.296 101.912 24.4667 102.126 24.808C102.339 25.1387 102.446 25.6453 102.446 26.328V31H104.718V25.912C104.718 25.4 104.67 24.936 104.574 24.52C104.488 24.0933 104.334 23.736 104.11 23.448C103.886 23.1493 103.576 22.92 103.182 22.76C102.798 22.5893 102.302 22.504 101.694 22.504C101.214 22.504 100.744 22.616 100.286 22.84C99.8271 23.0533 99.4538 23.4 99.1658 23.88H99.1178V22.728H96.9578ZM112.314 26.84C112.314 27.1813 112.282 27.512 112.218 27.832C112.154 28.152 112.047 28.44 111.898 28.696C111.749 28.9413 111.546 29.1387 111.29 29.288C111.045 29.4373 110.735 29.512 110.362 29.512C110.01 29.512 109.706 29.4373 109.45 29.288C109.205 29.128 108.997 28.9253 108.826 28.68C108.666 28.424 108.549 28.136 108.474 27.816C108.399 27.496 108.362 27.176 108.362 26.856C108.362 26.5147 108.394 26.1893 108.458 25.88C108.533 25.56 108.645 25.2773 108.794 25.032C108.954 24.7867 109.162 24.5893 109.418 24.44C109.674 24.2907 109.989 24.216 110.362 24.216C110.735 24.216 111.045 24.2907 111.29 24.44C111.535 24.5893 111.733 24.7867 111.882 25.032C112.042 25.2667 112.154 25.544 112.218 25.864C112.282 26.1733 112.314 26.4987 112.314 26.84ZM112.346 29.944V31H114.506V19.576H112.234V23.736H112.202C111.946 23.3307 111.594 23.0267 111.146 22.824C110.709 22.6107 110.245 22.504 109.754 22.504C109.146 22.504 108.613 22.6267 108.154 22.872C107.695 23.1067 107.311 23.4213 107.002 23.816C106.703 24.2107 106.474 24.6693 106.314 25.192C106.165 25.704 106.09 26.2373 106.09 26.792C106.09 27.368 106.165 27.9227 106.314 28.456C106.474 28.9893 106.703 29.464 107.002 29.88C107.311 30.2853 107.701 30.6107 108.17 30.856C108.639 31.0907 109.183 31.208 109.802 31.208C110.346 31.208 110.831 31.112 111.258 30.92C111.695 30.7173 112.047 30.392 112.314 29.944H112.346ZM116.127 25.272C116.159 24.7387 116.293 24.296 116.527 23.944C116.762 23.592 117.061 23.3093 117.423 23.096C117.786 22.8827 118.191 22.7333 118.639 22.648C119.098 22.552 119.557 22.504 120.015 22.504C120.431 22.504 120.853 22.536 121.279 22.6C121.706 22.6533 122.095 22.7653 122.447 22.936C122.799 23.1067 123.087 23.3467 123.311 23.656C123.535 23.9547 123.647 24.3547 123.647 24.856V29.16C123.647 29.5333 123.669 29.8907 123.711 30.232C123.754 30.5733 123.829 30.8293 123.935 31H121.631C121.589 30.872 121.551 30.744 121.519 30.616C121.498 30.4773 121.482 30.3387 121.471 30.2C121.109 30.5733 120.682 30.8347 120.191 30.984C119.701 31.1333 119.199 31.208 118.687 31.208C118.293 31.208 117.925 31.16 117.583 31.064C117.242 30.968 116.943 30.8187 116.687 30.616C116.431 30.4133 116.229 30.1573 116.079 29.848C115.941 29.5387 115.871 29.1707 115.871 28.744C115.871 28.2747 115.951 27.8907 116.111 27.592C116.282 27.2827 116.495 27.0373 116.751 26.856C117.018 26.6747 117.317 26.5413 117.647 26.456C117.989 26.36 118.33 26.2853 118.671 26.232C119.013 26.1787 119.349 26.136 119.679 26.104C120.01 26.072 120.303 26.024 120.559 25.96C120.815 25.896 121.018 25.8053 121.167 25.688C121.317 25.56 121.386 25.3787 121.375 25.144C121.375 24.8987 121.333 24.7067 121.247 24.568C121.173 24.4187 121.066 24.3067 120.927 24.232C120.799 24.1467 120.645 24.0933 120.463 24.072C120.293 24.04 120.106 24.024 119.903 24.024C119.455 24.024 119.103 24.12 118.847 24.312C118.591 24.504 118.442 24.824 118.399 25.272H116.127ZM121.375 26.952C121.279 27.0373 121.157 27.1067 121.007 27.16C120.869 27.2027 120.714 27.24 120.543 27.272C120.383 27.304 120.213 27.3307 120.031 27.352C119.85 27.3733 119.669 27.4 119.487 27.432C119.317 27.464 119.146 27.5067 118.975 27.56C118.815 27.6133 118.671 27.688 118.543 27.784C118.426 27.8693 118.33 27.9813 118.255 28.12C118.181 28.2587 118.143 28.4347 118.143 28.648C118.143 28.8507 118.181 29.0213 118.255 29.16C118.33 29.2987 118.431 29.4107 118.559 29.496C118.687 29.5707 118.837 29.624 119.007 29.656C119.178 29.688 119.354 29.704 119.535 29.704C119.983 29.704 120.33 29.6293 120.575 29.48C120.821 29.3307 121.002 29.1547 121.119 28.952C121.237 28.7387 121.306 28.5253 121.327 28.312C121.359 28.0987 121.375 27.928 121.375 27.8V26.952ZM129.491 32.024L132.947 22.728H130.595L128.787 28.392H128.755L126.883 22.728H124.467L127.363 30.488C127.427 30.648 127.459 30.8187 127.459 31C127.459 31.2453 127.384 31.4693 127.235 31.672C127.096 31.8747 126.878 31.992 126.579 32.024C126.355 32.0347 126.131 32.0293 125.907 32.008C125.683 31.9867 125.464 31.9653 125.251 31.944V33.816C125.486 33.8373 125.715 33.8533 125.939 33.864C126.174 33.8853 126.408 33.896 126.643 33.896C127.422 33.896 128.03 33.752 128.467 33.464C128.904 33.176 129.246 32.696 129.491 32.024ZM147.617 31L150.225 22.728H147.889L146.369 28.328H146.337L144.929 22.728H142.721L141.345 28.344H141.313L139.793 22.728H137.393L140.017 31H142.369L143.777 25.448H143.809L145.281 31H147.617ZM153.528 21.448V19.576H151.256V21.448H153.528ZM151.256 22.728V31H153.528V22.728H151.256ZM158.197 22.728V20.248H155.925V22.728H154.549V24.248H155.925V29.128C155.925 29.544 155.994 29.88 156.133 30.136C156.272 30.392 156.458 30.5893 156.693 30.728C156.938 30.8667 157.216 30.9573 157.525 31C157.845 31.0533 158.181 31.08 158.533 31.08C158.757 31.08 158.986 31.0747 159.221 31.064C159.456 31.0533 159.669 31.032 159.861 31V29.24C159.754 29.2613 159.642 29.2773 159.525 29.288C159.408 29.2987 159.285 29.304 159.157 29.304C158.773 29.304 158.517 29.24 158.389 29.112C158.261 28.984 158.197 28.728 158.197 28.344V24.248H159.861V22.728H158.197ZM160.942 19.576V31H163.214V26.664C163.214 25.8213 163.353 25.2187 163.63 24.856C163.907 24.4827 164.355 24.296 164.974 24.296C165.518 24.296 165.897 24.4667 166.11 24.808C166.323 25.1387 166.43 25.6453 166.43 26.328V31H168.702V25.912C168.702 25.4 168.654 24.936 168.558 24.52C168.473 24.0933 168.318 23.736 168.094 23.448C167.87 23.1493 167.561 22.92 167.166 22.76C166.782 22.5893 166.286 22.504 165.678 22.504C165.251 22.504 164.814 22.616 164.366 22.84C163.918 23.0533 163.55 23.4 163.262 23.88H163.214V19.576H160.942ZM25.744 44.728V42.248H23.472V44.728H22.096V46.248H23.472V51.128C23.472 51.544 23.5413 51.88 23.68 52.136C23.8187 52.392 24.0053 52.5893 24.24 52.728C24.4853 52.8667 24.7627 52.9573 25.072 53C25.392 53.0533 25.728 53.08 26.08 53.08C26.304 53.08 26.5333 53.0747 26.768 53.064C27.0027 53.0533 27.216 53.032 27.408 53V51.24C27.3013 51.2613 27.1893 51.2773 27.072 51.288C26.9547 51.2987 26.832 51.304 26.704 51.304C26.32 51.304 26.064 51.24 25.936 51.112C25.808 50.984 25.744 50.728 25.744 50.344V46.248H27.408V44.728H25.744ZM28.489 41.576V53H30.761V48.664C30.761 47.8213 30.8997 47.2187 31.177 46.856C31.4543 46.4827 31.9023 46.296 32.521 46.296C33.065 46.296 33.4437 46.4667 33.657 46.808C33.8703 47.1387 33.977 47.6453 33.977 48.328V53H36.249V47.912C36.249 47.4 36.201 46.936 36.105 46.52C36.0197 46.0933 35.865 45.736 35.641 45.448C35.417 45.1493 35.1077 44.92 34.713 44.76C34.329 44.5893 33.833 44.504 33.225 44.504C32.7983 44.504 32.361 44.616 31.913 44.84C31.465 45.0533 31.097 45.4 30.809 45.88H30.761V41.576H28.489ZM43.5414 47.976H39.8454C39.856 47.816 39.888 47.6347 39.9414 47.432C40.0054 47.2293 40.1067 47.0373 40.2454 46.856C40.3947 46.6747 40.5867 46.5253 40.8214 46.408C41.0667 46.28 41.3707 46.216 41.7334 46.216C42.288 46.216 42.6987 46.3653 42.9654 46.664C43.2427 46.9627 43.4347 47.4 43.5414 47.976ZM39.8454 49.416H45.8134C45.856 48.776 45.8027 48.1627 45.6534 47.576C45.504 46.9893 45.2587 46.4667 44.9174 46.008C44.5867 45.5493 44.16 45.1867 43.6374 44.92C43.1147 44.6427 42.5014 44.504 41.7974 44.504C41.168 44.504 40.592 44.616 40.0694 44.84C39.5574 45.064 39.1147 45.3733 38.7414 45.768C38.368 46.152 38.08 46.6107 37.8774 47.144C37.6747 47.6773 37.5734 48.2533 37.5734 48.872C37.5734 49.512 37.6694 50.0987 37.8614 50.632C38.064 51.1653 38.3467 51.624 38.7094 52.008C39.072 52.392 39.5147 52.6907 40.0374 52.904C40.56 53.1067 41.1467 53.208 41.7974 53.208C42.736 53.208 43.536 52.9947 44.1974 52.568C44.8587 52.1413 45.3494 51.432 45.6694 50.44H43.6694C43.5947 50.696 43.392 50.9413 43.0614 51.176C42.7307 51.4 42.336 51.512 41.8774 51.512C41.2374 51.512 40.7467 51.3467 40.4054 51.016C40.064 50.6853 39.8774 50.152 39.8454 49.416ZM57.678 48.872C57.678 49.2133 57.6407 49.544 57.566 49.864C57.4913 50.184 57.374 50.4667 57.214 50.712C57.054 50.9573 56.8513 51.1547 56.606 51.304C56.3713 51.4427 56.0833 51.512 55.742 51.512C55.4113 51.512 55.1233 51.4427 54.878 51.304C54.6327 51.1547 54.43 50.9573 54.27 50.712C54.11 50.4667 53.9927 50.184 53.918 49.864C53.8433 49.544 53.806 49.2133 53.806 48.872C53.806 48.52 53.8433 48.184 53.918 47.864C53.9927 47.544 54.11 47.2613 54.27 47.016C54.43 46.7707 54.6327 46.5787 54.878 46.44C55.1233 46.2907 55.4113 46.216 55.742 46.216C56.0833 46.216 56.3713 46.2907 56.606 46.44C56.8513 46.5787 57.054 46.7707 57.214 47.016C57.374 47.2613 57.4913 47.544 57.566 47.864C57.6407 48.184 57.678 48.52 57.678 48.872ZM51.614 41.576V53H53.774V51.944H53.806C54.0513 52.4027 54.414 52.728 54.894 52.92C55.374 53.112 55.918 53.208 56.526 53.208C56.942 53.208 57.3527 53.1227 57.758 52.952C58.1633 52.7813 58.526 52.52 58.846 52.168C59.1767 51.816 59.4433 51.368 59.646 50.824C59.8487 50.2693 59.95 49.6133 59.95 48.856C59.95 48.0987 59.8487 47.448 59.646 46.904C59.4433 46.3493 59.1767 45.896 58.846 45.544C58.526 45.192 58.1633 44.9307 57.758 44.76C57.3527 44.5893 56.942 44.504 56.526 44.504C56.014 44.504 55.518 44.6053 55.038 44.808C54.5687 45 54.1953 45.3093 53.918 45.736H53.886V41.576H51.614ZM66.9633 47.976H63.2673C63.2779 47.816 63.3099 47.6347 63.3633 47.432C63.4273 47.2293 63.5286 47.0373 63.6673 46.856C63.8166 46.6747 64.0086 46.5253 64.2433 46.408C64.4886 46.28 64.7926 46.216 65.1553 46.216C65.7099 46.216 66.1206 46.3653 66.3873 46.664C66.6646 46.9627 66.8566 47.4 66.9633 47.976ZM63.2673 49.416H69.2353C69.2779 48.776 69.2246 48.1627 69.0753 47.576C68.9259 46.9893 68.6806 46.4667 68.3393 46.008C68.0086 45.5493 67.5819 45.1867 67.0593 44.92C66.5366 44.6427 65.9233 44.504 65.2193 44.504C64.5899 44.504 64.0139 44.616 63.4913 44.84C62.9793 45.064 62.5366 45.3733 62.1633 45.768C61.7899 46.152 61.5019 46.6107 61.2993 47.144C61.0966 47.6773 60.9953 48.2533 60.9953 48.872C60.9953 49.512 61.0913 50.0987 61.2833 50.632C61.4859 51.1653 61.7686 51.624 62.1313 52.008C62.4939 52.392 62.9366 52.6907 63.4593 52.904C63.9819 53.1067 64.5686 53.208 65.2193 53.208C66.1579 53.208 66.9579 52.9947 67.6193 52.568C68.2806 52.1413 68.7713 51.432 69.0913 50.44H67.0913C67.0166 50.696 66.8139 50.9413 66.4833 51.176C66.1526 51.4 65.7579 51.512 65.2993 51.512C64.6593 51.512 64.1686 51.3467 63.8273 51.016C63.4859 50.6853 63.2993 50.152 63.2673 49.416ZM72.3428 50.312H70.1828C70.2041 50.8667 70.3268 51.3307 70.5508 51.704C70.7854 52.0667 71.0788 52.36 71.4308 52.584C71.7934 52.808 72.2041 52.968 72.6628 53.064C73.1214 53.16 73.5908 53.208 74.0708 53.208C74.5401 53.208 74.9988 53.16 75.4468 53.064C75.9054 52.9787 76.3108 52.824 76.6628 52.6C77.0148 52.376 77.2974 52.0827 77.5108 51.72C77.7348 51.3467 77.8468 50.888 77.8468 50.344C77.8468 49.96 77.7721 49.64 77.6228 49.384C77.4734 49.1173 77.2761 48.8987 77.0308 48.728C76.7854 48.5467 76.5028 48.4027 76.1828 48.296C75.8734 48.1893 75.5534 48.0987 75.2228 48.024C74.9028 47.9493 74.5881 47.88 74.2788 47.816C73.9694 47.752 73.6921 47.6827 73.4468 47.608C73.2121 47.5227 73.0201 47.416 72.8708 47.288C72.7214 47.16 72.6468 46.9947 72.6468 46.792C72.6468 46.6213 72.6894 46.488 72.7748 46.392C72.8601 46.2853 72.9614 46.2053 73.0788 46.152C73.2068 46.0987 73.3454 46.0667 73.4948 46.056C73.6441 46.0347 73.7828 46.024 73.9108 46.024C74.3161 46.024 74.6681 46.104 74.9668 46.264C75.2654 46.4133 75.4308 46.7067 75.4628 47.144H77.6228C77.5801 46.632 77.4468 46.2107 77.2228 45.88C77.0094 45.5387 76.7374 45.2667 76.4068 45.064C76.0761 44.8613 75.6974 44.7173 75.2708 44.632C74.8548 44.5467 74.4228 44.504 73.9748 44.504C73.5268 44.504 73.0894 44.5467 72.6628 44.632C72.2361 44.7067 71.8521 44.8453 71.5108 45.048C71.1694 45.24 70.8921 45.5067 70.6788 45.848C70.4761 46.1893 70.3748 46.6267 70.3748 47.16C70.3748 47.5227 70.4494 47.832 70.5988 48.088C70.7481 48.3333 70.9454 48.5413 71.1908 48.712C71.4361 48.872 71.7134 49.0053 72.0228 49.112C72.3428 49.208 72.6681 49.2933 72.9988 49.368C73.8094 49.5387 74.4388 49.7093 74.8868 49.88C75.3454 50.0507 75.5748 50.3067 75.5748 50.648C75.5748 50.8507 75.5268 51.0213 75.4308 51.16C75.3348 51.288 75.2121 51.3947 75.0628 51.48C74.9241 51.5547 74.7641 51.6133 74.5828 51.656C74.4121 51.688 74.2468 51.704 74.0868 51.704C73.8628 51.704 73.6441 51.6773 73.4308 51.624C73.2281 51.5707 73.0468 51.4907 72.8868 51.384C72.7268 51.2667 72.5934 51.1227 72.4868 50.952C72.3908 50.7707 72.3428 50.5573 72.3428 50.312ZM82.0565 44.728V42.248H79.7845V44.728H78.4085V46.248H79.7845V51.128C79.7845 51.544 79.8538 51.88 79.9925 52.136C80.1312 52.392 80.3178 52.5893 80.5525 52.728C80.7978 52.8667 81.0752 52.9573 81.3845 53C81.7045 53.0533 82.0405 53.08 82.3925 53.08C82.6165 53.08 82.8458 53.0747 83.0805 53.064C83.3152 53.0533 83.5285 53.032 83.7205 53V51.24C83.6138 51.2613 83.5018 51.2773 83.3845 51.288C83.2672 51.2987 83.1445 51.304 83.0165 51.304C82.6325 51.304 82.3765 51.24 82.2485 51.112C82.1205 50.984 82.0565 50.728 82.0565 50.344V46.248H83.7205V44.728H82.0565Z" fill="#25394E"/>
<defs>
<linearGradient id="paint0_linear_928_3959" x1="0" y1="0" x2="62.9167" y2="185.716" gradientUnits="userSpaceOnUse">
<stop stop-color="#E8E8E8"/>
<stop offset="1" stop-color="#FAFAFA"/>
</linearGradient>
</defs>
</svg>
