<svg width="136" height="63" fill="none" xmlns="http://www.w3.org/2000/svg"><path d="M0 20C0 8.954 8.954 0 20 0h96c11.046 0 20 8.954 20 20v10c0 11.046-8.954 20-20 20H45.068c-4.573 0-8.993 1.585-12.658 4.32-4.211 3.144-9.777 7.04-12.91 8.18.42-.336.77-.913 1.061-1.64C22.82 55.22 17.075 50 11 50 4.925 50 0 45.075 0 39V20z" fill="url(#paint0_linear_635_5672)"/><path d="M25.744 21.728v-2.48h-2.272v2.48h-1.376v1.52h1.376v4.88c0 .416.07.752.208 1.008a1.5 1.5 0 00.56.592c.245.139.523.23.832.272.32.053.656.08 1.008.08.224 0 .453-.005.688-.016.235-.01.448-.032.64-.064v-1.76a3.203 3.203 0 01-.336.048 4.32 4.32 0 01-.368.016c-.384 0-.64-.064-.768-.192s-.192-.384-.192-.768v-4.096h1.664v-1.52h-1.664zm2.745-3.152V30h2.272v-4.336c0-.843.139-1.445.416-1.808.277-.373.725-.56 1.344-.56.544 0 .923.17 1.136.512.213.33.32.837.32 1.52V30h2.272v-5.088c0-.512-.048-.976-.144-1.392-.085-.427-.24-.784-.464-1.072a2.125 2.125 0 00-.928-.688c-.384-.17-.88-.256-1.488-.256-.427 0-.864.112-1.312.336-.448.213-.816.56-1.104 1.04h-.048v-4.304h-2.272zm11.82 1.872v-1.872h-2.272v1.872h2.272zm-2.272 1.28V30h2.272v-8.272h-2.272zm5.821 5.584h-2.16c.022.555.144 1.019.368 1.392.235.363.528.656.88.88.363.224.774.384 1.232.48a6.854 6.854 0 002.784 0 3.39 3.39 0 001.216-.464 2.57 2.57 0 00.848-.88c.224-.373.336-.832.336-1.376 0-.384-.074-.704-.224-.96a1.946 1.946 0 00-.592-.656 3.026 3.026 0 00-.848-.432 9.082 9.082 0 00-.96-.272c-.32-.075-.634-.144-.944-.208a9.435 9.435 0 01-.832-.208 1.845 1.845 0 01-.576-.32.623.623 0 01-.224-.496c0-.17.043-.304.128-.4a.82.82 0 01.304-.24 1.32 1.32 0 01.416-.096c.15-.021.288-.032.416-.032.406 0 .758.08 1.056.24.299.15.464.443.496.88h2.16c-.042-.512-.176-.933-.4-1.264a2.488 2.488 0 00-.816-.816 3.448 3.448 0 00-1.136-.432 6.676 6.676 0 00-2.608 0c-.426.075-.81.213-1.152.416a2.298 2.298 0 00-.832.8c-.202.341-.304.779-.304 1.312 0 .363.075.672.224.928.15.245.347.453.592.624.246.16.523.293.832.4.32.096.646.181.976.256.811.17 1.44.341 1.888.512.459.17.688.427.688.768a.878.878 0 01-.144.512 1.192 1.192 0 01-.368.32 1.954 1.954 0 01-.48.176 2.69 2.69 0 01-1.152-.032 1.795 1.795 0 01-.544-.24 1.545 1.545 0 01-.4-.432 1.35 1.35 0 01-.144-.64zm13.623-6.864v-1.872H55.21v1.872h2.272zm-2.272 1.28V30h2.272v-8.272H55.21zm5.821 5.584h-2.16c.022.555.144 1.019.368 1.392.235.363.528.656.88.88.363.224.774.384 1.232.48a6.854 6.854 0 002.784 0 3.39 3.39 0 001.216-.464 2.57 2.57 0 00.848-.88c.224-.373.336-.832.336-1.376 0-.384-.074-.704-.224-.96a1.946 1.946 0 00-.592-.656 3.026 3.026 0 00-.848-.432 9.082 9.082 0 00-.96-.272c-.32-.075-.634-.144-.944-.208a9.435 9.435 0 01-.832-.208 1.845 1.845 0 01-.576-.32.623.623 0 01-.224-.496c0-.17.043-.304.128-.4a.82.82 0 01.304-.24 1.32 1.32 0 01.416-.096c.15-.021.288-.032.416-.032.406 0 .758.08 1.056.24.299.15.464.443.496.88h2.16c-.042-.512-.176-.933-.4-1.264a2.488 2.488 0 00-.816-.816 3.448 3.448 0 00-1.136-.432 6.676 6.676 0 00-2.608 0c-.426.075-.81.213-1.152.416a2.298 2.298 0 00-.832.8c-.202.341-.304.779-.304 1.312 0 .363.075.672.224.928.15.245.347.453.592.624.246.16.523.293.832.4.32.096.646.181.976.256.81.17 1.44.341 1.888.512.459.17.688.427.688.768a.878.878 0 01-.144.512 1.192 1.192 0 01-.368.32 1.954 1.954 0 01-.48.176 2.69 2.69 0 01-1.152-.032 1.795 1.795 0 01-.544-.24 1.545 1.545 0 01-.4-.432 1.35 1.35 0 01-.144-.64zm17.16-1.472c0 .341-.033.672-.097.992-.064.32-.17.608-.32.864-.15.245-.352.443-.608.592-.245.15-.555.224-.928.224-.352 0-.656-.075-.912-.224a2.257 2.257 0 01-.624-.608 2.831 2.831 0 01-.352-.864 4.216 4.216 0 01-.112-.96c0-.341.032-.667.096-.976a2.89 2.89 0 01.336-.848c.16-.245.368-.443.624-.592.256-.15.57-.224.944-.224s.683.075.928.224c.245.15.443.347.592.592.16.235.272.512.336.832.064.31.096.635.096.976zm.031 3.104V30h2.16V18.576H78.11v4.16h-.032a2.38 2.38 0 00-1.056-.912 3.134 3.134 0 00-1.392-.32c-.608 0-1.141.123-1.6.368-.459.235-.843.55-1.152.944a4.385 4.385 0 00-.688 1.376 5.686 5.686 0 00-.224 1.6c0 .576.075 1.13.224 1.664.16.533.39 1.008.688 1.424.31.405.699.73 1.168.976.47.235 1.013.352 1.632.352.544 0 1.03-.096 1.456-.288.438-.203.79-.528 1.056-.976h.032zm5.893-3.072c0-.33.032-.656.096-.976a2.6 2.6 0 01.32-.848c.16-.245.368-.443.624-.592.256-.16.576-.24.96-.24s.704.08.96.24c.267.15.475.347.624.592.16.245.272.528.336.848a4.964 4.964 0 010 1.952c-.064.31-.176.592-.336.848a1.663 1.663 0 01-.624.592c-.256.15-.576.224-.96.224s-.704-.075-.96-.224a1.843 1.843 0 01-.624-.592 2.792 2.792 0 01-.32-.848 4.964 4.964 0 01-.096-.976zm-2.272 0c0 .661.102 1.259.304 1.792.203.533.491.992.864 1.376.374.373.822.661 1.344.864.523.203 1.11.304 1.76.304.651 0 1.238-.101 1.76-.304.534-.203.987-.49 1.36-.864.374-.384.662-.843.864-1.376.203-.533.304-1.13.304-1.792 0-.661-.101-1.259-.304-1.792a3.782 3.782 0 00-.864-1.376 3.702 3.702 0 00-1.36-.88c-.522-.213-1.109-.32-1.76-.32a4.63 4.63 0 00-1.76.32 3.78 3.78 0 00-2.208 2.256 5.023 5.023 0 00-.304 1.792zm14.214 2.64c-.363 0-.672-.075-.928-.224a1.904 1.904 0 01-.624-.576 2.878 2.878 0 01-.336-.848 5.047 5.047 0 010-1.968c.064-.32.17-.603.32-.848.16-.245.362-.443.608-.592.256-.16.57-.24.944-.24.362 0 .666.08.912.24.256.15.464.352.624.608.16.245.272.528.336.848.074.32.112.645.112.976 0 .33-.032.656-.096.976-.064.32-.176.603-.336.848-.15.235-.352.427-.608.576-.246.15-.555.224-.928.224zm-4.176-6.784v11.168h2.272v-3.92h.032c.277.405.629.715 1.056.928.437.203.912.304 1.424.304.608 0 1.136-.117 1.584-.352a3.29 3.29 0 001.136-.944c.309-.395.538-.848.688-1.36a5.697 5.697 0 00.224-1.6c0-.587-.075-1.147-.224-1.68a4.12 4.12 0 00-.688-1.424 3.468 3.468 0 00-1.168-.976c-.47-.245-1.03-.368-1.68-.368a3.24 3.24 0 00-1.408.304c-.427.203-.779.528-1.056.976h-.032v-1.056h-2.16zm15.349 3.248h-3.696a2.99 2.99 0 01.096-.544 1.86 1.86 0 01.304-.576c.149-.181.341-.33.576-.448.245-.128.549-.192.912-.192.555 0 .965.15 1.232.448.277.299.469.736.576 1.312zm-3.696 1.44h5.968a5.84 5.84 0 00-.16-1.84 4.425 4.425 0 00-.736-1.568 3.526 3.526 0 00-1.28-1.088c-.523-.277-1.136-.416-1.84-.416-.629 0-1.205.112-1.728.336a4.026 4.026 0 00-1.328.928 3.98 3.98 0 00-.864 1.376 4.817 4.817 0 00-.304 1.728c0 .64.096 1.227.288 1.76a4.1 4.1 0 00.848 1.376c.363.384.805.683 1.328.896.523.203 1.109.304 1.76.304.939 0 1.739-.213 2.4-.64.661-.427 1.152-1.136 1.472-2.128h-2c-.075.256-.277.501-.608.736-.331.224-.725.336-1.184.336-.64 0-1.131-.165-1.472-.496-.341-.33-.528-.864-.56-1.6zm7.427 1.12V30h2.512v-2.464h-2.512zm2.432-5.888v-3.072h-2.368v3.072l.608 4.928h1.136l.624-4.928z" fill="#25394E"/><defs><linearGradient id="paint0_linear_635_5672" x1="0" y1="0" x2="15.217" y2="95.225" gradientUnits="userSpaceOnUse"><stop stop-color="#E8E8E8"/><stop offset="1" stop-color="#FAFAFA"/></linearGradient></defs></svg>