<svg width="164" height="143" viewBox="0 0 164 143" fill="none" xmlns="http://www.w3.org/2000/svg">
<g filter="url(#filter0_dii_635_5675)">
<path d="M114 50C114 38.9543 105.046 30 94 30H40C28.9543 30 20 38.9543 20 50V60C20 71.0457 28.9543 80 40 80H76C76 80 89 90.5 94.5 92.5C92 90.5 92 80 92 80H94C105.046 80 114 71.0457 114 60V50Z" fill="#25394E"/>
</g>
<circle opacity="0.8" r="5" transform="matrix(-1 0 0 1 83 54)" fill="white"/>
<circle opacity="0.5" r="5" transform="matrix(-1 0 0 1 67 54)" fill="white"/>
<circle opacity="0.5" r="5" transform="matrix(-1 0 0 1 51 54)" fill="white"/>
<defs>
<filter id="filter0_dii_635_5675" x="-10" y="0" width="174" height="142.5" filterUnits="userSpaceOnUse" color-interpolation-filters="sRGB">
<feFlood flood-opacity="0" result="BackgroundImageFix"/>
<feColorMatrix in="SourceAlpha" type="matrix" values="0 0 0 0 0 0 0 0 0 0 0 0 0 0 0 0 0 0 127 0" result="hardAlpha"/>
<feOffset dx="10" dy="10"/>
<feGaussianBlur stdDeviation="20"/>
<feColorMatrix type="matrix" values="0 0 0 0 0 0 0 0 0 0 0 0 0 0 0 0 0 0 0.06 0"/>
<feBlend mode="normal" in2="BackgroundImageFix" result="effect1_dropShadow_635_5675"/>
<feBlend mode="normal" in="SourceGraphic" in2="effect1_dropShadow_635_5675" result="shape"/>
<feColorMatrix in="SourceAlpha" type="matrix" values="0 0 0 0 0 0 0 0 0 0 0 0 0 0 0 0 0 0 127 0" result="hardAlpha"/>
<feOffset dx="4" dy="4"/>
<feGaussianBlur stdDeviation="7"/>
<feComposite in2="hardAlpha" operator="arithmetic" k2="-1" k3="1"/>
<feColorMatrix type="matrix" values="0 0 0 0 1 0 0 0 0 1 0 0 0 0 1 0 0 0 0.1 0"/>
<feBlend mode="normal" in2="shape" result="effect2_innerShadow_635_5675"/>
<feColorMatrix in="SourceAlpha" type="matrix" values="0 0 0 0 0 0 0 0 0 0 0 0 0 0 0 0 0 0 127 0" result="hardAlpha"/>
<feOffset dx="-6" dy="-6"/>
<feGaussianBlur stdDeviation="8.5"/>
<feComposite in2="hardAlpha" operator="arithmetic" k2="-1" k3="1"/>
<feColorMatrix type="matrix" values="0 0 0 0 0 0 0 0 0 0 0 0 0 0 0 0 0 0 0.05 0"/>
<feBlend mode="normal" in2="effect2_innerShadow_635_5675" result="effect3_innerShadow_635_5675"/>
</filter>
</defs>
</svg>
