<svg width="56" height="56" fill="none" xmlns="http://www.w3.org/2000/svg"><circle cx="28" cy="28" r="28" fill="#fff"/><path d="M28.323 13c-3.568-.034-6.52 3.02-6.52 6.588v.96h-3.43c-.755 0-1.373.618-1.373 1.373v15.337c0 3.397 2.78 6.176 6.176 6.176H33.23c3.397 0 6.177-2.779 6.177-6.176V21.887c0-.755-.618-1.373-1.373-1.373h-3.431v-1.132c.034-3.534-2.78-6.347-6.28-6.382zm-3.774 6.348a3.675 3.675 0 013.671-3.671 3.675 3.675 0 013.672 3.67v1.133h-7.343v-1.132z" fill="#25394E"/><circle cx="35" cy="39" r="9" fill="#FFD32E"/><path d="M36.37 44v-8.4h-1.356c-.048.32-.148.588-.3.804a1.87 1.87 0 01-.564.528c-.216.128-.464.22-.744.276a4.235 4.235 0 01-.852.06v1.284h2.112V44h1.704z" fill="#fff"/></svg>